<svg width="29" height="26" viewBox="0 0 29 26" fill="none" xmlns="http://www.w3.org/2000/svg">
<path d="M23.3 24.5H5.7C4.59543 24.5 3.7 23.6046 3.7 22.5V18H2.75C1.7835 18 1 17.2165 1 16.25C1 15.2835 1.7835 14.5 2.75 14.5H3.7V11.5H25.3V14.5H26.25C27.2165 14.5 28 15.2835 28 16.25C28 17.2165 27.2165 18 26.25 18H25.3V22.5C25.3 23.6046 24.4046 24.5 23.3 24.5Z" stroke="#C5C5C5" stroke-width="2"/>
<path d="M3.7 4.74877V8.63793H25.3V4.779C25.3 4.60832 25.2026 4.4526 25.0491 4.3779L24.2752 4.00122C17.8207 0.859651 10.2517 1.00154 3.91944 4.38282C3.78436 4.45495 3.7 4.59563 3.7 4.74877Z" stroke="#C5C5C5" stroke-width="2"/>
</svg>
