<svg width="29" height="29" viewBox="0 0 29 29" fill="none" xmlns="http://www.w3.org/2000/svg">
<path d="M22 26V26.0858C22 26.9767 20.9229 27.4229 20.2929 26.7929L17.5858 24.0858C17.2107 23.7107 16.702 23.5 16.1716 23.5H11.0607C10.4749 23.5 10 23.0251 10 22.4393C10 22.158 10.1117 21.8883 10.3107 21.6893L12.5 19.5L12.9142 19.0858C13.2893 18.7107 13.798 18.5 14.3284 18.5H18.5C19.6046 18.5 20.5 17.6046 20.5 16.5V14C20.5 12.8954 21.3954 12 22.5 12H24.5C25.6046 12 26.5 12.8954 26.5 14V22C26.5 23.1046 25.6046 24 24.5 24H24C22.8954 24 22 24.8954 22 26Z" stroke="#C4C4C4" stroke-width="2"/>
<path d="M8.5 21V21.0858C8.5 21.9767 9.57714 22.4229 10.2071 21.7929L12.9142 19.0858C13.2893 18.7107 13.798 18.5 14.3284 18.5H18.5C19.6046 18.5 20.5 17.6046 20.5 16.5V9C20.5 7.89543 19.6046 7 18.5 7H6C4.89543 7 4 7.89543 4 9V17C4 18.1046 4.89543 19 6 19H6.5C7.60457 19 8.5 19.8954 8.5 21Z" stroke="#C4C4C4" stroke-width="2"/>
</svg>
