<svg width="25" height="26" viewBox="0 0 25 26" fill="none" xmlns="http://www.w3.org/2000/svg">
<path d="M23.2167 13.4306C23.0746 13.4318 22.9377 13.3781 22.8345 13.2807L22.3881 12.8343L20.681 11.1271V13.5414V23.7497C20.681 23.8955 20.623 24.0354 20.5199 24.1386C20.4167 24.2417 20.2768 24.2997 20.131 24.2997H17.031C16.8851 24.2997 16.7452 24.2417 16.642 24.1386C16.5389 24.0354 16.481 23.8955 16.481 23.7497V20.6497C16.481 19.9734 16.2123 19.3248 15.7341 18.8465C15.2559 18.3683 14.6073 18.0997 13.931 18.0997H10.831C10.1547 18.0997 9.50605 18.3683 9.02783 18.8465C8.54961 19.3248 8.28095 19.9734 8.28095 20.6497V23.7497C8.28095 23.8955 8.22301 24.0354 8.11986 24.1386C8.01672 24.2417 7.87682 24.2997 7.73095 24.2997H4.63095C4.48508 24.2997 4.34519 24.2417 4.24204 24.1386C4.1389 24.0354 4.08095 23.8955 4.08095 23.7497V13.5414V11.1272L2.37385 12.8343L1.92739 13.2807C1.82418 13.3781 1.68726 13.4318 1.54522 13.4306C1.40101 13.4293 1.26307 13.3715 1.16109 13.2695C1.05912 13.1676 1.00127 13.0296 1.00002 12.8854C0.998787 12.7434 1.05255 12.6064 1.14991 12.5032L11.9921 1.66103C11.9921 1.661 11.9922 1.66096 11.9922 1.66093C12.0953 1.55788 12.2352 1.5 12.381 1.5C12.5267 1.5 12.6666 1.55788 12.7697 1.66093C12.7697 1.66096 12.7698 1.661 12.7698 1.66103L23.612 12.5032C23.7094 12.6064 23.7631 12.7434 23.7619 12.8854C23.7606 13.0296 23.7028 13.1676 23.6008 13.2695C23.4988 13.3715 23.3609 13.4293 23.2167 13.4306Z" stroke="#C4C4C4" stroke-width="2"/>
</svg>
