<svg width="21" height="29" viewBox="0 0 21 29" fill="none" xmlns="http://www.w3.org/2000/svg">
<path d="M1 23.367V8.52612C1 6.31698 2.79086 4.52612 5 4.52612H15.5566C17.7658 4.52612 19.5566 6.31699 19.5566 8.52613V23.367C19.5566 25.5762 17.7658 27.367 15.5566 27.367H5C2.79086 27.367 1 25.5762 1 23.367Z" stroke="#C4C4C4" stroke-width="1.5"/>
<path d="M7 14.5H16" stroke="#C4C4C4" stroke-width="1.5" stroke-linecap="round"/>
<path d="M7 18.5H16" stroke="#C4C4C4" stroke-width="1.5" stroke-linecap="round"/>
<path d="M7 22.5H16" stroke="#C4C4C4" stroke-width="1.5" stroke-linecap="round"/>
<path d="M7 10.5H16" stroke="#C4C4C4" stroke-width="1.5" stroke-linecap="round"/>
<circle cx="4.51618" cy="10.0162" r="0.516179" fill="#C4C4C4"/>
<circle cx="4.25251" cy="13.9981" r="0.516179" fill="#C4C4C4"/>
<circle cx="4.25251" cy="17.7144" r="0.516179" fill="#C4C4C4"/>
<circle cx="4.25251" cy="21.431" r="0.516179" fill="#C4C4C4"/>
<path d="M5.00097 6.02157C4.58675 6.02157 4.25097 6.35736 4.25097 6.77157C4.25097 7.18579 4.58675 7.52157 5.00097 7.52157V6.02157ZM3.74948 3.03442L4.38222 3.43708L3.74948 3.03442ZM4.48633 4.11325V3.07958H2.98633V4.11325H4.48633ZM5.64465 3.07V5.93594H7.14465V3.07H5.64465ZM4.38222 3.43708L4.52355 3.215L3.25805 2.40969L3.11673 2.63177L4.38222 3.43708ZM5.48422 6.02157H5.00097V7.52157H5.48422V6.02157ZM4.52355 3.215C4.81207 2.76161 5.49235 2.82394 5.69368 3.32222L7.08445 2.76029C6.42611 1.13091 4.20153 0.927078 3.25805 2.40969L4.52355 3.215ZM5.64465 5.93594C5.64465 5.93247 5.64554 5.92906 5.64724 5.92603L6.95599 6.65893C7.07969 6.43804 7.14465 6.18911 7.14465 5.93594H5.64465ZM7.14465 3.07C7.14465 2.96386 7.12421 2.85871 7.08445 2.76029L5.69368 3.32222C5.66129 3.24207 5.64465 3.15644 5.64465 3.07H7.14465ZM5.64724 5.92603C5.61419 5.98503 5.55185 6.02157 5.48422 6.02157V7.52157C6.09478 7.52157 6.65768 7.19164 6.95599 6.65893L5.64724 5.92603ZM4.48633 3.07958C4.48633 3.20622 4.45021 3.33024 4.38222 3.43708L3.11673 2.63177C3.03156 2.7656 2.98633 2.92094 2.98633 3.07958H4.48633Z" fill="#C4C4C4"/>
<path d="M10.2139 6.02157C9.79964 6.02157 9.46386 6.35736 9.46386 6.77157C9.46386 7.18579 9.79964 7.52157 10.2139 7.52157V6.02157ZM8.96237 3.03442L9.59511 3.43708L8.96237 3.03442ZM9.69922 4.11325V3.07958H8.19922V4.11325H9.69922ZM10.8575 3.07V5.93594H12.3575V3.07H10.8575ZM9.59511 3.43708L9.73644 3.215L8.47094 2.40969L8.32962 2.63177L9.59511 3.43708ZM10.6971 6.02157H10.2139V7.52157H10.6971V6.02157ZM9.73644 3.215C10.025 2.76161 10.7052 2.82394 10.9066 3.32222L12.2973 2.76029C11.639 1.13091 9.41442 0.927078 8.47094 2.40969L9.73644 3.215ZM10.8575 5.93594C10.8575 5.93247 10.8584 5.92906 10.8601 5.92603L12.1689 6.65893C12.2926 6.43804 12.3575 6.18911 12.3575 5.93594H10.8575ZM12.3575 3.07C12.3575 2.96386 12.3371 2.85871 12.2973 2.76029L10.9066 3.32222C10.8742 3.24207 10.8575 3.15644 10.8575 3.07H12.3575ZM10.8601 5.92603C10.8271 5.98503 10.7647 6.02157 10.6971 6.02157V7.52157C11.3077 7.52157 11.8706 7.19164 12.1689 6.65893L10.8601 5.92603ZM9.69922 3.07958C9.69922 3.20622 9.66311 3.33024 9.59511 3.43708L8.32962 2.63177C8.24446 2.7656 8.19922 2.92094 8.19922 3.07958H9.69922Z" fill="#C4C4C4"/>
<path d="M15.4267 6.02157C15.0125 6.02157 14.6767 6.35736 14.6767 6.77157C14.6767 7.18579 15.0125 7.52157 15.4267 7.52157V6.02157ZM14.1753 3.03442L14.808 3.43708L14.1753 3.03442ZM14.9121 4.11325V3.07958H13.4121V4.11325H14.9121ZM16.0704 3.07V5.93594H17.5704V3.07H16.0704ZM14.808 3.43708L14.9493 3.215L13.6838 2.40969L13.5425 2.63177L14.808 3.43708ZM15.91 6.02157H15.4267V7.52157H15.91V6.02157ZM14.9493 3.215C15.2378 2.76161 15.9181 2.82394 16.1195 3.32222L17.5102 2.76029C16.8519 1.13091 14.6273 0.927078 13.6838 2.40969L14.9493 3.215ZM16.0704 5.93594C16.0704 5.93247 16.0713 5.92906 16.073 5.92603L17.3818 6.65893C17.5055 6.43804 17.5704 6.18911 17.5704 5.93594H16.0704ZM17.5704 3.07C17.5704 2.96386 17.55 2.85871 17.5102 2.76029L16.1195 3.32222C16.0871 3.24207 16.0704 3.15644 16.0704 3.07H17.5704ZM16.073 5.92603C16.04 5.98503 15.9776 6.02157 15.91 6.02157V7.52157C16.5206 7.52157 17.0835 7.19164 17.3818 6.65893L16.073 5.92603ZM14.9121 3.07958C14.9121 3.20622 14.876 3.33024 14.808 3.43708L13.5425 2.63177C13.4573 2.7656 13.4121 2.92094 13.4121 3.07958H14.9121Z" fill="#C4C4C4"/>
</svg>
