<svg width="40" height="40" viewBox="0 0 40 40" fill="none" xmlns="http://www.w3.org/2000/svg">
<path d="M10.6816 29.3184C11.0731 29.7111 11.5384 30.0225 12.0507 30.2348C12.563 30.4471 13.1121 30.5561 13.6667 30.5556H22.1111L30.5556 39V30.5556H34.7778C35.8976 30.5556 36.9715 30.1107 37.7633 29.3189C38.5552 28.5271 39 27.4531 39 26.3333V13.6667C39 12.5469 38.5552 11.4729 37.7633 10.6811C36.9715 9.88929 35.8976 9.44444 34.7778 9.44444H30.5556V17.8889M10.6816 29.3184L17.8889 22.1111H26.3333M10.6816 29.3184L9.44444 30.5556V22.1111H5.22222C4.10242 22.1111 3.02848 21.6663 2.23666 20.8745C1.44484 20.0826 1 19.0087 1 17.8889V5.22222C1 4.10242 1.44484 3.02848 2.23666 2.23666C3.02848 1.44484 4.10242 1 5.22222 1H26.3333C27.4531 1 28.5271 1.44484 29.3189 2.23666C30.1107 3.02848 30.5556 4.10242 30.5556 5.22222V17.8889M26.3333 22.1111C27.4531 22.1111 28.5271 21.6663 29.3189 20.8745C30.1107 20.0826 30.5556 19.0087 30.5556 17.8889M26.3333 22.1111V22.1111C28.6652 22.1111 30.5556 20.2208 30.5556 17.8889V17.8889" stroke="#C5C5C5" stroke-width="2" stroke-linecap="round" stroke-linejoin="round"/>
</svg>
