<svg width="40" height="40" viewBox="0 0 40 40" fill="none" xmlns="http://www.w3.org/2000/svg">
<path d="M31.3636 33.8182V37.463C31.3636 38.3706 30.2519 38.8088 29.6326 38.1453L23.4718 31.5445C23.0935 31.1392 22.564 30.9091 22.0097 30.9091H13C11.8954 30.9091 11 30.0137 11 28.9091V12C11 10.8954 11.8954 10 13 10H37C38.1046 10 39 10.8954 39 12V29.8182C39 30.9228 38.1046 31.8182 37 31.8182H33.3636C32.2591 31.8182 31.3636 32.7136 31.3636 33.8182Z" fill="#FF7A00" stroke="#FF7A00" stroke-width="2"/>
<path d="M8.90909 25.5455V29.4672C8.90909 30.3743 10.0197 30.8128 10.6394 30.1504L17.1042 23.2397C17.4823 22.8355 18.0111 22.6061 18.5647 22.6061H28C29.1046 22.6061 30 21.7106 30 20.6061V3C30 1.89543 29.1046 1 28 1H3C1.89543 1 1 1.89543 1 3V21.5455C1 22.65 1.89543 23.5455 3 23.5455H6.90909C8.01366 23.5455 8.90909 24.4409 8.90909 25.5455Z" fill="#F0A500" stroke="#F0A500" stroke-width="2"/>
</svg>
