<?xml version="1.0" encoding="utf-8"?>
<!-- Generator: Adobe Illustrator 26.0.3, SVG Export Plug-In . SVG Version: 6.00 Build 0)  -->
<svg version="1.1" id="Layer_1" xmlns="http://www.w3.org/2000/svg" xmlns:xlink="http://www.w3.org/1999/xlink" x="0px" y="0px"
	 viewBox="0 0 11.9 11.1" style="enable-background:new 0 0 11.9 11.1;" xml:space="preserve">
<style type="text/css">
	.st0{fill:#001F3B;}
	.st1{fill:#FFFFFF;}
</style>
<path class="st0" d="M10.6,2.7c0,1.2-0.9,2.1-2.1,2.1C8,4.8,7.5,4.6,7.1,4.2l-2,1c0,0.1,0,0.1,0,0.3c0,0.1,0,0.2,0,0.3l2,1
	C7.5,6.4,8,6.2,8.5,6.2c1.3,0,2.3,1.1,2,2.5c-0.1,0.8-0.8,1.5-1.6,1.6c-1.3,0.2-2.5-0.8-2.5-2c0-0.1,0-0.2,0-0.3l-2-1
	C4,7.4,3.2,7.7,2.5,7.4C1.7,7.2,1.1,6.6,1,5.8C0.8,4.5,1.8,3.4,3,3.4c0.6,0,1.1,0.2,1.4,0.6l2-1c0-0.1,0-0.2,0-0.3
	c0-1.1,0.9-2.1,2.1-2.1C9.7,0.7,10.6,1.6,10.6,2.7L10.6,2.7z M3,6.1c0.4,0,0.7-0.3,0.7-0.7c0-0.4-0.3-0.7-0.7-0.7
	c-0.4,0-0.7,0.3-0.7,0.7C2.3,5.8,2.7,6.1,3,6.1z M8.5,2C8.1,2,7.8,2.3,7.8,2.7c0,0.4,0.3,0.7,0.7,0.7s0.7-0.3,0.7-0.7
	C9.2,2.3,8.9,2,8.5,2z M8.5,8.9c0.4,0,0.7-0.3,0.7-0.7c0-0.4-0.3-0.7-0.7-0.7S7.8,7.8,7.8,8.2C7.8,8.6,8.1,8.9,8.5,8.9z"/>
<circle class="st1" cx="3" cy="5.5" r="1"/>
<circle class="st1" cx="8.5" cy="2.7" r="1"/>
<circle class="st1" cx="8.5" cy="8.2" r="1"/>
</svg>
