<svg width="40" height="40" viewBox="0 0 40 40" fill="none" xmlns="http://www.w3.org/2000/svg">
<path d="M1.41635 18.9329L18.9362 1.43973C18.9363 1.43969 18.9363 1.43966 18.9363 1.43962C19.2182 1.15831 19.6008 1 20 1C20.3992 1 20.7818 1.15831 21.0636 1.43962C21.0637 1.43966 21.0637 1.43969 21.0638 1.43973L38.5836 18.9329C38.8541 19.2153 39.0033 19.5917 38.9999 19.982C38.9965 20.3749 38.8387 20.7509 38.5601 21.0292C38.2814 21.3074 37.904 21.4656 37.5092 21.469C37.1169 21.4724 36.7392 21.3228 36.4563 21.0526L35.7296 20.3271L34.0231 18.6231V21.0347V37.5C34.0231 37.8973 33.865 38.2787 33.5831 38.5601C33.3012 38.8416 32.9186 39 32.5192 39H27.5115C27.1122 39 26.7295 38.8416 26.4476 38.5601C26.1658 38.2787 26.0077 37.8973 26.0077 37.5V32.4999C26.0077 31.5711 25.6382 30.6807 24.9809 30.0245C24.3237 29.3682 23.4326 28.9999 22.5038 28.9999H17.4962C16.5674 28.9999 15.6763 29.3682 15.0191 30.0245C14.3618 30.6807 13.9923 31.5711 13.9923 32.4999V37.5C13.9923 37.8973 13.8342 38.2787 13.5524 38.5601C13.2705 38.8416 12.8878 39 12.4885 39H7.48077C7.08143 39 6.69876 38.8416 6.41685 38.5601C6.13499 38.2787 5.97692 37.8973 5.97692 37.5V21.0347V18.6231L4.27036 20.3271L3.54363 21.0527C3.2607 21.3228 2.88301 21.4724 2.49076 21.469C2.09598 21.4656 1.71864 21.3074 1.43993 21.0292C1.16127 20.7509 1.00348 20.3749 1.00006 19.982C0.99666 19.5917 1.14592 19.2154 1.41635 18.9329Z" stroke="#C4C4C4" stroke-width="2"/>
</svg>
