<svg width="21" height="20" viewBox="0 0 21 20" fill="none" xmlns="http://www.w3.org/2000/svg">
<path d="M14.9826 9.51955L20.2195 4.36393C20.7188 3.87233 21 3.20092 21 2.5002C21 1.11938 19.8806 0 18.4998 0H17.964C17.1303 0 16.3301 0.327815 15.736 0.912689L11.0607 5.51546C10.8753 5.69799 10.5786 5.70078 10.3898 5.52179L5.48518 0.872145C4.89448 0.312146 4.11151 0 3.29755 0H3.06988C1.58143 0 0.330362 1.11781 0.163433 2.59687C0.0605106 3.50879 0.391563 4.41616 1.05757 5.04754L5.78967 9.53368C5.99612 9.72939 6.00546 10.0552 5.81056 10.2624L1.49746 14.8483C0.841757 15.5455 0.550379 16.5095 0.710133 17.4531L0.756399 17.7264C0.978647 19.0392 2.11578 20 3.44725 20C4.16367 20 4.85136 19.7183 5.36189 19.2157L10.1244 14.5271C10.4576 14.1991 10.9939 14.2041 11.3208 14.5384L15.765 19.0819C16.3393 19.669 17.126 20 17.9473 20H18.1704C19.7332 20 21 18.7332 21 17.1704C21 16.3945 20.6813 15.6525 20.1186 15.1183L14.9892 10.2489C14.7812 10.0514 14.7782 9.72079 14.9826 9.51955Z" fill="#F0A500"/>
</svg>
