<svg width="40" height="40" viewBox="0 0 40 40" fill="none" xmlns="http://www.w3.org/2000/svg">
<g clip-path="url(#clip0_436_69)">
<path d="M33.2 39H6.8C5.69543 39 4.8 38.1046 4.8 37V28.8039H3C1.89543 28.8039 1 27.9085 1 26.8039V25.3137C1 24.2092 1.89543 23.3137 3 23.3137H4.8V18.6078H35.2V23.3137H37C38.1046 23.3137 39 24.2092 39 25.3137V26.8039C39 27.9085 38.1046 28.8039 37 28.8039H35.2V37C35.2 38.1046 34.3046 39 33.2 39Z" stroke="#C5C5C5" stroke-width="2"/>
<path d="M4.8 7.93419V14.1183H35.2V7.97156C35.2 7.75951 35.0839 7.56448 34.8975 7.46337L33.8547 6.89766C24.8275 2.00059 13.8888 2.21826 5.06359 7.47058C4.90015 7.56785 4.8 7.74399 4.8 7.93419Z" stroke="#C5C5C5" stroke-width="2"/>
</g>
<defs>
<clipPath id="clip0_436_69">
<rect width="40" height="40" fill="white"/>
</clipPath>
</defs>
</svg>
