<svg width="177" height="64" viewBox="0 0 177 64" fill="none" xmlns="http://www.w3.org/2000/svg">
<g clip-path="url(#clip0_658_30)">
<g filter="url(#filter0_d_658_30)">
<circle cx="32.5" cy="31.5" r="25.5" fill="white"/>
</g>
<g clip-path="url(#clip1_658_30)">
<path d="M34.5159 30.7586C35.8977 32.0402 36.2799 34.5951 35.3913 35.4053C34.4166 36.2937 31.7055 35.2738 30.8853 33.3072C30.495 32.3707 30.3663 30.8211 31.2108 30.1067C32.1374 29.3229 33.6981 30.0002 34.5159 30.7586ZM35.5937 35.2459C35.5058 35.3688 35.3956 35.4734 35.2692 35.554C35.1347 35.6376 35.0172 35.669 34.9104 35.6984C34.7892 35.7314 34.6648 35.7511 34.5396 35.7571C35.2563 36.4685 36.2966 37.4642 37.6111 38.5969C38.318 39.2062 39.0516 39.8457 40.061 40.5851C43.3696 43.0107 44.8947 43.2469 45.4405 43.3001C46.0709 43.3614 47.0804 43.446 47.5878 42.8257C47.9413 42.3946 48.042 41.6334 47.7413 41.0816C47.1273 39.9554 45.3285 40.6028 42.4152 39.5043C41.4882 39.1546 40.8746 38.7892 39.9872 38.2604C38.445 37.3417 37.0218 36.2284 35.7512 34.9467C35.7128 35.0536 35.6597 35.1545 35.5937 35.2462V35.2459Z" fill="#FF7A00"/>
<path d="M34.4586 30.8166C34.9085 31.2371 35.2459 31.7767 35.4687 32.3547C35.6785 32.8969 35.8034 33.4848 35.7875 34.0699C35.7754 34.5062 35.6834 35.0034 35.3633 35.3187C35.0789 35.5991 34.6554 35.6621 34.2764 35.643C33.7683 35.6177 33.2671 35.447 32.817 35.2106C32.3101 34.9444 31.8492 34.5821 31.4815 34.1357C31.1072 33.681 30.8631 33.1452 30.7442 32.5647C30.6236 31.9762 30.6064 31.3122 30.8446 30.7506C30.9608 30.477 31.1443 30.2338 31.3909 30.072C31.652 29.9011 31.9599 29.8344 32.2672 29.8395C32.926 29.8504 33.5744 30.1491 34.1058 30.5296C34.2288 30.6176 34.3464 30.7132 34.4579 30.816C34.5346 30.8866 34.6485 30.7708 34.5715 30.6998C34.0659 30.2337 33.425 29.8752 32.756 29.7334C32.1212 29.5988 31.4255 29.6952 30.9806 30.2197C30.5619 30.7126 30.4647 31.4118 30.5103 32.0435C30.5553 32.6679 30.7301 33.2896 31.0577 33.821C31.3824 34.3478 31.8352 34.7863 32.3455 35.1225C32.8135 35.4309 33.3434 35.6647 33.8935 35.7625C34.3341 35.8412 34.8243 35.8446 35.2271 35.6205C35.6265 35.399 35.8272 34.959 35.9032 34.518C36.0026 33.9414 35.9322 33.3376 35.7774 32.7782C35.6024 32.1467 35.3071 31.5435 34.8921 31.0411C34.7922 30.9204 34.6849 30.8065 34.5707 30.7C34.4959 30.6293 34.3819 30.7452 34.4586 30.8166Z" fill="#FA4A0C"/>
<path d="M35.5241 35.2044C35.2883 35.5232 34.9203 35.6546 34.5392 35.675C34.4721 35.6786 34.4303 35.7636 34.4825 35.8153C35.3307 36.6569 36.2033 37.4718 37.1001 38.26C38.095 39.1347 39.1041 39.9933 40.1752 40.7695C41.112 41.4484 42.0836 42.0911 43.1154 42.6098C43.6667 42.8866 44.2414 43.1356 44.8407 43.281C45.0038 43.3206 45.1689 43.3507 45.3354 43.3712C45.6969 43.4154 46.0667 43.4426 46.4302 43.4141C46.9321 43.3748 47.4424 43.2082 47.7345 42.7611C48.0398 42.293 48.0846 41.6371 47.8537 41.1282C47.5484 40.4545 46.798 40.3201 46.1497 40.2293C45.671 40.1621 45.1905 40.1106 44.7136 40.031C44.0866 39.9281 43.4683 39.7764 42.864 39.5771C42.2397 39.3689 41.6348 39.1045 41.0561 38.7871C40.4533 38.4571 39.8598 38.1018 39.2835 37.7254C38.2368 37.0417 37.251 36.2652 36.3373 35.405C36.1581 35.2361 35.9816 35.0642 35.808 34.8891C35.7621 34.8428 35.6946 34.8687 35.6737 34.9254C35.6362 35.0248 35.5861 35.1187 35.5246 35.2047C35.4642 35.2908 35.6035 35.373 35.6633 35.2877C35.7318 35.1895 35.7875 35.0825 35.8287 34.9695L35.6944 35.0056C36.4978 35.8151 37.3622 36.5586 38.2796 37.2295C38.8392 37.6386 39.4186 38.0182 40.0129 38.3716C40.5545 38.6943 41.0972 39.0167 41.6689 39.2811C42.8029 39.8054 44.0076 40.1067 45.2375 40.2746C45.6648 40.333 46.0958 40.3732 46.5197 40.4554C46.8208 40.5132 47.1365 40.5929 47.3855 40.784C47.7171 41.0392 47.8535 41.477 47.8372 41.8893C47.8262 42.1666 47.7478 42.4468 47.5962 42.678C47.4578 42.8898 47.2501 43.0394 47.0177 43.127C46.5569 43.2999 46.0455 43.2736 45.565 43.2299C45.4777 43.222 45.3906 43.2134 45.3037 43.2026C45.2772 43.1993 45.3053 43.2026 45.2742 43.1985C45.256 43.1959 45.2379 43.1932 45.2197 43.1903C45.1797 43.1839 45.1394 43.177 45.0998 43.1692C44.5952 43.073 44.1069 42.8899 43.6377 42.6786C42.7194 42.2634 41.8517 41.7296 41.0163 41.1612C39.9261 40.42 38.8987 39.5988 37.8982 38.737C36.9411 37.9124 36.0023 37.067 35.0937 36.1865C34.9272 36.025 34.7616 35.8626 34.5969 35.6991L34.54 35.8393C34.7706 35.827 35.0097 35.778 35.2188 35.675C35.3978 35.5873 35.5445 35.4478 35.6636 35.2869C35.7251 35.2031 35.5857 35.1211 35.5241 35.2044Z" fill="#FF7A00"/>
<path d="M28.8157 44.0614C28.3176 43.9034 27.8279 43.7214 27.3464 43.5154L27.5766 43.614C26.4736 43.1375 25.4283 42.5261 24.4794 41.778L24.6745 41.9321C23.8188 41.2558 23.0501 40.4717 22.3867 39.5983L22.5374 39.7979C21.8598 38.8982 21.2982 37.913 20.8664 36.8667L20.9636 37.1023C20.6002 36.2173 20.3272 35.2963 20.149 34.3539C20.0982 34.0853 20.0548 33.8153 20.0189 33.5439L20.0533 33.8068C19.9199 32.7897 19.8905 31.7611 19.9656 30.7378C19.987 30.4483 20.0165 30.1595 20.0541 29.8714L20.0197 30.1343C20.1507 29.1353 20.3815 28.1527 20.7085 27.2019C20.8009 26.9338 20.9011 26.6686 21.0091 26.4065L20.9127 26.642C21.2575 25.8036 21.6827 25.0021 22.182 24.2495C22.326 24.0332 22.4762 23.8216 22.6327 23.6144L22.4818 23.8139C23.1176 22.971 23.8549 22.2135 24.6761 21.5593L24.481 21.7134C25.3991 20.9881 26.4188 20.4024 27.4855 19.94L27.2553 20.0394C28.3764 19.5573 29.554 19.2166 30.7595 19.0472L30.5032 19.0823C31.5238 18.9425 32.5583 18.928 33.5797 19.0659L33.3226 19.0307C34.1805 19.1484 35.0195 19.3804 35.8185 19.7208L35.5882 19.6214C36.4842 20.0118 37.328 20.5172 38.0992 21.1255L37.9041 20.9714C38.7239 21.6201 39.4604 22.372 40.096 23.2094L39.9453 23.0099C40.5778 23.845 41.1033 24.7593 41.5091 25.7307L41.4127 25.4953C41.7989 26.4266 42.0631 27.4061 42.1985 28.4083L42.1633 28.146C42.2851 29.0804 42.2867 30.0271 42.1678 30.9619L42.2022 30.699C42.0756 31.6539 41.8256 32.5873 41.4589 33.4749L41.5553 33.2394C41.1814 34.1362 40.6979 34.9809 40.1164 35.7535L40.2671 35.554C39.668 36.3462 38.9735 37.0577 38.1999 37.6718L38.3951 37.5177C37.6416 38.1143 36.8161 38.6092 35.939 38.9904L36.1692 38.8918C35.3688 39.2366 34.5279 39.4734 33.6678 39.5963L33.9248 39.5612C33.0634 39.6761 32.191 39.6744 31.33 39.5561L31.5871 39.5912C30.7698 39.4812 29.9703 39.2615 29.2092 38.9376L29.4394 39.0362C28.7907 38.755 28.1792 38.3914 27.6194 37.9539L27.8144 38.1082C27.2531 37.6628 26.7486 37.1472 26.3128 36.5734L26.4637 36.773C25.9939 36.1493 25.6039 35.4668 25.303 34.7422L25.4002 34.9776C25.085 34.2125 24.8695 33.4082 24.7594 32.5856L24.7938 32.8485C24.6906 32.0584 24.6888 31.2578 24.7885 30.4672L24.7541 30.7293C24.8528 29.9774 25.0473 29.2419 25.3326 28.5415L25.2354 28.777C25.5137 28.104 25.8755 27.4704 26.3118 26.8917L26.1611 27.0912C26.6301 26.4769 27.1729 25.9255 27.7768 25.4502L27.5818 25.6044C28.2324 25.0898 28.9447 24.6626 29.7013 24.3329L29.4709 24.4315C30.1285 24.1489 30.8274 23.9695 31.5333 23.8716H32.1559C32.9588 23.7501 34.4771 24.8038 35.4722 25.8071C36.1276 26.4678 37.3924 26.9699 37.3516 26.0401V26.0401V26.0401C37.2964 24.7785 36.1631 23.8126 35.0815 23.1608C32.3872 21.5374 29.5583 22.2172 28.3801 22.7871C27.8531 23.0432 27.3497 23.3471 26.8758 23.6951C26.182 24.2045 25.5352 24.7782 24.9876 25.4501C24.2966 26.2939 23.749 27.2503 23.3676 28.2795C22.9937 29.2837 22.8076 30.3716 22.7858 31.4443C22.7429 33.5587 23.3758 35.7297 24.5721 37.458C25.239 38.4212 26.0382 39.2439 26.99 39.9139C27.8469 40.5171 28.8271 40.9596 29.83 41.2374C31.303 41.6452 32.8345 41.7083 34.3374 41.4734C36.2941 41.1679 38.1058 40.2429 39.6488 38.9979C40.3788 38.408 41.0363 37.73 41.6072 36.9787C42.2298 36.1601 42.7702 35.2929 43.1762 34.3403C43.5918 33.3649 43.9053 32.3591 44.0504 31.3032C44.1289 30.7308 44.1845 30.159 44.1848 29.5804C44.1848 29.0044 44.1307 28.4349 44.0539 27.8646C43.7861 25.8753 42.9877 23.9414 41.8355 22.32C40.6559 20.6613 39.1382 19.2474 37.3516 18.2987C36.3782 17.7822 35.3374 17.3924 34.2563 17.1967C33.1189 16.9912 31.9658 16.9419 30.8183 17.0717C28.5839 17.3227 26.4097 18.084 24.5014 19.3038C23.2982 20.0729 22.2079 21.0407 21.3126 22.1672C20.8476 22.7523 20.4178 23.3655 20.0448 24.016C19.6717 24.6665 19.3626 25.3441 19.0848 26.0401C18.5528 27.3774 18.2397 28.7829 18.0848 30.2163C17.9297 31.6525 17.9933 33.0965 18.2268 34.5202C18.4622 35.9566 18.9204 37.3502 19.5576 38.6519C20.2108 39.979 21.0686 41.19 22.0981 42.2384C23.1973 43.3588 24.4935 44.2922 25.8886 44.9863C26.6682 45.3737 27.4754 45.7003 28.3032 45.9631C28.7852 46.1157 29.376 45.7823 29.4891 45.2745C29.6081 44.7395 29.3316 44.2249 28.8157 44.0614Z" fill="#FF7A00"/>
</g>
<path d="M73.304 43V22.2H80.792C82.2427 22.2 83.5653 22.3493 84.76 22.648C85.9547 22.9467 86.904 23.4693 87.608 24.216C88.312 24.9627 88.664 26.0187 88.664 27.384C88.664 28.28 88.4293 29.176 87.96 30.072C87.4907 30.9467 86.8507 31.544 86.04 31.864V31.992C87.0427 32.2693 87.8853 32.8027 88.568 33.592C89.272 34.3813 89.624 35.4693 89.624 36.856C89.624 38.2853 89.2507 39.4587 88.504 40.376C87.7573 41.272 86.7653 41.9333 85.528 42.36C84.2907 42.7867 82.9253 43 81.432 43H73.304ZM78.808 30.328H80.664C81.56 30.328 82.2213 30.136 82.648 29.752C83.0747 29.368 83.288 28.856 83.288 28.216C83.288 27.576 83.0747 27.1173 82.648 26.84C82.2213 26.5627 81.56 26.424 80.664 26.424H78.808V30.328ZM78.808 38.776H81.048C83.1813 38.776 84.248 38.008 84.248 36.472C84.248 35.704 83.9813 35.16 83.448 34.84C82.936 34.52 82.136 34.36 81.048 34.36H78.808V38.776ZM97.3778 43.384C96.1404 43.384 95.1591 43.1387 94.4338 42.648C93.7298 42.136 93.2178 41.432 92.8978 40.536C92.5991 39.6187 92.4498 38.5627 92.4498 37.368V20.728H97.9538V37.56C97.9538 38.0933 98.0498 38.4667 98.2418 38.68C98.4551 38.872 98.6578 38.968 98.8498 38.968C98.9564 38.968 99.0418 38.968 99.1058 38.968C99.1911 38.9467 99.2978 38.9253 99.4258 38.904L100.066 42.936C99.7884 43.064 99.4258 43.1707 98.9778 43.256C98.5298 43.3413 97.9964 43.384 97.3778 43.384ZM109.405 43.384C107.848 43.384 106.44 43.0533 105.181 42.392C103.944 41.7307 102.962 40.7813 102.237 39.544C101.512 38.2853 101.149 36.7707 101.149 35C101.149 33.272 101.512 31.7893 102.237 30.552C102.984 29.2933 103.944 28.3227 105.117 27.64C106.29 26.9573 107.528 26.616 108.829 26.616C110.408 26.616 111.709 26.968 112.733 27.672C113.778 28.3547 114.546 29.2827 115.037 30.456C115.549 31.6293 115.805 32.9307 115.805 34.36C115.805 34.8293 115.773 35.288 115.709 35.736C115.666 36.1627 115.624 36.472 115.581 36.664H106.461C106.717 37.624 107.176 38.296 107.837 38.68C108.498 39.0427 109.277 39.224 110.173 39.224C111.197 39.224 112.285 38.904 113.437 38.264L115.229 41.528C114.376 42.1253 113.416 42.584 112.349 42.904C111.282 43.224 110.301 43.384 109.405 43.384ZM106.397 33.08H111.133C111.133 32.4613 110.973 31.928 110.653 31.48C110.354 31.0107 109.789 30.776 108.957 30.776C108.36 30.776 107.826 30.9573 107.357 31.32C106.888 31.6827 106.568 32.2693 106.397 33.08ZM118.825 43V27H123.305L123.689 28.92H123.817C124.457 28.3013 125.182 27.768 125.993 27.32C126.825 26.8507 127.785 26.616 128.873 26.616C130.643 26.616 131.913 27.2133 132.681 28.408C133.47 29.5813 133.865 31.16 133.865 33.144V43H128.361V33.848C128.361 32.824 128.233 32.1413 127.977 31.8C127.721 31.4587 127.315 31.288 126.761 31.288C126.249 31.288 125.822 31.3947 125.481 31.608C125.139 31.8213 124.755 32.12 124.329 32.504V43H118.825ZM143.274 43.384C141.29 43.384 139.7 42.6373 138.506 41.144C137.332 39.6293 136.746 37.5813 136.746 35C136.746 33.2507 137.055 31.7573 137.674 30.52C138.314 29.2613 139.135 28.3013 140.138 27.64C141.14 26.9573 142.186 26.616 143.274 26.616C144.148 26.616 144.863 26.7653 145.418 27.064C145.994 27.3413 146.516 27.7253 146.986 28.216L146.794 25.912V20.728H152.298V43H147.818L147.434 41.528H147.306C146.772 42.0613 146.143 42.5093 145.418 42.872C144.692 43.2133 143.978 43.384 143.274 43.384ZM144.746 38.904C145.172 38.904 145.546 38.8293 145.866 38.68C146.207 38.5093 146.516 38.2 146.794 37.752V31.864C146.474 31.5653 146.122 31.3627 145.738 31.256C145.354 31.1493 144.98 31.096 144.618 31.096C144.042 31.096 143.519 31.384 143.05 31.96C142.602 32.536 142.378 33.528 142.378 34.936C142.378 36.3653 142.591 37.3893 143.018 38.008C143.444 38.6053 144.02 38.904 144.746 38.904ZM156.012 43V27H160.492L160.876 29.752H161.004C161.602 28.664 162.306 27.8747 163.116 27.384C163.948 26.872 164.759 26.616 165.548 26.616C166.039 26.616 166.434 26.648 166.732 26.712C167.052 26.7547 167.319 26.8293 167.532 26.936L166.636 31.672C166.359 31.608 166.082 31.5547 165.804 31.512C165.527 31.448 165.207 31.416 164.844 31.416C164.268 31.416 163.66 31.6187 163.02 32.024C162.402 32.408 161.9 33.1013 161.516 34.104V43H156.012Z" fill="white"/>
</g>
<defs>
<filter id="filter0_d_658_30" x="-6" y="-7" width="77" height="77" filterUnits="userSpaceOnUse" color-interpolation-filters="sRGB">
<feFlood flood-opacity="0" result="BackgroundImageFix"/>
<feColorMatrix in="SourceAlpha" type="matrix" values="0 0 0 0 0 0 0 0 0 0 0 0 0 0 0 0 0 0 127 0" result="hardAlpha"/>
<feOffset/>
<feGaussianBlur stdDeviation="6.5"/>
<feComposite in2="hardAlpha" operator="out"/>
<feColorMatrix type="matrix" values="0 0 0 0 1 0 0 0 0 1 0 0 0 0 1 0 0 0 0.5 0"/>
<feBlend mode="normal" in2="BackgroundImageFix" result="effect1_dropShadow_658_30"/>
<feBlend mode="normal" in="SourceGraphic" in2="effect1_dropShadow_658_30" result="shape"/>
</filter>
<clipPath id="clip0_658_30">
<rect width="177" height="64" fill="white"/>
</clipPath>
<clipPath id="clip1_658_30">
<rect width="30" height="29" fill="white" transform="translate(18 17)"/>
</clipPath>
</defs>
</svg>
