<svg width="284" height="18" viewBox="0 0 284 18" fill="none" xmlns="http://www.w3.org/2000/svg">
<rect y="9" width="284" height="1" fill="#001F3B"/>
<rect x="133" y="4" width="19" height="10" fill="#F2F2F2"/>
<path d="M139.913 13.156C139.15 13.156 138.478 12.9783 137.898 12.623C137.326 12.2677 136.875 11.7607 136.546 11.102C136.225 10.4347 136.065 9.64167 136.065 8.723C136.065 7.79567 136.225 7.01133 136.546 6.37C136.875 5.72 137.326 5.226 137.898 4.888C138.478 4.54133 139.15 4.368 139.913 4.368C140.675 4.368 141.343 4.54133 141.915 4.888C142.495 5.226 142.946 5.72 143.267 6.37C143.596 7.02 143.761 7.80433 143.761 8.723C143.761 9.64167 143.596 10.4347 143.267 11.102C142.946 11.7607 142.495 12.2677 141.915 12.623C141.343 12.9783 140.675 13.156 139.913 13.156ZM139.913 11.505C140.493 11.505 140.953 11.2537 141.291 10.751C141.629 10.2483 141.798 9.57233 141.798 8.723C141.798 7.87367 141.629 7.21067 141.291 6.734C140.953 6.25733 140.493 6.019 139.913 6.019C139.332 6.019 138.873 6.25733 138.535 6.734C138.197 7.21067 138.028 7.87367 138.028 8.723C138.028 9.57233 138.197 10.2483 138.535 10.751C138.873 11.2537 139.332 11.505 139.913 11.505ZM145.199 13V6.552H146.759L146.889 7.683H146.941C147.175 7.24967 147.456 6.929 147.786 6.721C148.115 6.50433 148.444 6.396 148.774 6.396C148.956 6.396 149.107 6.409 149.229 6.435C149.35 6.45233 149.454 6.48267 149.541 6.526L149.229 8.177C149.116 8.14233 149.003 8.11633 148.891 8.099C148.787 8.08167 148.665 8.073 148.527 8.073C148.284 8.073 148.028 8.164 147.76 8.346C147.5 8.51933 147.283 8.82267 147.11 9.256V13H145.199Z" fill="#001F3B"/>
</svg>
