<?xml version="1.0" encoding="utf-8"?>
<!-- Generator: Adobe Illustrator 26.0.3, SVG Export Plug-In . SVG Version: 6.00 Build 0)  -->
<svg version="1.1" id="Layer_1" xmlns="http://www.w3.org/2000/svg" xmlns:xlink="http://www.w3.org/1999/xlink" x="0px" y="0px"
	 viewBox="0 0 100 100" style="enable-background:new 0 0 100 100;" xml:space="preserve">
<style type="text/css">
	.st0{fill:none;stroke:#FFFFFF;stroke-width:3;stroke-linecap:round;stroke-miterlimit:10;}
	.st1{fill:none;stroke:#FFFFFF;stroke-width:3;stroke-miterlimit:10;}
</style>
<path class="st0" d="M66.8,41.5c-1.2-1.3-5.9-6.4-13.7-7.3C42.8,33,35.9,39.9,35,40.7c-1.3,0.9-2,2.5-1.9,4c0.2,1.8,1.6,3.3,3.5,3.7
	c4.8,0.9,10.4,1.7,16.7,1.9c7,0.3,13.1-0.2,18.3-0.9c2.7-0.4,4.8-1.3,6.1-1.9c1.7-0.9,3-1.6,3.1-2.8c0.1-1.2-0.8-2.3-1.6-2.8
	c-1.6-1-3.8-0.6-4.8,0.6c-0.9,1-0.6,2.6-0.5,3.3c0.8,5,0.6,10.9,0,13.6c-1.1,5-5.4,8-7.1,9.2c-4.3,3-8.6,3.3-13.9,3.6
	c-4.6,0.3-8.1,0.5-12.3-1.1c-1.6-0.6-9-3.6-11-10c-1.9-6.2,2.4-11.6-0.4-13.7c-1-0.7-2.7-0.9-4.1-0.5c-0.4,0.1-2.3,0.7-2.8,2.4
	c-0.4,1.5,0.6,2.8,0.9,3.3c1.5,2.1,4,2.6,5,2.8c14.6,3.1,24,3,24,3c4.3,0,9.9-0.2,16.5-0.7"/>
<path class="st1" d="M47.7,26.3"/>
<path class="st0" d="M46,33.2c-0.5-3.7,2.4-5.7,5-5.6c2.3,0.1,5,2.4,4.5,5.6"/>
</svg>
