<svg width="40" height="40" viewBox="0 0 40 40" fill="none" xmlns="http://www.w3.org/2000/svg">
<g clip-path="url(#clip0_437_132)">
<path d="M7 34.699V8.94897C7 6.73984 8.79086 4.94897 11 4.94897H30.0877C32.2968 4.94897 34.0877 6.73984 34.0877 8.94898V34.699C34.0877 36.9081 32.2968 38.699 30.0877 38.699H11C8.79086 38.699 7 36.9081 7 34.699Z" fill="#FF7A00" stroke="#FF7A00" stroke-width="1.5"/>
<path d="M15.7422 18.9451H22.1091" stroke="#AE4900" stroke-width="1.5" stroke-linecap="round"/>
<path d="M15.7422 24.4365H22.1091" stroke="#AE4900" stroke-width="1.5" stroke-linecap="round"/>
<path d="M15.7422 29.9282H22.1091" stroke="#AE4900" stroke-width="1.5" stroke-linecap="round"/>
<path d="M15.7422 13.4534H22.1091" stroke="#AE4900" stroke-width="1.5" stroke-linecap="round"/>
<ellipse cx="11.7418" cy="13.4534" rx="0.753482" ry="0.762712" fill="#AE4900"/>
<ellipse cx="11.7418" cy="18.9451" rx="0.753482" ry="0.762712" fill="#AE4900"/>
<ellipse cx="11.7418" cy="24.4363" rx="0.753482" ry="0.762712" fill="#AE4900"/>
<ellipse cx="11.7418" cy="29.928" rx="0.753482" ry="0.762712" fill="#AE4900"/>
<path d="M20.0441 19.6314C19.3811 17.1907 20.873 16.5806 21.7018 16.5806C23.2537 16.7481 23.8869 17.8009 23.4162 19.6314C23.2593 20.6168 23.1995 22.4222 22.5451 23.2449C22.1384 23.7562 21.2269 23.792 20.8365 23.2681C20.4561 22.7578 20.6121 21.7221 20.0441 19.6314Z" fill="#FFB422" stroke="#FFB422" stroke-width="1.5"/>
<path d="M38.3831 29.3179H20.721C20.5004 29.3179 20.3301 29.5119 20.3588 29.7306C21.7639 40.4483 37.2651 40.4415 38.7452 29.7339C38.7755 29.5142 38.6049 29.3179 38.3831 29.3179Z" fill="#F1A500" stroke="#F0A500" stroke-width="1.5"/>
<path d="M33.3296 24.7794L37.6787 20.5323C37.733 20.4792 37.8211 20.4867 37.8659 20.5481C40.0613 23.5559 36.2462 27.2783 33.3393 24.9702C33.2796 24.9228 33.275 24.8328 33.3296 24.7794Z" fill="#D720B9" stroke="#D720B9" stroke-width="1.5"/>
<path d="M28.7896 26.3052C28.7896 27.5846 27.7674 28.6061 26.5256 28.6061C25.2839 28.6061 24.2617 27.5846 24.2617 26.3052C24.2617 25.0259 25.2839 24.0044 26.5256 24.0044C27.7674 24.0044 28.7896 25.0259 28.7896 26.3052Z" fill="#EDEF7C" stroke="#EDEF7C" stroke-width="1.5"/>
<mask id="path-14-inside-1_437_132" fill="white">
<rect width="5.89667" height="5.36984" rx="1" transform="matrix(0.709465 -0.704741 0.696052 0.717991 26.8242 18.2571)"/>
</mask>
<rect width="5.89667" height="5.36984" rx="1" transform="matrix(0.709465 -0.704741 0.696052 0.717991 26.8242 18.2571)" fill="#5CF062" stroke="#5CF062" stroke-width="3" mask="url(#path-14-inside-1_437_132)"/>
<ellipse cx="21.6684" cy="15.627" rx="0.941853" ry="0.991526" fill="#FFB422"/>
<path d="M12.8343 7.51695C12.4201 7.51695 12.0843 7.85274 12.0843 8.26695C12.0843 8.68117 12.4201 9.01695 12.8343 9.01695V7.51695ZM11.2097 2.42329L10.5747 2.02412L11.2097 2.42329ZM11.0071 2.74556L11.642 3.14473L11.0071 2.74556ZM11.7383 4.33899V2.8107H10.2383V4.33899H11.7383ZM14.1187 2.79693V7.03646H15.6187V2.79693H14.1187ZM11.642 3.14473L11.8446 2.82246L10.5747 2.02412L10.3721 2.34639L11.642 3.14473ZM13.5288 7.51695H12.8343V9.01695H13.5288V7.51695ZM11.8446 2.82246C12.4132 1.91794 13.7681 2.0412 14.1642 3.03349L15.5573 2.47742C14.7065 0.34591 11.7962 0.0811424 10.5747 2.02412L11.8446 2.82246ZM14.1187 7.03646C14.1187 7.09121 14.1048 7.14506 14.0783 7.19297L15.3908 7.9191C15.5403 7.64892 15.6187 7.34522 15.6187 7.03646H14.1187ZM15.6187 2.79693C15.6187 2.68749 15.5979 2.57906 15.5573 2.47742L14.1642 3.03349C14.1341 2.95824 14.1187 2.87795 14.1187 2.79693H15.6187ZM14.0783 7.19297C13.9677 7.39288 13.7573 7.51695 13.5288 7.51695V9.01695C14.303 9.01695 15.0161 8.59651 15.3908 7.9191L14.0783 7.19297ZM11.7383 2.8107C11.7383 2.92889 11.7049 3.04467 11.642 3.14473L10.3721 2.34639C10.2847 2.48547 10.2383 2.64642 10.2383 2.8107H11.7383Z" fill="#AE4900"/>
<path d="M20.4476 7.51695C20.0334 7.51695 19.6976 7.85274 19.6976 8.26695C19.6976 8.68117 20.0334 9.01695 20.4476 9.01695V7.51695ZM18.8229 2.42329L18.188 2.02412L18.8229 2.42329ZM18.6203 2.74556L19.2553 3.14473L18.6203 2.74556ZM19.3516 4.33899V2.8107H17.8516V4.33899H19.3516ZM21.732 2.79693V7.03646H23.232V2.79693H21.732ZM19.2553 3.14473L19.4579 2.82246L18.188 2.02412L17.9854 2.34639L19.2553 3.14473ZM21.1421 7.51695H20.4476V9.01695H21.1421V7.51695ZM19.4579 2.82246C20.0265 1.91794 21.3814 2.0412 21.7775 3.03349L23.1706 2.47742C22.3198 0.34591 19.4095 0.0811424 18.188 2.02412L19.4579 2.82246ZM21.732 7.03646C21.732 7.09121 21.7181 7.14506 21.6916 7.19297L23.0041 7.9191C23.1536 7.64892 23.232 7.34522 23.232 7.03646H21.732ZM23.232 2.79693C23.232 2.68749 23.2112 2.57906 23.1706 2.47742L21.7775 3.03349C21.7474 2.95824 21.732 2.87795 21.732 2.79693H23.232ZM21.6916 7.19297C21.581 7.39288 21.3706 7.51695 21.1421 7.51695V9.01695C21.9163 9.01695 22.6294 8.59651 23.0041 7.9191L21.6916 7.19297ZM19.3516 2.8107C19.3516 2.92889 19.3182 3.04467 19.2553 3.14473L17.9854 2.34639C17.898 2.48547 17.8516 2.64642 17.8516 2.8107H19.3516Z" fill="#AE4900"/>
<path d="M28.0609 7.51695C27.6467 7.51695 27.3109 7.85274 27.3109 8.26695C27.3109 8.68117 27.6467 9.01695 28.0609 9.01695V7.51695ZM26.4362 2.42329L25.8013 2.02412L26.4362 2.42329ZM26.2336 2.74556L26.8686 3.14473L26.2336 2.74556ZM26.9648 4.33899V2.8107H25.4648V4.33899H26.9648ZM29.3453 2.79693V7.03646H30.8453V2.79693H29.3453ZM26.8686 3.14473L27.0712 2.82246L25.8013 2.02412L25.5987 2.34639L26.8686 3.14473ZM28.7554 7.51695H28.0609V9.01695H28.7554V7.51695ZM27.0712 2.82246C27.6398 1.91794 28.9947 2.0412 29.3907 3.03349L30.7839 2.47742C29.9331 0.34591 27.0227 0.0811424 25.8013 2.02412L27.0712 2.82246ZM29.3453 7.03646C29.3453 7.09121 29.3314 7.14506 29.3049 7.19297L30.6174 7.9191C30.7669 7.64892 30.8453 7.34522 30.8453 7.03646H29.3453ZM30.8453 2.79693C30.8453 2.68749 30.8244 2.57906 30.7839 2.47742L29.3907 3.03349C29.3607 2.95824 29.3453 2.87795 29.3453 2.79693H30.8453ZM29.3049 7.19297C29.1943 7.39288 28.9838 7.51695 28.7554 7.51695V9.01695C29.5295 9.01695 30.2426 8.59651 30.6174 7.9191L29.3049 7.19297ZM26.9648 2.8107C26.9648 2.92889 26.9315 3.04467 26.8686 3.14473L25.5987 2.34639C25.5112 2.48547 25.4648 2.64642 25.4648 2.8107H26.9648Z" fill="#AE4900"/>
</g>
<defs>
<clipPath id="clip0_437_132">
<rect width="40" height="40" fill="white"/>
</clipPath>
</defs>
</svg>
