<svg width="40" height="40" viewBox="0 0 40 40" fill="none" xmlns="http://www.w3.org/2000/svg">
<g clip-path="url(#clip0_436_67)">
<path d="M7 35.5395V9.07495C7 6.86581 8.79086 5.07495 11 5.07495H30C32.2091 5.07495 34 6.86581 34 9.07495V35.5395C34 37.7486 32.2091 39.5395 30 39.5395H11C8.79086 39.5395 7 37.7486 7 35.5395Z" stroke="#C4C4C4" stroke-width="2"/>
<path d="M15.7305 20.1245H28.8255" stroke="#C4C4C4" stroke-width="2" stroke-linecap="round"/>
<path d="M15.7305 26.1602H28.8255" stroke="#C4C4C4" stroke-width="2" stroke-linecap="round"/>
<path d="M15.7305 32.1956H28.8255" stroke="#C4C4C4" stroke-width="2" stroke-linecap="round"/>
<path d="M15.7305 14.0891H28.8255" stroke="#C4C4C4" stroke-width="2" stroke-linecap="round"/>
<ellipse cx="12.1143" cy="13.3589" rx="0.751043" ry="0.77886" fill="#C4C4C4"/>
<ellipse cx="11.7315" cy="19.3672" rx="0.751043" ry="0.77886" fill="#C4C4C4"/>
<ellipse cx="11.7315" cy="24.9749" rx="0.751043" ry="0.77886" fill="#C4C4C4"/>
<ellipse cx="11.7315" cy="30.5826" rx="0.751043" ry="0.77886" fill="#C4C4C4"/>
<path d="M12.8205 7.46314C12.2682 7.46314 11.8205 7.91086 11.8205 8.46314C11.8205 9.01543 12.2682 9.46314 12.8205 9.46314V7.46314ZM11.1931 2.50879L10.3408 1.98577L11.1931 2.50879ZM11.9805 4.45202V2.8896H9.98047V4.45202H11.9805ZM13.8483 2.87625V7.215H15.8483V2.87625H13.8483ZM11.8507 3.34919L12.0455 3.0318L10.3408 1.98577L10.1461 2.30315L11.8507 3.34919ZM13.4907 7.46314H12.8205V9.46314H13.4907V7.46314ZM12.0455 3.0318C12.497 2.29597 13.5956 2.39449 13.909 3.19891L15.7725 2.47285C14.859 0.128141 11.6569 -0.159002 10.3408 1.98577L12.0455 3.0318ZM13.8483 7.215C13.8483 7.22932 13.8448 7.24341 13.838 7.25601L15.5978 8.20631C15.7622 7.90177 15.8483 7.56111 15.8483 7.215H13.8483ZM15.8483 2.87625C15.8483 2.73825 15.8226 2.60144 15.7725 2.47285L13.909 3.19891C13.8689 3.09606 13.8483 2.98664 13.8483 2.87625H15.8483ZM13.838 7.25601C13.7691 7.38361 13.6357 7.46314 13.4907 7.46314V9.46314C14.3706 9.46314 15.1797 8.98056 15.5978 8.20631L13.838 7.25601ZM11.9805 2.8896C11.9805 3.05183 11.9356 3.21091 11.8507 3.34919L10.1461 2.30315C10.0378 2.4796 9.98047 2.68258 9.98047 2.8896H11.9805Z" fill="#C4C4C4"/>
<path d="M20.4065 7.46314C19.8542 7.46314 19.4065 7.91086 19.4065 8.46314C19.4065 9.01543 19.8542 9.46314 20.4065 9.46314V7.46314ZM18.7791 2.50879L17.9267 1.98577L18.7791 2.50879ZM19.5664 4.45202V2.8896H17.5664V4.45202H19.5664ZM21.4343 2.87625V7.215H23.4343V2.87625H21.4343ZM19.4366 3.34919L19.6314 3.0318L17.9267 1.98577L17.732 2.30315L19.4366 3.34919ZM21.0767 7.46314H20.4065V9.46314H21.0767V7.46314ZM19.6314 3.0318C20.0829 2.29597 21.1815 2.39449 21.4949 3.19891L23.3585 2.47285C22.4449 0.128141 19.2429 -0.159002 17.9267 1.98577L19.6314 3.0318ZM21.4343 7.215C21.4343 7.22932 21.4307 7.24341 21.4239 7.25601L23.1837 8.20631C23.3482 7.90177 23.4343 7.56111 23.4343 7.215H21.4343ZM23.4343 2.87625C23.4343 2.73825 23.4086 2.60144 23.3585 2.47285L21.4949 3.19891C21.4548 3.09606 21.4343 2.98664 21.4343 2.87625H23.4343ZM21.4239 7.25601C21.355 7.38361 21.2217 7.46314 21.0767 7.46314V9.46314C21.9566 9.46314 22.7656 8.98056 23.1837 8.20631L21.4239 7.25601ZM19.5664 2.8896C19.5664 3.05183 19.5215 3.21091 19.4366 3.34919L17.732 2.30315C17.6237 2.4796 17.5664 2.68258 17.5664 2.8896H19.5664Z" fill="#C4C4C4"/>
<path d="M27.9963 7.46314C27.444 7.46314 26.9963 7.91086 26.9963 8.46314C26.9963 9.01543 27.444 9.46314 27.9963 9.46314V7.46314ZM26.3689 2.50879L25.5166 1.98577L26.3689 2.50879ZM27.1562 4.45202V2.8896H25.1562V4.45202H27.1562ZM29.0241 2.87625V7.215H31.0241V2.87625H29.0241ZM27.0265 3.34919L27.2212 3.0318L25.5166 1.98577L25.3218 2.30315L27.0265 3.34919ZM28.6665 7.46314H27.9963V9.46314H28.6665V7.46314ZM27.2212 3.0318C27.6728 2.29597 28.7713 2.39449 29.0848 3.19891L30.9483 2.47285C30.0348 0.128141 26.8327 -0.159002 25.5166 1.98577L27.2212 3.0318ZM29.0241 7.215C29.0241 7.22932 29.0206 7.24341 29.0138 7.25601L30.7736 8.20631C30.938 7.90177 31.0241 7.56111 31.0241 7.215H29.0241ZM31.0241 2.87625C31.0241 2.73825 30.9984 2.60144 30.9483 2.47285L29.0848 3.19891C29.0447 3.09606 29.0241 2.98664 29.0241 2.87625H31.0241ZM29.0138 7.25601C28.9449 7.38361 28.8115 7.46314 28.6665 7.46314V9.46314C29.5464 9.46314 30.3555 8.98056 30.7736 8.20631L29.0138 7.25601ZM27.1562 2.8896C27.1562 3.05183 27.1113 3.21091 27.0265 3.34919L25.3218 2.30315C25.2136 2.4796 25.1562 2.68258 25.1562 2.8896H27.1562Z" fill="#C4C4C4"/>
</g>
<defs>
<clipPath id="clip0_436_67">
<rect width="40" height="40" fill="white"/>
</clipPath>
</defs>
</svg>
