<svg width="124" height="63" viewBox="0 0 124 63" fill="none" xmlns="http://www.w3.org/2000/svg">
<g clip-path="url(#clip0_557_31)">
<path d="M7.488 13.832C6.25067 14.7067 5.632 16.008 5.632 17.736C5.632 18.824 6.016 19.848 6.784 20.808C7.57333 21.768 8.896 22.248 10.752 22.248C12.608 22.248 14.368 21.6187 16.032 20.36C17.696 19.1013 18.9547 17.7253 19.808 16.232L20.896 18.184C18.144 22.856 14.3147 25.192 9.408 25.192C6.976 25.192 4.91733 24.5413 3.232 23.24C1.54667 21.9173 0.704 20.3707 0.704 18.6C0.704 15.5067 2.08 13.2667 4.832 11.88C3.91467 10.7493 3.456 9.42667 3.456 7.912C3.456 5.928 4.30933 4.22133 6.016 2.792C7.744 1.36267 9.73867 0.647999 12 0.647999C14.2613 0.647999 16 1.224 17.216 2.376C18.4533 3.528 19.072 5.04267 19.072 6.92H16.032C16.0533 5.768 15.744 4.904 15.104 4.328C14.4853 3.73067 13.6107 3.432 12.48 3.432C11.3707 3.432 10.368 3.83733 9.472 4.648C8.46933 5.52267 7.968 6.54667 7.968 7.72C7.968 8.89333 8.288 9.90667 8.928 10.76C11.0613 10.504 12.6827 10.6427 13.792 11.176C14.4747 11.496 14.816 12.008 14.816 12.712C14.816 13.3947 14.4213 13.8747 13.632 14.152C12.864 14.4293 11.936 14.568 10.848 14.568C9.76 14.568 8.64 14.3227 7.488 13.832ZM29.7423 25.16C27.7796 25.16 26.4783 24.4773 25.8383 23.112C24.7289 24.4987 23.2996 25.192 21.5503 25.192C19.8223 25.192 18.3609 24.6053 17.1662 23.432C15.9929 22.2587 15.4062 20.712 15.4062 18.792C15.4062 15.9973 16.2276 13.768 17.8703 12.104C19.5129 10.44 21.5929 9.608 24.1103 9.608C24.1743 9.608 24.2383 9.608 24.3023 9.608C25.3689 9.608 26.3503 9.78933 27.2463 10.152C27.8223 9.78933 28.5156 9.608 29.3263 9.608C30.1583 9.608 30.7556 9.71467 31.1183 9.928C30.9263 11.5067 30.7236 13.064 30.5103 14.6C30.2969 16.1147 30.1476 17.192 30.0623 17.832C29.8703 19.2827 29.7743 20.328 29.7743 20.968C29.7743 21.8213 30.1156 22.248 30.7983 22.248C31.3316 22.248 31.8969 21.896 32.4943 21.192C33.0916 20.4667 33.6143 19.336 34.0623 17.8C34.6809 18.3547 35.1076 18.9733 35.3423 19.656C34.7236 21.6827 33.8916 23.112 32.8463 23.944C31.8009 24.7547 30.7663 25.16 29.7423 25.16ZM24.5903 12.104C23.2249 12.104 22.1369 12.6267 21.3263 13.672C20.5369 14.696 20.0676 16.232 19.9183 18.28C19.8969 18.472 19.8863 18.6533 19.8863 18.824C19.8863 19.8693 20.1316 20.7013 20.6223 21.32C21.1343 21.9387 21.7849 22.248 22.5743 22.248C23.9183 22.248 24.9316 21.2987 25.6143 19.4L26.3823 12.488C25.7636 12.232 25.1663 12.104 24.5903 12.104ZM39.3055 2.728C39.3055 2.856 39.0175 5.14933 38.4415 9.608H43.1455V12.072H38.1215L38.0255 12.872C40.5215 14.9627 41.7695 17.2453 41.7695 19.72C41.7695 21.6613 41.2682 23.0587 40.2655 23.912C39.2842 24.7653 38.1002 25.192 36.7135 25.192C35.3268 25.192 34.3135 24.8293 33.6735 24.104C33.0335 23.3573 32.7135 22.4613 32.7135 21.416C32.7135 21.1813 32.7348 20.9253 32.7775 20.648L33.7695 12.136L33.6415 12.072H31.0495C31.0282 11.8587 31.0175 11.5173 31.0175 11.048C31.0175 10.5573 31.1135 10.0773 31.3055 9.608H34.0575L35.0815 0.903999C35.5295 0.733332 36.1268 0.647999 36.8735 0.647999C38.4948 0.647999 39.3055 1.34133 39.3055 2.728ZM39.6255 19.688C39.6255 18.216 38.9855 16.7653 37.7055 15.336C37.3215 18.5147 37.1295 20.3493 37.1295 20.84C37.1295 21.8 37.4388 22.28 38.0575 22.28C38.5055 22.28 38.8788 22.0773 39.1775 21.672C39.4762 21.2453 39.6255 20.584 39.6255 19.688ZM44.9935 21.16C45.5055 20.648 46.1242 20.392 46.8495 20.392C47.5748 20.392 48.1935 20.648 48.7055 21.16C49.2175 21.672 49.4735 22.2907 49.4735 23.016C49.4735 23.7413 49.2175 24.36 48.7055 24.872C48.1935 25.3627 47.5748 25.608 46.8495 25.608C46.1242 25.608 45.5055 25.3627 44.9935 24.872C44.5028 24.36 44.2575 23.7413 44.2575 23.016C44.2575 22.2907 44.5028 21.672 44.9935 21.16ZM61.8025 25L63.0185 14.376C63.0185 13.7787 62.8692 13.288 62.5705 12.904C62.2932 12.4987 61.7918 12.296 61.0665 12.296C60.3412 12.296 59.7438 12.648 59.2745 13.352C58.8052 14.0347 58.5065 14.76 58.3785 15.528C57.6318 20.84 57.2158 23.9973 57.1305 25H52.8425L54.6025 9.96C55.4985 9.72533 56.1812 9.608 56.6505 9.608C57.9945 9.608 58.7305 10.056 58.8585 10.952C59.9038 10.056 61.0452 9.608 62.2825 9.608C64.7572 9.608 66.3358 10.344 67.0185 11.816C68.0638 10.3227 69.5572 9.576 71.4985 9.576C72.9278 9.576 74.0585 9.94933 74.8905 10.696C75.7225 11.4213 76.1385 12.3387 76.1385 13.448C76.1385 13.768 76.0745 14.3333 75.9465 15.144C75.4558 18.344 75.2105 20.2213 75.2105 20.776C75.2105 21.7787 75.5412 22.28 76.2025 22.28C76.7572 22.28 77.3438 21.9173 77.9625 21.192C78.6025 20.4453 79.1145 19.304 79.4985 17.768C80.2238 18.536 80.6612 19.144 80.8105 19.592C79.7012 23.304 77.7385 25.16 74.9225 25.16C73.5998 25.16 72.6185 24.7547 71.9785 23.944C71.3385 23.1333 71.0185 22.28 71.0185 21.384L71.7865 14.312C71.7865 13.736 71.6372 13.256 71.3385 12.872C71.0398 12.488 70.5598 12.296 69.8985 12.296C69.2585 12.296 68.6932 12.5413 68.2025 13.032C67.7118 13.5227 67.3705 14.152 67.1785 14.92C66.5385 20.3387 66.1225 23.6987 65.9305 25H61.8025ZM83.4892 17.832C84.8119 17.5547 85.7932 17.0213 86.4332 16.232C87.0946 15.4427 87.4252 14.6853 87.4252 13.96C87.4252 13.2133 87.2226 12.712 86.8172 12.456C86.4332 12.1787 86.0066 12.04 85.5372 12.04C84.5346 12.04 83.6492 12.6053 82.8812 13.736C82.1346 14.8453 81.7612 16.1787 81.7612 17.736C81.7612 19.272 82.1239 20.424 82.8492 21.192C83.5959 21.9387 84.5132 22.312 85.6012 22.312C87.2012 22.312 88.7372 21.7573 90.2092 20.648C91.6812 19.5387 92.8759 18.088 93.7932 16.296C94.2626 16.744 94.6892 17.2987 95.0732 17.96C94.3692 19.56 93.1212 21.128 91.3292 22.664C90.4332 23.4107 89.3666 24.0187 88.1292 24.488C86.9132 24.9573 85.6546 25.192 84.3532 25.192C82.2199 25.192 80.5346 24.5413 79.2972 23.24C77.9746 21.832 77.3132 20.0293 77.3132 17.832C77.3132 15.6347 78.1346 13.7147 79.7772 12.072C81.4412 10.4293 83.4252 9.608 85.7292 9.608C87.3719 9.608 88.7052 9.97067 89.7292 10.696C90.7532 11.4 91.2759 12.36 91.2972 13.576C91.2972 15.2187 90.6359 16.552 89.3132 17.576C88.0119 18.6 86.2199 19.3147 83.9372 19.72L83.4892 17.832ZM97.4355 17.832C98.7582 17.5547 99.7395 17.0213 100.379 16.232C101.041 15.4427 101.371 14.6853 101.371 13.96C101.371 13.2133 101.169 12.712 100.763 12.456C100.379 12.1787 99.9528 12.04 99.4835 12.04C98.4808 12.04 97.5955 12.6053 96.8275 13.736C96.0808 14.8453 95.7075 16.1787 95.7075 17.736C95.7075 19.272 96.0702 20.424 96.7955 21.192C97.5422 21.9387 98.4595 22.312 99.5475 22.312C101.147 22.312 102.683 21.7573 104.155 20.648C105.627 19.5387 106.822 18.088 107.739 16.296C108.209 16.744 108.635 17.2987 109.019 17.96C108.315 19.56 107.067 21.128 105.275 22.664C104.379 23.4107 103.313 24.0187 102.075 24.488C100.859 24.9573 99.6008 25.192 98.2995 25.192C96.1662 25.192 94.4808 24.5413 93.2435 23.24C91.9208 21.832 91.2595 20.0293 91.2595 17.832C91.2595 15.6347 92.0808 13.7147 93.7235 12.072C95.3875 10.4293 97.3715 9.608 99.6755 9.608C101.318 9.608 102.651 9.97067 103.675 10.696C104.699 11.4 105.222 12.36 105.243 13.576C105.243 15.2187 104.582 16.552 103.259 17.576C101.958 18.6 100.166 19.3147 97.8835 19.72L97.4355 17.832ZM112.662 2.728C112.662 2.856 112.374 5.14933 111.798 9.608H116.502V12.072H111.478L111.382 12.872C113.878 14.9627 115.126 17.2453 115.126 19.72C115.126 21.6613 114.624 23.0587 113.622 23.912C112.64 24.7653 111.456 25.192 110.07 25.192C108.683 25.192 107.67 24.8293 107.03 24.104C106.39 23.3573 106.07 22.4613 106.07 21.416C106.07 21.1813 106.091 20.9253 106.134 20.648L107.126 12.136L106.998 12.072H104.406C104.384 11.8587 104.374 11.5173 104.374 11.048C104.374 10.5573 104.47 10.0773 104.662 9.608H107.414L108.438 0.903999C108.886 0.733332 109.483 0.647999 110.23 0.647999C111.851 0.647999 112.662 1.34133 112.662 2.728ZM112.982 19.688C112.982 18.216 112.342 16.7653 111.062 15.336C110.678 18.5147 110.486 20.3493 110.486 20.84C110.486 21.8 110.795 22.28 111.414 22.28C111.862 22.28 112.235 22.0773 112.534 21.672C112.832 21.2453 112.982 20.584 112.982 19.688ZM118.35 21.16C118.862 20.648 119.48 20.392 120.206 20.392C120.931 20.392 121.55 20.648 122.062 21.16C122.574 21.672 122.83 22.2907 122.83 23.016C122.83 23.7413 122.574 24.36 122.062 24.872C121.55 25.3627 120.931 25.608 120.206 25.608C119.48 25.608 118.862 25.3627 118.35 24.872C117.859 24.36 117.614 23.7413 117.614 23.016C117.614 22.2907 117.859 21.672 118.35 21.16ZM23.904 46.12L24.928 47.688C23.8827 51.3573 21.7173 53.192 18.432 53.192C17.6853 53.192 17.0347 53.0533 16.48 52.776C15.9467 52.4987 15.5413 52.168 15.264 51.784C14.9867 51.4 14.7627 50.9093 14.592 50.312C14.3573 49.416 14.2293 48.232 14.208 46.76C14.208 45.288 14.0267 44.2747 13.664 43.72C13.3227 43.1653 12.6613 42.856 11.68 42.792L12.032 40.072C12.0747 40.072 12.1067 40.072 12.128 40.072C13.3653 40.072 14.3893 39.72 15.2 39.016C16.0747 38.2267 16.512 37.2133 16.512 35.976C16.512 34.7387 15.9253 33.6933 14.752 32.84C13.6 31.9867 12.1067 31.56 10.272 31.56C7.904 31.56 6.08 32.1467 4.8 33.32C4.11733 33.96 3.776 34.728 3.776 35.624C3.776 36.7547 4.64 37.4373 6.368 37.672L5.92 40.072C4.61867 40.008 3.46667 39.5707 2.464 38.76C1.46133 37.9493 0.96 36.904 0.96 35.624C0.96 33.384 1.89867 31.6667 3.776 30.472C5.65333 29.256 8.032 28.648 10.912 28.648C12.768 28.648 14.4 28.872 15.808 29.32C18.2187 30.1307 19.8187 31.5387 20.608 33.544C20.864 34.248 20.992 34.824 20.992 35.272C20.992 35.6987 20.992 35.9867 20.992 36.136C20.9067 37.3093 20.4693 38.4613 19.68 39.592C18.912 40.7227 17.7493 41.5013 16.192 41.928C17.1307 42.12 17.7707 42.5253 18.112 43.144C18.4533 43.7627 18.6347 44.7013 18.656 45.96C18.6773 48.1147 18.7733 49.4267 18.944 49.896C19.136 50.344 19.52 50.568 20.096 50.568C21.6533 50.568 22.9227 49.0853 23.904 46.12ZM4.288 53.192C3.15733 53.192 2.25067 52.8507 1.568 52.168C0.885333 51.4853 0.544 50.6427 0.544 49.64C0.544 47.0373 2.45333 44.8613 6.272 43.112C7.04 37.1387 7.43467 34.0773 7.456 33.928C8.352 33.352 9.36533 33.064 10.496 33.064C10.9653 33.064 11.4987 33.128 12.096 33.256L10.08 46.92C9.44 51.1013 7.50933 53.192 4.288 53.192ZM2.912 49.256C2.912 49.9387 3.27467 50.28 4 50.28C4.85333 50.28 5.39733 49.512 5.632 47.976L5.92 45.8C3.91467 46.9733 2.912 48.1253 2.912 49.256ZM27.4543 45.832C28.7769 45.5547 29.7583 45.0213 30.3983 44.232C31.0596 43.4427 31.3903 42.6853 31.3903 41.96C31.3903 41.2133 31.1876 40.712 30.7823 40.456C30.3983 40.1787 29.9716 40.04 29.5023 40.04C28.4996 40.04 27.6143 40.6053 26.8463 41.736C26.0996 42.8453 25.7263 44.1787 25.7263 45.736C25.7263 47.272 26.0889 48.424 26.8143 49.192C27.5609 49.9387 28.4783 50.312 29.5663 50.312C31.1663 50.312 32.7023 49.7573 34.1743 48.648C35.6463 47.5387 36.8409 46.088 37.7583 44.296C38.2276 44.744 38.6543 45.2987 39.0383 45.96C38.3343 47.56 37.0863 49.128 35.2943 50.664C34.3983 51.4107 33.3316 52.0187 32.0943 52.488C30.8783 52.9573 29.6196 53.192 28.3183 53.192C26.1849 53.192 24.4996 52.5413 23.2623 51.24C21.9396 49.832 21.2783 48.0293 21.2783 45.832C21.2783 43.6347 22.0996 41.7147 23.7423 40.072C25.4063 38.4293 27.3903 37.608 29.6943 37.608C31.3369 37.608 32.6703 37.9707 33.6943 38.696C34.7183 39.4 35.2409 40.36 35.2623 41.576C35.2623 43.2187 34.6009 44.552 33.2783 45.576C31.9769 46.6 30.1849 47.3147 27.9023 47.72L27.4543 45.832ZM38.9685 37.576C40.3552 37.576 41.1658 37.928 41.4005 38.632C42.4032 37.928 43.6725 37.576 45.2085 37.576C46.7445 37.576 48.0672 38.2053 49.1765 39.464C50.2858 40.7227 50.8405 42.1947 50.8405 43.88C50.8405 44.1147 50.8298 44.36 50.8085 44.616C50.5738 47.4107 49.6352 49.544 47.9925 51.016C46.3498 52.4667 44.2058 53.192 41.5605 53.192C40.9632 53.192 40.3125 53.1173 39.6085 52.968L38.5845 61.768H34.3925C35.7578 50.0133 36.6752 42.0347 37.1445 37.832C37.5925 37.6613 38.2005 37.576 38.9685 37.576ZM46.3285 44.104C46.3285 43.1653 46.1152 42.3333 45.6885 41.608C45.2618 40.8827 44.6005 40.52 43.7045 40.52C42.4885 40.52 41.5605 41.3093 40.9205 42.888C40.4938 46.0453 40.2485 47.88 40.1845 48.392C40.1632 49.032 40.3658 49.512 40.7925 49.832C41.2192 50.152 41.7418 50.312 42.3605 50.312C43.4485 50.312 44.3445 49.8213 45.0485 48.84C45.9018 47.624 46.3285 46.0453 46.3285 44.104ZM57.378 45.832C58.7007 45.5547 59.682 45.0213 60.322 44.232C60.9833 43.4427 61.314 42.6853 61.314 41.96C61.314 41.2133 61.1113 40.712 60.706 40.456C60.322 40.1787 59.8953 40.04 59.426 40.04C58.4233 40.04 57.538 40.6053 56.77 41.736C56.0233 42.8453 55.65 44.1787 55.65 45.736C55.65 47.272 56.0127 48.424 56.738 49.192C57.4847 49.9387 58.402 50.312 59.49 50.312C61.09 50.312 62.626 49.7573 64.098 48.648C65.57 47.5387 66.7647 46.088 67.682 44.296C68.1513 44.744 68.578 45.2987 68.962 45.96C68.258 47.56 67.01 49.128 65.218 50.664C64.322 51.4107 63.2553 52.0187 62.018 52.488C60.802 52.9573 59.5433 53.192 58.242 53.192C56.1087 53.192 54.4233 52.5413 53.186 51.24C51.8633 49.832 51.202 48.0293 51.202 45.832C51.202 43.6347 52.0233 41.7147 53.666 40.072C55.33 38.4293 57.314 37.608 59.618 37.608C61.2607 37.608 62.594 37.9707 63.618 38.696C64.642 39.4 65.1647 40.36 65.186 41.576C65.186 43.2187 64.5247 44.552 63.202 45.576C61.9007 46.6 60.1087 47.3147 57.826 47.72L57.378 45.832ZM79.6123 53.16C77.6496 53.16 76.3483 52.4773 75.7083 51.112C74.5989 52.4987 73.1696 53.192 71.4203 53.192C69.6923 53.192 68.2309 52.6053 67.0363 51.432C65.8629 50.2587 65.2763 48.712 65.2763 46.792C65.2763 43.9973 66.0976 41.768 67.7403 40.104C69.3829 38.44 71.4629 37.608 73.9803 37.608C74.0443 37.608 74.1083 37.608 74.1723 37.608C75.2389 37.608 76.2203 37.7893 77.1163 38.152C77.6923 37.7893 78.3856 37.608 79.1963 37.608C80.0283 37.608 80.6256 37.7147 80.9883 37.928C80.7963 39.5067 80.5936 41.064 80.3803 42.6C80.1669 44.1147 80.0176 45.192 79.9323 45.832C79.7403 47.2827 79.6443 48.328 79.6443 48.968C79.6443 49.8213 79.9856 50.248 80.6683 50.248C81.2016 50.248 81.7669 49.896 82.3643 49.192C82.9616 48.4667 83.4843 47.336 83.9323 45.8C84.5509 46.3547 84.9776 46.9733 85.2123 47.656C84.5936 49.6827 83.7616 51.112 82.7163 51.944C81.6709 52.7547 80.6363 53.16 79.6123 53.16ZM74.4603 40.104C73.0949 40.104 72.0069 40.6267 71.1963 41.672C70.4069 42.696 69.9376 44.232 69.7883 46.28C69.7669 46.472 69.7563 46.6533 69.7563 46.824C69.7563 47.8693 70.0016 48.7013 70.4923 49.32C71.0043 49.9387 71.6549 50.248 72.4443 50.248C73.7883 50.248 74.8016 49.2987 75.4843 47.4L76.2523 40.488C75.6336 40.232 75.0363 40.104 74.4603 40.104ZM89.1755 30.728C89.1755 30.856 88.8875 33.1493 88.3115 37.608H93.0155V40.072H87.9915L87.8955 40.872C90.3915 42.9627 91.6395 45.2453 91.6395 47.72C91.6395 49.6613 91.1382 51.0587 90.1355 51.912C89.1542 52.7653 87.9702 53.192 86.5835 53.192C85.1968 53.192 84.1835 52.8293 83.5435 52.104C82.9035 51.3573 82.5835 50.4613 82.5835 49.416C82.5835 49.1813 82.6048 48.9253 82.6475 48.648L83.6395 40.136L83.5115 40.072H80.9195C80.8982 39.8587 80.8875 39.5173 80.8875 39.048C80.8875 38.5573 80.9835 38.0773 81.1755 37.608H83.9275L84.9515 28.904C85.3995 28.7333 85.9968 28.648 86.7435 28.648C88.3648 28.648 89.1755 29.3413 89.1755 30.728ZM89.4955 47.688C89.4955 46.216 88.8555 44.7653 87.5755 43.336C87.1915 46.5147 86.9995 48.3493 86.9995 48.84C86.9995 49.8 87.3088 50.28 87.9275 50.28C88.3755 50.28 88.7488 50.0773 89.0475 49.672C89.3462 49.2453 89.4955 48.584 89.4955 47.688ZM94.8635 49.16C95.3755 48.648 95.9942 48.392 96.7195 48.392C97.4448 48.392 98.0635 48.648 98.5755 49.16C99.0875 49.672 99.3435 50.2907 99.3435 51.016C99.3435 51.7413 99.0875 52.36 98.5755 52.872C98.0635 53.3627 97.4448 53.608 96.7195 53.608C95.9942 53.608 95.3755 53.3627 94.8635 52.872C94.3728 52.36 94.1275 51.7413 94.1275 51.016C94.1275 50.2907 94.3728 49.672 94.8635 49.16Z" fill="#FF7A00"/>
</g>
<defs>
<clipPath id="clip0_557_31">
<rect width="124" height="63" fill="white"/>
</clipPath>
</defs>
</svg>
