<svg width="400" height="850" viewBox="0 0 400 850" fill="none" xmlns="http://www.w3.org/2000/svg">
<g clip-path="url(#clip0_327_169)">
<rect width="400" height="850" fill="white"/>
<rect y="-8" width="400" height="866" rx="20" fill="#FF7A00"/>
<g filter="url(#filter0_d_327_169)">
<circle cx="85.5" cy="84.5" r="36.5" fill="white"/>
</g>
<path d="M116.539 175.315C114.026 177.092 112.769 179.735 112.769 183.245C112.769 185.455 113.549 187.535 115.109 189.485C116.712 191.435 119.399 192.41 123.169 192.41C126.939 192.41 130.514 191.132 133.894 188.575C137.274 186.018 139.831 183.223 141.564 180.19L143.774 184.155C138.184 193.645 130.406 198.39 120.439 198.39C115.499 198.39 111.317 197.068 107.894 194.425C104.471 191.738 102.759 188.597 102.759 185C102.759 178.717 105.554 174.167 111.144 171.35C109.281 169.053 108.349 166.367 108.349 163.29C108.349 159.26 110.082 155.793 113.549 152.89C117.059 149.987 121.111 148.535 125.704 148.535C130.297 148.535 133.829 149.705 136.299 152.045C138.812 154.385 140.069 157.462 140.069 161.275H133.894C133.937 158.935 133.309 157.18 132.009 156.01C130.752 154.797 128.976 154.19 126.679 154.19C124.426 154.19 122.389 155.013 120.569 156.66C118.532 158.437 117.514 160.517 117.514 162.9C117.514 165.283 118.164 167.342 119.464 169.075C123.797 168.555 127.091 168.837 129.344 169.92C130.731 170.57 131.424 171.61 131.424 173.04C131.424 174.427 130.622 175.402 129.019 175.965C127.459 176.528 125.574 176.81 123.364 176.81C121.154 176.81 118.879 176.312 116.539 175.315ZM161.743 198.325C157.756 198.325 155.113 196.938 153.813 194.165C151.56 196.982 148.656 198.39 145.103 198.39C141.593 198.39 138.625 197.198 136.198 194.815C133.815 192.432 132.623 189.29 132.623 185.39C132.623 179.713 134.291 175.185 137.628 171.805C140.965 168.425 145.19 166.735 150.303 166.735C150.433 166.735 150.563 166.735 150.693 166.735C152.86 166.735 154.853 167.103 156.673 167.84C157.843 167.103 159.251 166.735 160.898 166.735C162.588 166.735 163.801 166.952 164.538 167.385C164.148 170.592 163.736 173.755 163.303 176.875C162.87 179.952 162.566 182.14 162.393 183.44C162.003 186.387 161.808 188.51 161.808 189.81C161.808 191.543 162.501 192.41 163.888 192.41C164.971 192.41 166.12 191.695 167.333 190.265C168.546 188.792 169.608 186.495 170.518 183.375C171.775 184.502 172.641 185.758 173.118 187.145C171.861 191.262 170.171 194.165 168.048 195.855C165.925 197.502 163.823 198.325 161.743 198.325ZM151.278 171.805C148.505 171.805 146.295 172.867 144.648 174.99C143.045 177.07 142.091 180.19 141.788 184.35C141.745 184.74 141.723 185.108 141.723 185.455C141.723 187.578 142.221 189.268 143.218 190.525C144.258 191.782 145.58 192.41 147.183 192.41C149.913 192.41 151.971 190.482 153.358 186.625L154.918 172.585C153.661 172.065 152.448 171.805 151.278 171.805ZM181.168 152.76C181.168 153.02 180.583 157.678 179.413 166.735H188.968V171.74H178.763L178.568 173.365C183.638 177.612 186.173 182.248 186.173 187.275C186.173 191.218 185.155 194.057 183.118 195.79C181.125 197.523 178.72 198.39 175.903 198.39C173.087 198.39 171.028 197.653 169.728 196.18C168.428 194.663 167.778 192.843 167.778 190.72C167.778 190.243 167.822 189.723 167.908 189.16L169.923 171.87L169.663 171.74H164.398C164.355 171.307 164.333 170.613 164.333 169.66C164.333 168.663 164.528 167.688 164.918 166.735H170.508L172.588 149.055C173.498 148.708 174.712 148.535 176.228 148.535C179.522 148.535 181.168 149.943 181.168 152.76ZM181.818 187.21C181.818 184.22 180.518 181.273 177.918 178.37C177.138 184.827 176.748 188.553 176.748 189.55C176.748 191.5 177.377 192.475 178.633 192.475C179.543 192.475 180.302 192.063 180.908 191.24C181.515 190.373 181.818 189.03 181.818 187.21ZM192.722 190.2C193.762 189.16 195.019 188.64 196.492 188.64C197.965 188.64 199.222 189.16 200.262 190.2C201.302 191.24 201.822 192.497 201.822 193.97C201.822 195.443 201.302 196.7 200.262 197.74C199.222 198.737 197.965 199.235 196.492 199.235C195.019 199.235 193.762 198.737 192.722 197.74C191.725 196.7 191.227 195.443 191.227 193.97C191.227 192.497 191.725 191.24 192.722 190.2ZM230.554 204.99C231.464 204.643 232.743 204.47 234.389 204.47C236.036 204.47 237.509 204.578 238.809 204.795C237.466 214.762 236.404 223.797 235.624 231.9C234.888 239.96 234.476 244.207 234.389 244.64C234.346 245.073 234.324 245.463 234.324 245.81C234.368 246.937 234.909 247.5 235.949 247.5C238.549 247.5 242.168 244.51 246.804 238.53C247.628 240.827 248.104 242.365 248.234 243.145C246.154 246.438 243.641 249.147 240.694 251.27C237.791 253.35 235.039 254.39 232.439 254.39C229.839 254.39 228.041 253.718 227.044 252.375C226.048 251.032 225.549 249.537 225.549 247.89C225.549 247.5 225.593 246.742 225.679 245.615C225.809 244.488 226.676 237.468 228.279 224.555L217.619 249.19H212.094L208.909 224.945L204.359 245.095C203.623 248.302 202.409 250.663 200.719 252.18C199.073 253.697 197.253 254.455 195.259 254.455C193.266 254.455 191.641 253.87 190.384 252.7C189.041 251.443 188.369 249.667 188.369 247.37C188.369 242.777 191.923 238.855 199.029 235.605C202.886 217.102 204.966 206.853 205.269 204.86C206.309 204.6 207.696 204.47 209.429 204.47C211.206 204.47 212.419 204.513 213.069 204.6H213.524L217.554 234.825L230.554 205.315V204.99ZM192.984 246.265C192.984 247.652 193.526 248.345 194.609 248.345C195.346 248.345 195.953 247.76 196.429 246.59C197.036 245.16 197.534 243.275 197.924 240.935C194.631 242.798 192.984 244.575 192.984 246.265ZM252.562 239.44C255.248 238.877 257.242 237.793 258.542 236.19C259.885 234.587 260.557 233.048 260.557 231.575C260.557 230.058 260.145 229.04 259.322 228.52C258.542 227.957 257.675 227.675 256.722 227.675C254.685 227.675 252.887 228.823 251.327 231.12C249.81 233.373 249.052 236.082 249.052 239.245C249.052 242.365 249.788 244.705 251.262 246.265C252.778 247.782 254.642 248.54 256.852 248.54C260.102 248.54 263.222 247.413 266.212 245.16C269.202 242.907 271.628 239.96 273.492 236.32C274.445 237.23 275.312 238.357 276.092 239.7C274.662 242.95 272.127 246.135 268.487 249.255C266.667 250.772 264.5 252.007 261.987 252.96C259.517 253.913 256.96 254.39 254.317 254.39C249.983 254.39 246.56 253.068 244.047 250.425C241.36 247.565 240.017 243.903 240.017 239.44C240.017 234.977 241.685 231.077 245.022 227.74C248.402 224.403 252.432 222.735 257.112 222.735C260.448 222.735 263.157 223.472 265.237 224.945C267.317 226.375 268.378 228.325 268.422 230.795C268.422 234.132 267.078 236.84 264.392 238.92C261.748 241 258.108 242.452 253.472 243.275L252.562 239.44ZM280.89 239.44C283.577 238.877 285.57 237.793 286.87 236.19C288.213 234.587 288.885 233.048 288.885 231.575C288.885 230.058 288.473 229.04 287.65 228.52C286.87 227.957 286.003 227.675 285.05 227.675C283.013 227.675 281.215 228.823 279.655 231.12C278.138 233.373 277.38 236.082 277.38 239.245C277.38 242.365 278.117 244.705 279.59 246.265C281.107 247.782 282.97 248.54 285.18 248.54C288.43 248.54 291.55 247.413 294.54 245.16C297.53 242.907 299.957 239.96 301.82 236.32C302.773 237.23 303.64 238.357 304.42 239.7C302.99 242.95 300.455 246.135 296.815 249.255C294.995 250.772 292.828 252.007 290.315 252.96C287.845 253.913 285.288 254.39 282.645 254.39C278.312 254.39 274.888 253.068 272.375 250.425C269.688 247.565 268.345 243.903 268.345 239.44C268.345 234.977 270.013 231.077 273.35 227.74C276.73 224.403 280.76 222.735 285.44 222.735C288.777 222.735 291.485 223.472 293.565 224.945C295.645 226.375 296.707 228.325 296.75 230.795C296.75 234.132 295.407 236.84 292.72 238.92C290.077 241 286.437 242.452 281.8 243.275L280.89 239.44ZM311.818 208.76C311.818 209.02 311.233 213.678 310.063 222.735H319.618V227.74H309.413L309.218 229.365C314.288 233.612 316.823 238.248 316.823 243.275C316.823 247.218 315.805 250.057 313.768 251.79C311.775 253.523 309.37 254.39 306.553 254.39C303.737 254.39 301.678 253.653 300.378 252.18C299.078 250.663 298.428 248.843 298.428 246.72C298.428 246.243 298.472 245.723 298.558 245.16L300.573 227.87L300.313 227.74H295.048C295.005 227.307 294.983 226.613 294.983 225.66C294.983 224.663 295.178 223.688 295.568 222.735H301.158L303.238 205.055C304.148 204.708 305.362 204.535 306.878 204.535C310.172 204.535 311.818 205.943 311.818 208.76ZM312.468 243.21C312.468 240.22 311.168 237.273 308.568 234.37C307.788 240.827 307.398 244.553 307.398 245.55C307.398 247.5 308.027 248.475 309.283 248.475C310.193 248.475 310.952 248.063 311.558 247.24C312.165 246.373 312.468 245.03 312.468 243.21ZM323.372 246.2C324.412 245.16 325.669 244.64 327.142 244.64C328.615 244.64 329.872 245.16 330.912 246.2C331.952 247.24 332.472 248.497 332.472 249.97C332.472 251.443 331.952 252.7 330.912 253.74C329.872 254.737 328.615 255.235 327.142 255.235C325.669 255.235 324.412 254.737 323.372 253.74C322.375 252.7 321.877 251.443 321.877 249.97C321.877 248.497 322.375 247.24 323.372 246.2ZM100.555 296.025L102.635 299.21C100.512 306.663 96.1133 310.39 89.44 310.39C87.9233 310.39 86.6017 310.108 85.475 309.545C84.3917 308.982 83.5683 308.31 83.005 307.53C82.4417 306.75 81.9867 305.753 81.64 304.54C81.1633 302.72 80.9033 300.315 80.86 297.325C80.86 294.335 80.4917 292.277 79.755 291.15C79.0617 290.023 77.7183 289.395 75.725 289.265L76.44 283.74C76.5267 283.74 76.5917 283.74 76.635 283.74C79.1483 283.74 81.2283 283.025 82.875 281.595C84.6517 279.992 85.54 277.933 85.54 275.42C85.54 272.907 84.3483 270.783 81.965 269.05C79.625 267.317 76.5917 266.45 72.865 266.45C68.055 266.45 64.35 267.642 61.75 270.025C60.3633 271.325 59.67 272.885 59.67 274.705C59.67 277.002 61.425 278.388 64.935 278.865L64.025 283.74C61.3817 283.61 59.0417 282.722 57.005 281.075C54.9683 279.428 53.95 277.305 53.95 274.705C53.95 270.155 55.8567 266.667 59.67 264.24C63.4833 261.77 68.315 260.535 74.165 260.535C77.935 260.535 81.25 260.99 84.11 261.9C89.0067 263.547 92.2567 266.407 93.86 270.48C94.38 271.91 94.64 273.08 94.64 273.99C94.64 274.857 94.64 275.442 94.64 275.745C94.4667 278.128 93.5783 280.468 91.975 282.765C90.415 285.062 88.0533 286.643 84.89 287.51C86.7967 287.9 88.0967 288.723 88.79 289.98C89.4833 291.237 89.8517 293.143 89.895 295.7C89.9383 300.077 90.1333 302.742 90.48 303.695C90.87 304.605 91.65 305.06 92.82 305.06C95.9833 305.06 98.5617 302.048 100.555 296.025ZM60.71 310.39C58.4133 310.39 56.5717 309.697 55.185 308.31C53.7983 306.923 53.105 305.212 53.105 303.175C53.105 297.888 56.9833 293.468 64.74 289.915C66.3 277.782 67.1017 271.563 67.145 271.26C68.965 270.09 71.0233 269.505 73.32 269.505C74.2733 269.505 75.3567 269.635 76.57 269.895L72.475 297.65C71.175 306.143 67.2533 310.39 60.71 310.39ZM57.915 302.395C57.915 303.782 58.6517 304.475 60.125 304.475C61.8583 304.475 62.9633 302.915 63.44 299.795L64.025 295.375C59.9517 297.758 57.915 300.098 57.915 302.395ZM107.766 295.44C110.453 294.877 112.446 293.793 113.746 292.19C115.09 290.587 115.761 289.048 115.761 287.575C115.761 286.058 115.35 285.04 114.526 284.52C113.746 283.957 112.88 283.675 111.926 283.675C109.89 283.675 108.091 284.823 106.531 287.12C105.015 289.373 104.256 292.082 104.256 295.245C104.256 298.365 104.993 300.705 106.466 302.265C107.983 303.782 109.846 304.54 112.056 304.54C115.306 304.54 118.426 303.413 121.416 301.16C124.406 298.907 126.833 295.96 128.696 292.32C129.65 293.23 130.516 294.357 131.296 295.7C129.866 298.95 127.331 302.135 123.691 305.255C121.871 306.772 119.705 308.007 117.191 308.96C114.721 309.913 112.165 310.39 109.521 310.39C105.188 310.39 101.765 309.068 99.2514 306.425C96.5648 303.565 95.2214 299.903 95.2214 295.44C95.2214 290.977 96.8898 287.077 100.226 283.74C103.606 280.403 107.636 278.735 112.316 278.735C115.653 278.735 118.361 279.472 120.441 280.945C122.521 282.375 123.583 284.325 123.626 286.795C123.626 290.132 122.283 292.84 119.596 294.92C116.953 297 113.313 298.452 108.676 299.275L107.766 295.44ZM131.155 278.67C133.971 278.67 135.618 279.385 136.095 280.815C138.131 279.385 140.71 278.67 143.83 278.67C146.95 278.67 149.636 279.948 151.89 282.505C154.143 285.062 155.27 288.052 155.27 291.475C155.27 291.952 155.248 292.45 155.205 292.97C154.728 298.647 152.821 302.98 149.485 305.97C146.148 308.917 141.793 310.39 136.42 310.39C135.206 310.39 133.885 310.238 132.455 309.935L130.375 327.81H121.86C124.633 303.933 126.496 287.727 127.45 279.19C128.36 278.843 129.595 278.67 131.155 278.67ZM146.105 291.93C146.105 290.023 145.671 288.333 144.805 286.86C143.938 285.387 142.595 284.65 140.775 284.65C138.305 284.65 136.42 286.253 135.12 289.46C134.253 295.873 133.755 299.6 133.625 300.64C133.581 301.94 133.993 302.915 134.86 303.565C135.726 304.215 136.788 304.54 138.045 304.54C140.255 304.54 142.075 303.543 143.505 301.55C145.238 299.08 146.105 295.873 146.105 291.93ZM168.549 295.44C171.236 294.877 173.229 293.793 174.529 292.19C175.872 290.587 176.544 289.048 176.544 287.575C176.544 286.058 176.132 285.04 175.309 284.52C174.529 283.957 173.662 283.675 172.709 283.675C170.672 283.675 168.874 284.823 167.314 287.12C165.797 289.373 165.039 292.082 165.039 295.245C165.039 298.365 165.776 300.705 167.249 302.265C168.766 303.782 170.629 304.54 172.839 304.54C176.089 304.54 179.209 303.413 182.199 301.16C185.189 298.907 187.616 295.96 189.479 292.32C190.432 293.23 191.299 294.357 192.079 295.7C190.649 298.95 188.114 302.135 184.474 305.255C182.654 306.772 180.487 308.007 177.974 308.96C175.504 309.913 172.947 310.39 170.304 310.39C165.971 310.39 162.547 309.068 160.034 306.425C157.347 303.565 156.004 299.903 156.004 295.44C156.004 290.977 157.672 287.077 161.009 283.74C164.389 280.403 168.419 278.735 173.099 278.735C176.436 278.735 179.144 279.472 181.224 280.945C183.304 282.375 184.366 284.325 184.409 286.795C184.409 290.132 183.066 292.84 180.379 294.92C177.736 297 174.096 298.452 169.459 299.275L168.549 295.44ZM213.712 310.325C209.726 310.325 207.082 308.938 205.782 306.165C203.529 308.982 200.626 310.39 197.072 310.39C193.562 310.39 190.594 309.198 188.167 306.815C185.784 304.432 184.592 301.29 184.592 297.39C184.592 291.713 186.261 287.185 189.597 283.805C192.934 280.425 197.159 278.735 202.272 278.735C202.402 278.735 202.532 278.735 202.662 278.735C204.829 278.735 206.822 279.103 208.642 279.84C209.812 279.103 211.221 278.735 212.867 278.735C214.557 278.735 215.771 278.952 216.507 279.385C216.117 282.592 215.706 285.755 215.272 288.875C214.839 291.952 214.536 294.14 214.362 295.44C213.972 298.387 213.777 300.51 213.777 301.81C213.777 303.543 214.471 304.41 215.857 304.41C216.941 304.41 218.089 303.695 219.302 302.265C220.516 300.792 221.577 298.495 222.487 295.375C223.744 296.502 224.611 297.758 225.087 299.145C223.831 303.262 222.141 306.165 220.017 307.855C217.894 309.502 215.792 310.325 213.712 310.325ZM203.247 283.805C200.474 283.805 198.264 284.867 196.617 286.99C195.014 289.07 194.061 292.19 193.757 296.35C193.714 296.74 193.692 297.108 193.692 297.455C193.692 299.578 194.191 301.268 195.187 302.525C196.227 303.782 197.549 304.41 199.152 304.41C201.882 304.41 203.941 302.482 205.327 298.625L206.887 284.585C205.631 284.065 204.417 283.805 203.247 283.805ZM233.138 264.76C233.138 265.02 232.553 269.678 231.383 278.735H240.938V283.74H230.733L230.538 285.365C235.608 289.612 238.143 294.248 238.143 299.275C238.143 303.218 237.124 306.057 235.088 307.79C233.094 309.523 230.689 310.39 227.873 310.39C225.056 310.39 222.998 309.653 221.698 308.18C220.398 306.663 219.748 304.843 219.748 302.72C219.748 302.243 219.791 301.723 219.878 301.16L221.893 283.87L221.633 283.74H216.368C216.324 283.307 216.303 282.613 216.303 281.66C216.303 280.663 216.498 279.688 216.888 278.735H222.478L224.558 261.055C225.468 260.708 226.681 260.535 228.198 260.535C231.491 260.535 233.138 261.943 233.138 264.76ZM233.788 299.21C233.788 296.22 232.488 293.273 229.888 290.37C229.108 296.827 228.718 300.553 228.718 301.55C228.718 303.5 229.346 304.475 230.603 304.475C231.513 304.475 232.271 304.063 232.878 303.24C233.484 302.373 233.788 301.03 233.788 299.21ZM244.691 302.2C245.731 301.16 246.988 300.64 248.461 300.64C249.935 300.64 251.191 301.16 252.231 302.2C253.271 303.24 253.791 304.497 253.791 305.97C253.791 307.443 253.271 308.7 252.231 309.74C251.191 310.737 249.935 311.235 248.461 311.235C246.988 311.235 245.731 310.737 244.691 309.74C243.695 308.7 243.196 307.443 243.196 305.97C243.196 304.497 243.695 303.24 244.691 302.2Z" fill="white"/>
<g clip-path="url(#clip1_327_169)">
<path d="M86.0556 85.8781C84.8834 83.698 81.7227 82.3723 80.3686 83.237C78.8838 84.1854 79.2541 87.971 81.505 89.6613C82.5761 90.4656 84.5301 91.1389 85.7453 90.2989C87.079 89.3764 86.749 87.1683 86.0556 85.8781ZM80.6448 83.0317C80.4564 83.103 80.2832 83.2087 80.1343 83.3435C79.9797 83.4874 79.8972 83.6256 79.8232 83.7526C79.7386 83.8957 79.6699 84.0475 79.6183 84.2054C78.9506 83.0595 78.0297 81.4077 77.0263 79.3623C76.4868 78.262 75.9178 77.1185 75.315 75.5906C73.3394 70.583 73.5659 68.5639 73.6875 67.8521C73.8279 67.0292 74.0702 65.7169 75.0469 65.2749C75.7255 64.9679 76.7424 65.0887 77.3492 65.6527C78.5876 66.8047 77.1263 68.8809 77.5285 72.9495C77.6563 74.2444 77.9138 75.1453 78.2872 76.4485C78.9371 78.7182 79.8774 80.8961 81.0851 82.929C80.9343 82.9429 80.7861 82.9775 80.6448 83.0317V83.0317Z" fill="#FF7A00"/>
<path d="M80.615 82.9278C80.3644 83.0274 80.1311 83.1699 79.9537 83.3745C79.7536 83.6046 79.6087 83.8893 79.5131 84.1769L79.7107 84.1512C78.9276 82.8057 78.1857 81.4375 77.4851 80.0466C76.7027 78.4926 75.9451 76.9254 75.3168 75.303C74.7695 73.8901 74.2804 72.4433 73.9728 70.9586C73.8118 70.1811 73.6966 69.3834 73.7215 68.5883C73.7251 68.4708 73.7324 68.3532 73.7433 68.2357C73.7478 68.1872 73.7533 68.1386 73.7592 68.0901C73.7651 68.0417 73.7644 68.0471 73.7737 67.9848C73.8467 67.5038 73.9413 67.0179 74.1127 66.5611C74.3411 65.9529 74.7463 65.4173 75.4126 65.2661C76.0788 65.115 76.8687 65.2997 77.3429 65.7986C77.9333 66.4186 77.7528 67.4046 77.6492 68.1661C77.5646 68.7889 77.4712 69.41 77.4147 70.0361C77.3402 70.8391 77.3282 71.6466 77.3789 72.4515C77.4365 73.3208 77.572 74.1832 77.7839 75.0286C78.0087 75.9293 78.2678 76.8262 78.5649 77.706C79.0834 79.2405 79.7359 80.7273 80.5149 82.1494C80.6686 82.4301 80.8271 82.7081 80.9906 82.9835L81.084 82.8222C80.9239 82.8375 80.7664 82.873 80.6155 82.928C80.486 82.975 80.542 83.1826 80.6729 83.1347C80.8052 83.0849 80.9433 83.0519 81.084 83.0364C81.163 83.0286 81.2222 82.9508 81.1774 82.8751C80.3861 81.5428 79.709 80.147 79.1532 78.7023C78.8111 77.8115 78.5265 76.9038 78.2667 75.9864C78.0274 75.1429 77.8071 74.2937 77.6907 73.4239C77.4799 71.8445 77.5722 70.2714 77.7915 68.6998C77.8638 68.1825 77.9508 67.6653 77.9646 67.1422C77.9753 66.7451 77.9342 66.334 77.7405 65.9792C77.138 64.8766 75.3308 64.6612 74.467 65.5584C74.0165 66.0255 73.8128 66.6781 73.6814 67.2962C73.616 67.5912 73.5663 67.8894 73.5325 68.1896C73.4642 68.8458 73.5188 69.5109 73.6131 70.1614C73.8028 71.461 74.1737 72.7331 74.6005 73.9733C75.1828 75.666 75.8972 77.3025 76.6837 78.9104C77.4318 80.4397 78.2119 81.9521 79.0508 83.4346C79.207 83.7107 79.365 83.9857 79.525 84.2598C79.5724 84.3428 79.6941 84.3198 79.7225 84.2342C79.884 83.7487 80.1851 83.3296 80.6733 83.1354C80.8007 83.0839 80.7449 82.8763 80.615 82.9278Z" fill="#FF7A00"/>
<path d="M86.1489 85.8238C85.7401 85.0696 85.1243 84.44 84.4244 83.9453C83.7631 83.4782 83.0017 83.1126 82.2046 82.9476C81.594 82.8211 80.8808 82.7933 80.3314 83.1338C79.8299 83.4441 79.5667 84.0152 79.4541 84.5714C79.3094 85.2791 79.3649 86.0224 79.5352 86.7205C79.7249 87.4982 80.0708 88.2446 80.5647 88.8784C81.1018 89.5673 81.8126 90.0739 82.6202 90.4089C83.465 90.7595 84.4953 90.9668 85.3754 90.6161C87.0826 89.9357 86.9508 87.7356 86.3843 86.3283C86.3155 86.1561 86.2374 85.9877 86.1503 85.8238C86.0853 85.7018 85.8985 85.8099 85.9637 85.9319C86.3267 86.6137 86.5399 87.3954 86.5534 88.1654C86.5662 88.9022 86.3694 89.6935 85.7522 90.1621C85.0295 90.7106 84.032 90.6389 83.208 90.3915C82.399 90.1487 81.6322 89.7184 81.0472 89.1086C80.0393 88.0575 79.4858 86.5009 79.6027 85.0543C79.6466 84.5098 79.8005 83.9152 80.1974 83.5142C80.6005 83.106 81.2044 83.0383 81.7526 83.091C82.4877 83.1629 83.2021 83.45 83.834 83.8198C84.5387 84.2305 85.181 84.775 85.6554 85.4382C85.7684 85.5963 85.8713 85.7612 85.9637 85.9319C86.0282 86.0535 86.2148 85.9453 86.1489 85.8238Z" fill="#FF7A00"/>
<path d="M90.2062 70.2009C91.1152 70.7486 91.9931 71.3455 92.8358 71.9891L92.6155 71.8205C94.0184 72.8926 95.3109 74.0996 96.4742 75.4239C96.7904 75.7844 97.0956 76.1541 97.3899 76.5329L97.2199 76.3145C98.4266 77.8685 99.4469 79.5628 100.219 81.3691L100.109 81.1105C100.781 82.6932 101.259 84.3549 101.491 86.0582L101.452 85.7714C101.647 87.2273 101.659 88.704 101.465 90.1604L101.504 89.8736C101.321 91.2194 100.959 92.5352 100.427 93.7866L100.536 93.528C99.9812 94.8123 99.2629 96.021 98.3991 97.125L98.5693 96.9066C97.7626 97.9352 96.8508 98.8783 95.8482 99.7208C95.6129 99.9192 95.373 100.112 95.1286 100.299L95.3489 100.13C94.6591 100.658 93.9345 101.158 93.1646 101.564C92.745 101.786 92.311 101.985 91.8745 102.168L92.1353 102.06C90.6469 102.679 89.0827 103.1 87.4832 103.315L87.7725 103.276C86.2512 103.477 84.7079 103.489 83.1859 103.289L83.4751 103.327C82.1453 103.151 80.8444 102.803 79.6055 102.293L79.8663 102.402C78.7206 101.922 77.6418 101.299 76.6561 100.547L76.8764 100.715C75.8094 99.8952 74.859 98.9339 74.0311 97.8771L74.2011 98.0955C73.347 97.0039 72.6383 95.8078 72.0922 94.5368L72.202 94.7954C71.7344 93.6881 71.4029 92.5284 71.24 91.3381L71.2789 91.6249C71.138 90.5716 71.1363 89.5047 71.2737 88.451L71.2348 88.7378C71.3827 87.6668 71.6724 86.6198 72.0965 85.624L71.9869 85.8826C72.4425 84.8262 73.0321 83.8319 73.7415 82.9236L73.5713 83.142C74.324 82.1816 75.1955 81.3189 76.1653 80.574L75.945 80.7428C76.8958 80.0135 77.9364 79.4072 79.0417 78.9384L78.7808 79.047C79.7712 78.6335 80.8093 78.3384 81.8749 78.1939L81.5847 78.2327C82.4788 78.1118 83.3851 78.1083 84.2801 78.2223L83.9909 78.1838C84.8534 78.3038 85.6965 78.535 86.4988 78.8714L86.2379 78.7628C87.0913 79.122 87.8951 79.5872 88.6301 80.1473L88.4099 79.9785C89.11 80.5157 89.7393 81.1379 90.283 81.8306L90.1128 81.6122C90.6662 82.3294 91.1252 83.1135 91.4788 83.9456L91.369 83.687C91.7115 84.4916 91.9459 85.3374 92.0661 86.2025L92.0272 85.9157C92.1293 86.683 92.1293 87.4602 92.0272 88.2274L92.0661 87.9406C91.9553 88.712 91.7447 89.466 91.4394 90.1839L91.549 89.9253C91.2525 90.6242 90.8673 91.2827 90.4028 91.8849L90.573 91.6665C90.1675 92.1857 89.6983 92.6528 89.1765 93.0571L89.3967 92.8883C88.883 93.279 88.3221 93.6044 87.727 93.8571L87.9878 93.7485C87.3172 94.0274 86.6123 94.2171 85.8915 94.3128L86.1808 94.2742C85.3913 94.3739 84.5921 94.3711 83.8033 94.266L84.0928 94.3045C83.2203 94.1835 82.3674 93.9502 81.5557 93.6105L81.8166 93.7194C81.3264 93.512 80.8522 93.2694 80.3977 92.9936C79.9116 92.6988 79.1797 92.8725 78.9089 93.3806C78.6289 93.9063 78.7804 94.5422 79.2994 94.8568C81.6686 96.2933 84.5677 96.8819 87.29 96.2439C89.7412 95.67 91.8224 94.0292 93.0252 91.8475C93.9824 90.1113 94.4505 88.0894 94.2314 86.1148C94.018 84.187 93.3112 82.3046 92.1548 80.7351C90.6394 78.6779 88.4796 77.1394 86.0122 76.412C83.8965 75.7886 81.6072 75.8753 79.5033 76.5026C77.32 77.1512 75.3205 78.337 73.6519 79.8645C71.9297 81.4402 70.606 83.396 69.7882 85.5734C68.8512 88.0793 68.7686 90.8483 69.4394 93.4288C70.077 95.8816 71.3671 98.1378 73.0241 100.053C73.8065 100.957 74.686 101.756 75.6417 102.477C76.6829 103.261 77.8213 103.876 79.026 104.375C81.233 105.289 83.6703 105.67 86.0561 105.582C88.3349 105.497 90.6086 105.017 92.7129 104.142C93.7204 103.723 94.6572 103.248 95.5583 102.637C96.8735 101.744 98.1001 100.709 99.1732 99.539C100.68 97.8976 101.876 96.0274 102.691 93.9589C103.47 91.9813 103.822 89.8264 103.779 87.7053C103.737 85.6091 103.324 83.5113 102.605 81.5417C101.835 79.4351 100.762 77.4497 99.4203 75.6466C97.9917 73.719 96.3107 71.9886 94.4216 70.5009C93.4285 69.7166 92.3876 68.9938 91.3047 68.3366C90.8177 68.043 90.087 68.2148 89.8159 68.7238C89.5361 69.2485 89.6865 69.8864 90.2062 70.2V70.2009Z" fill="#FF7A00"/>
</g>
<path d="M274.668 731.874L187.041 573.832C187.017 573.445 186.897 573.071 186.693 572.741C186.49 572.412 186.208 572.138 185.873 571.943C185.488 571.723 185.049 571.617 184.607 571.637H184.521C183.922 571.609 183.335 571.815 182.883 572.21C182.432 572.605 182.15 573.159 182.098 573.757L89.2277 731.88C89.0676 732.148 88.9624 732.445 88.9182 732.755C88.874 733.064 88.8918 733.379 88.9704 733.681C89.049 733.984 89.1869 734.267 89.3761 734.516C89.5653 734.764 89.802 734.973 90.0725 735.129C90.3429 735.285 90.6417 735.386 90.9515 735.426C91.2613 735.465 91.5758 735.443 91.8769 735.36C92.178 735.277 92.4595 735.135 92.7052 734.942C92.9509 734.749 93.1558 734.509 93.308 734.237L184.493 578.965L270.581 734.231C270.733 734.504 270.938 734.743 271.183 734.936C271.429 735.129 271.71 735.271 272.012 735.354C272.313 735.437 272.627 735.46 272.937 735.42C273.247 735.381 273.546 735.28 273.816 735.123C274.087 734.967 274.323 734.759 274.512 734.51C274.702 734.262 274.84 733.978 274.918 733.675C274.997 733.373 275.014 733.058 274.97 732.749C274.926 732.44 274.821 732.142 274.661 731.874H274.668Z" fill="#3F3D56"/>
<path d="M170.044 704.76L179.949 702.487L175.897 663.189L161.279 666.546L170.044 704.76Z" fill="#FFB6B6"/>
<path d="M177.704 685.772L163.608 689.007L159.101 680.197L158.845 679.885C156.846 677.431 155.737 674.371 155.697 671.205L143.982 640.204L143.024 639.749C142.284 639.395 141.627 638.887 141.098 638.26C140.57 637.633 140.18 636.901 139.956 636.111C139.732 635.322 139.679 634.494 139.8 633.682C139.92 632.871 140.213 632.094 140.656 631.404L139.417 628.123L104.42 628.188L104.385 628.178L61.4102 616.12L65.9229 589.211L78.011 596.819C81.9944 596.56 150.232 592.37 156.536 607.667C162.15 621.29 170.238 644.563 176.037 661.688C176.326 662.457 176.686 663.197 177.111 663.9C178.013 665.289 178.543 666.887 178.649 668.541C178.717 669.26 178.855 669.971 179.059 670.665C181.469 677.871 177.797 685.582 177.754 685.662L177.704 685.772Z" fill="#1B1A18"/>
<path d="M166.699 701.475L169.92 700.729L181.32 692.729L189.231 696.297C191.117 695.863 193.069 695.806 194.977 696.127C196.885 696.449 198.711 697.144 200.35 698.172C201.99 699.2 203.41 700.541 204.531 702.118C205.652 703.696 206.452 705.479 206.883 707.365L206.99 707.831L170.101 716.299L166.699 701.475Z" fill="#1B1A18"/>
<path d="M20.4598 702.356C21.4664 691.392 27.8879 680.413 38.1847 676.525C34.4392 687.898 34.8353 700.228 39.303 711.337C41.0422 715.614 43.4207 720.192 42.0562 724.602C41.0649 727.333 39.0632 729.58 36.4642 730.878C33.8858 732.154 31.1545 733.094 28.3371 733.675L27.8003 734.151C23.0247 724.225 19.4533 713.321 20.4598 702.356Z" fill="#F0F0F0"/>
<path d="M38.2972 676.727C32.4522 683.718 28.9577 692.373 28.3098 701.463C28.136 703.418 28.2713 705.387 28.7106 707.3C29.1982 709.149 30.172 710.834 31.5308 712.179C32.8785 713.365 34.0771 714.71 35.1004 716.185C35.554 716.99 35.8323 717.882 35.9171 718.802C36.0019 719.723 35.8913 720.651 35.5925 721.525C34.7924 723.663 33.5709 725.619 32.0005 727.276C30.2022 729.075 28.838 731.261 28.0116 733.668C27.9333 733.97 27.4691 733.834 27.5456 733.53C28.664 729.181 32.7648 726.601 34.6288 722.655C35.1144 721.766 35.3904 720.778 35.4356 719.766C35.4809 718.754 35.2942 717.745 34.8898 716.817C33.9362 715.26 32.7407 713.864 31.3482 712.683C30.0042 711.392 28.9963 709.791 28.4123 708.021C27.8775 706.138 27.667 704.177 27.7897 702.222C27.9964 697.817 28.894 693.473 30.4497 689.347C32.1987 684.628 34.7419 680.243 37.9691 676.382C38.1685 676.143 38.5003 676.498 38.3009 676.736L38.2972 676.727Z" fill="white"/>
<path d="M28.3452 698.526C26.835 698.211 25.4862 697.368 24.5397 696.149C23.5932 694.931 23.1106 693.415 23.1781 691.873C23.1781 691.809 23.2037 691.747 23.2491 691.702C23.2946 691.656 23.3562 691.631 23.4204 691.631C23.4847 691.631 23.5463 691.656 23.5918 691.702C23.6372 691.747 23.6628 691.809 23.6628 691.873C23.5976 693.309 24.0474 694.72 24.9309 695.853C25.8145 696.985 27.0736 697.765 28.4812 698.051C28.7869 698.114 28.649 698.579 28.3433 698.517L28.3452 698.526Z" fill="white"/>
<path d="M30.8133 711.62C33.4674 709.917 35.3823 707.275 36.1761 704.223C36.2544 703.921 36.7204 704.059 36.6421 704.361C35.8112 707.535 33.8144 710.28 31.0501 712.047C30.7873 712.215 30.5561 711.788 30.8189 711.62H30.8133Z" fill="white"/>
<path d="M32.6576 685.066C33.2163 685.31 33.8267 685.411 34.4341 685.361C35.0415 685.31 35.6269 685.11 36.1377 684.777C36.3987 684.606 36.6298 685.033 36.3688 685.204C35.8025 685.569 35.1554 685.79 34.4841 685.848C33.8128 685.905 33.1377 685.797 32.5178 685.532C32.4573 685.512 32.4067 685.47 32.3762 685.414C32.3457 685.358 32.3378 685.292 32.3538 685.23C32.3723 685.169 32.4145 685.117 32.471 685.086C32.5276 685.055 32.5939 685.048 32.6557 685.066H32.6576Z" fill="white"/>
<path d="M70.5415 695.011C70.3812 695.123 70.2209 695.235 70.0606 695.351C67.9145 696.863 65.8948 698.546 64.0212 700.385C63.8739 700.525 63.7267 700.669 63.585 700.812C59.1182 705.294 55.5219 710.565 52.9788 716.36C51.9688 718.667 51.1356 721.047 50.4866 723.481C49.8639 726.936 48.6829 730.266 46.9898 733.341C46.7949 733.634 46.582 733.915 46.3523 734.182L28.4168 734.758L28.292 734.704L27.5762 734.76C27.6004 734.632 27.6283 734.501 27.6544 734.372C27.6694 734.298 27.6861 734.223 27.701 734.149C27.7159 734.074 27.7234 734.05 27.729 734.005C27.729 733.988 27.729 733.971 27.7402 733.96C27.7402 733.915 27.7588 733.875 27.7644 733.832C27.921 733.093 28.0832 732.355 28.2509 731.616C29.4727 725.974 31.3591 720.497 33.8709 715.299C33.9473 715.144 34.0238 714.986 34.1095 714.833C35.2763 712.53 36.629 710.327 38.1544 708.245C38.9932 707.108 39.8891 706.014 40.8385 704.967C43.297 702.267 46.1647 699.97 49.3365 698.161C55.5295 694.396 62.9529 693.214 70.0084 694.87C70.1967 694.913 70.37 694.959 70.5415 695.011Z" fill="#F0F0F0"/>
<path d="M70.5163 695.241C61.6419 697.303 53.6424 702.109 47.6543 708.978C46.3379 710.433 45.2591 712.087 44.4575 713.878C43.7344 715.648 43.4982 717.58 43.7734 719.472C44.136 721.23 44.2837 723.026 44.2133 724.82C44.0908 725.736 43.7761 726.616 43.2897 727.402C42.8034 728.188 42.1564 728.862 41.3913 729.381C39.4654 730.605 37.3134 731.429 35.0629 731.805C32.5443 732.159 30.1397 733.083 28.0319 734.507C27.7877 734.693 27.4988 734.32 27.743 734.117C31.2473 731.32 36.0751 731.723 39.941 729.7C40.8647 729.283 41.6808 728.661 42.327 727.88C42.9732 727.1 43.4323 726.182 43.669 725.196C43.8442 723.377 43.7285 721.542 43.3261 719.759C43.0307 717.917 43.1907 716.03 43.7921 714.264C44.4988 712.437 45.5111 710.744 46.7857 709.257C49.6034 705.864 52.9372 702.935 56.6649 700.577C60.9015 697.863 65.5711 695.893 70.4716 694.754C70.7754 694.683 70.8258 695.166 70.5238 695.237L70.5163 695.241Z" fill="white"/>
<path d="M49.4497 706.651C48.4343 705.49 47.8647 704.005 47.8425 702.462C47.8203 700.919 48.347 699.419 49.3285 698.228C49.528 697.988 49.9101 698.286 49.7107 698.527C48.7955 699.633 48.3055 701.03 48.3291 702.466C48.3527 703.902 48.8883 705.283 49.8393 706.358C50.0462 706.597 49.6547 706.884 49.4497 706.651Z" fill="white"/>
<path d="M43.5427 718.59C46.6871 718.829 49.8061 717.873 52.2775 715.914C52.5217 715.728 52.8106 716.1 52.5664 716.304C49.9906 718.337 46.7434 719.325 43.4719 719.071C43.1606 719.047 43.2333 718.565 43.5427 718.592V718.59Z" fill="white"/>
<path d="M60.9951 698.502C61.2945 699.033 61.721 699.481 62.2363 699.807C62.7516 700.132 63.3397 700.324 63.9477 700.367C64.259 700.387 64.1862 700.866 63.8768 700.846C63.2056 700.797 62.5567 700.584 61.9865 700.227C61.4163 699.869 60.9422 699.378 60.6055 698.795C60.569 698.742 60.5539 698.678 60.5633 698.615C60.5726 698.552 60.6057 698.495 60.6558 698.455C60.7076 698.417 60.7723 698.401 60.8358 698.411C60.8993 698.42 60.9565 698.454 60.9951 698.506V698.502Z" fill="white"/>
<path d="M313.914 702.356C312.907 691.392 306.485 680.413 296.189 676.525C299.934 687.898 299.538 700.228 295.07 711.337C293.331 715.614 290.953 720.192 292.317 724.602C293.308 727.333 295.31 729.58 297.909 730.878C300.488 732.154 303.219 733.094 306.036 733.675L306.573 734.151C311.349 724.225 314.918 713.321 313.914 702.356Z" fill="#F0F0F0"/>
<path d="M296.079 676.727C301.924 683.718 305.418 692.373 306.066 701.463C306.24 703.418 306.105 705.387 305.666 707.3C305.178 709.149 304.204 710.834 302.845 712.179C301.498 713.365 300.299 714.71 299.276 716.185C298.822 716.99 298.544 717.882 298.459 718.802C298.374 719.723 298.485 720.651 298.784 721.525C299.584 723.663 300.805 725.619 302.376 727.276C304.174 729.075 305.538 731.261 306.365 733.668C306.443 733.97 306.907 733.834 306.831 733.53C305.712 729.181 301.611 726.601 299.747 722.655C299.262 721.766 298.986 720.778 298.94 719.766C298.895 718.754 299.082 717.745 299.486 716.817C300.44 715.26 301.636 713.864 303.028 712.683C304.372 711.392 305.38 709.791 305.964 708.021C306.499 706.138 306.709 704.177 306.586 702.222C306.38 697.817 305.482 693.473 303.926 689.347C302.177 684.628 299.634 680.243 296.407 676.382C296.208 676.143 295.876 676.498 296.075 676.736L296.079 676.727Z" fill="white"/>
<path d="M306.029 698.526C307.539 698.211 308.888 697.368 309.835 696.149C310.781 694.931 311.264 693.415 311.196 691.873C311.196 691.809 311.171 691.747 311.125 691.702C311.08 691.656 311.018 691.631 310.954 691.631C310.89 691.631 310.828 691.656 310.783 691.702C310.737 691.747 310.712 691.809 310.712 691.873C310.777 693.309 310.328 694.72 309.444 695.853C308.56 696.986 307.301 697.765 305.893 698.051C305.586 698.124 305.725 698.588 306.029 698.526Z" fill="white"/>
<path d="M303.56 711.62C300.906 709.917 298.991 707.275 298.197 704.223C298.119 703.921 297.653 704.059 297.731 704.361C298.563 707.535 300.56 710.279 303.323 712.047C303.588 712.215 303.817 711.788 303.556 711.62H303.56Z" fill="white"/>
<path d="M301.717 685.066C301.158 685.31 300.547 685.412 299.939 685.361C299.332 685.311 298.746 685.11 298.235 684.777C297.974 684.606 297.743 685.033 298.002 685.204C298.568 685.569 299.215 685.79 299.887 685.848C300.558 685.905 301.233 685.797 301.853 685.532C301.914 685.512 301.964 685.47 301.995 685.414C302.025 685.358 302.033 685.292 302.017 685.23C301.998 685.169 301.956 685.117 301.9 685.086C301.843 685.055 301.777 685.048 301.715 685.066H301.717Z" fill="white"/>
<path d="M263.824 695.011C263.985 695.123 264.145 695.235 264.305 695.351C266.451 696.863 268.471 698.546 270.344 700.385C270.492 700.525 270.639 700.669 270.781 700.812C275.247 705.294 278.844 710.565 281.387 716.36C282.397 718.667 283.23 721.047 283.879 723.481C284.502 726.936 285.683 730.266 287.376 733.341C287.571 733.634 287.784 733.915 288.013 734.182L305.949 734.758L306.074 734.704L306.79 734.76C306.765 734.631 306.735 734.501 306.711 734.372C306.696 734.298 306.68 734.223 306.665 734.15C306.65 734.078 306.644 734.052 306.637 734.007C306.637 733.99 306.637 733.973 306.625 733.962C306.625 733.917 306.607 733.876 306.601 733.833C306.445 733.095 306.283 732.356 306.115 731.616C304.893 725.974 303.007 720.496 300.495 715.299C300.418 715.144 300.342 714.985 300.256 714.833C299.09 712.53 297.737 710.327 296.211 708.245C295.372 707.108 294.477 706.013 293.527 704.967C291.069 702.266 288.201 699.97 285.029 698.161C278.836 694.396 271.413 693.214 264.357 694.87C264.177 694.913 264.011 694.959 263.824 695.011Z" fill="#F0F0F0"/>
<path d="M263.858 695.241C272.733 697.303 280.732 702.109 286.72 708.978C288.036 710.433 289.113 712.087 289.913 713.878C290.637 715.648 290.873 717.58 290.598 719.472C290.235 721.23 290.087 723.026 290.158 724.82C290.28 725.736 290.595 726.616 291.081 727.402C291.568 728.188 292.215 728.862 292.98 729.381C294.906 730.605 297.058 731.429 299.308 731.805C301.827 732.159 304.231 733.083 306.339 734.507C306.583 734.693 306.872 734.32 306.628 734.117C303.124 731.32 298.296 731.723 294.43 729.7C293.506 729.283 292.69 728.661 292.044 727.881C291.398 727.1 290.939 726.182 290.702 725.196C290.527 723.377 290.642 721.542 291.045 719.759C291.34 717.917 291.18 716.03 290.579 714.264C289.872 712.437 288.86 710.744 287.585 709.257C284.768 705.864 281.434 702.935 277.706 700.577C273.469 697.863 268.8 695.893 263.899 694.754C263.596 694.683 263.545 695.166 263.847 695.237L263.858 695.241Z" fill="white"/>
<path d="M284.923 706.651C285.938 705.49 286.508 704.005 286.53 702.462C286.552 700.919 286.026 699.419 285.044 698.228C284.844 697.988 284.462 698.286 284.662 698.527C285.577 699.633 286.067 701.03 286.043 702.466C286.02 703.902 285.484 705.283 284.533 706.358C284.326 706.597 284.718 706.884 284.923 706.651Z" fill="white"/>
<path d="M290.827 718.59C287.683 718.829 284.564 717.873 282.092 715.914C281.848 715.728 281.559 716.1 281.804 716.304C284.379 718.337 287.626 719.325 290.898 719.071C291.209 719.047 291.137 718.565 290.827 718.592V718.59Z" fill="white"/>
<path d="M273.38 698.502C273.08 699.033 272.654 699.482 272.138 699.807C271.623 700.133 271.035 700.325 270.427 700.367C270.116 700.387 270.188 700.867 270.498 700.846C271.169 700.797 271.818 700.585 272.388 700.227C272.958 699.87 273.433 699.378 273.769 698.795C273.805 698.743 273.82 698.678 273.811 698.615C273.801 698.553 273.769 698.495 273.719 698.456C273.668 698.417 273.603 698.401 273.54 698.409C273.476 698.418 273.419 698.452 273.38 698.502V698.502Z" fill="white"/>
<path d="M270.667 494.61C271.968 494.61 273.023 493.555 273.023 492.253C273.023 490.952 271.968 489.896 270.667 489.896C269.365 489.896 268.311 490.952 268.311 492.253C268.311 493.555 269.365 494.61 270.667 494.61Z" fill="#3F3D56"/>
<path d="M241.17 510.399L272.923 490.448C273.21 490.266 273.531 490.145 273.867 490.091C274.202 490.037 274.545 490.052 274.875 490.135C275.204 490.218 275.514 490.367 275.784 490.573C276.055 490.778 276.28 491.037 276.448 491.333C276.615 491.628 276.721 491.955 276.759 492.293C276.797 492.631 276.765 492.973 276.667 493.298C276.569 493.623 276.406 493.925 276.187 494.186C275.969 494.446 275.7 494.659 275.397 494.813L241.967 511.811C241.781 511.912 241.562 511.937 241.358 511.878C241.154 511.82 240.981 511.684 240.877 511.499C240.772 511.315 240.744 511.096 240.799 510.891C240.854 510.686 240.987 510.511 241.17 510.403V510.399Z" fill="#E4E4E4"/>
<path d="M186.922 584.144C232.451 584.144 269.359 578.869 269.359 572.363C269.359 565.856 232.451 560.582 186.922 560.582C141.393 560.582 104.484 565.856 104.484 572.363C104.484 578.869 141.393 584.144 186.922 584.144Z" fill="#3F3D56"/>
<path d="M354.152 645.404H297.622C295.021 645.404 292.912 647.514 292.912 650.116C292.912 652.719 295.021 654.828 297.622 654.828H354.152C356.754 654.828 358.862 652.719 358.862 650.116C358.862 647.514 356.754 645.404 354.152 645.404Z" fill="#3F3D56"/>
<path d="M381.545 561.389L362.875 650.113L367.738 672.82L376.918 715.678V734.941C376.921 734.967 376.921 734.994 376.918 735.02C376.915 735.445 376.836 735.867 376.687 736.265H369.308C369.158 735.867 369.08 735.445 369.076 735.02C369.074 734.994 369.074 734.967 369.076 734.941V716.504L360.744 677.605L359.067 669.751L355.807 654.53L354.865 650.122L355.797 645.703L356.515 642.294L373.882 559.78C374.105 558.769 374.717 557.888 375.586 557.326C376.454 556.765 377.509 556.569 378.522 556.782C379.534 556.994 380.421 557.598 380.991 558.461C381.561 559.325 381.767 560.378 381.565 561.393L381.545 561.389Z" fill="#3F3D56"/>
<path d="M301.551 650.116V734.939C301.553 734.965 301.553 734.992 301.551 735.018C301.547 735.443 301.469 735.865 301.32 736.263H293.938C293.789 735.865 293.71 735.443 293.707 735.018C293.704 734.992 293.704 734.965 293.707 734.939V650.116C293.707 649.075 294.121 648.076 294.857 647.34C295.593 646.603 296.592 646.189 297.633 646.189C298.674 646.189 299.672 646.603 300.408 647.34C301.145 648.076 301.558 649.075 301.558 650.116H301.551Z" fill="#3F3D56"/>
<path d="M307.045 635.979H344.731C348.48 635.979 352.074 637.468 354.725 640.119C357.375 642.771 358.864 646.367 358.864 650.116H292.912C292.912 646.367 294.401 642.771 297.052 640.119C299.702 637.468 303.297 635.979 307.045 635.979V635.979Z" fill="#3F3D56"/>
<path d="M363.573 677.606H297.623C296.582 677.606 295.583 677.192 294.847 676.456C294.111 675.719 293.697 674.72 293.697 673.679C293.697 672.637 294.111 671.639 294.847 670.902C295.583 670.166 296.582 669.752 297.623 669.752H363.573C364.614 669.752 365.613 670.166 366.349 670.902C367.085 671.639 367.499 672.637 367.499 673.679C367.499 674.72 367.085 675.719 366.349 676.456C365.613 677.192 364.614 677.606 363.573 677.606Z" fill="#3F3D56"/>
<path d="M57.5161 654.973H122.611C125.607 654.973 128.035 652.543 128.035 649.547C128.035 646.55 125.607 644.12 122.611 644.12H57.5161C54.5204 644.12 52.0919 646.55 52.0919 649.547C52.0919 652.543 54.5204 654.973 57.5161 654.973Z" fill="#3F3D56"/>
<path d="M56.1192 649.607L54.915 654.571L50.4973 672.749L48.5923 680.603L39.7458 717.035V732.841C39.7479 733.615 39.518 734.372 39.0859 735.014C38.7459 735.533 38.2838 735.96 37.74 736.259H33.8983C33.3546 735.96 32.8925 735.533 32.5525 735.014C32.1205 734.372 31.8906 733.615 31.8927 732.841V716.091L41.7234 675.617L48.0611 649.478L26.5486 547.247C26.4427 546.743 26.4372 546.223 26.5323 545.716C26.6274 545.21 26.8213 544.727 27.1029 544.295C27.3845 543.864 27.7484 543.492 28.1736 543.201C28.5988 542.91 29.0772 542.706 29.5813 542.6C30.0855 542.494 30.6055 542.489 31.1118 542.584C31.618 542.679 32.1006 542.873 32.532 543.155C32.9633 543.437 33.3349 543.801 33.6257 544.226C33.9164 544.651 34.1206 545.13 34.2264 545.634L54.1116 640.107L55.0269 644.463L56.0949 649.542L56.1192 649.607Z" fill="#3F3D56"/>
<path d="M126.541 649.546V732.846C126.543 733.619 126.313 734.376 125.881 735.018C125.541 735.537 125.079 735.965 124.535 736.264H120.688C120.147 735.963 119.687 735.536 119.347 735.018C118.915 734.376 118.685 733.619 118.688 732.846V649.546C118.688 648.505 119.101 647.506 119.837 646.769C120.573 646.033 121.572 645.619 122.613 645.619C123.654 645.619 124.653 646.033 125.389 646.769C126.125 647.506 126.539 648.505 126.539 649.546H126.541Z" fill="#3F3D56"/>
<path d="M128.035 649.546H52.0919V647.403C52.0924 643.654 53.5816 640.059 56.2319 637.408C58.8823 634.757 62.4768 633.268 66.2247 633.268H113.902C117.65 633.268 121.245 634.757 123.895 637.408C126.545 640.059 128.035 643.654 128.035 647.403V649.546Z" fill="#3F3D56"/>
<path d="M122.613 680.604H46.6698C45.6286 680.604 44.6301 680.19 43.894 679.454C43.1578 678.717 42.7441 677.718 42.7441 676.677C42.7441 675.636 43.1578 674.637 43.894 673.9C44.6301 673.164 45.6286 672.75 46.6698 672.75H122.613C123.654 672.75 124.653 673.164 125.389 673.9C126.125 674.637 126.539 675.636 126.539 676.677C126.539 677.718 126.125 678.717 125.389 679.454C124.653 680.19 123.654 680.604 122.613 680.604Z" fill="#3F3D56"/>
<path d="M220.211 714.859L211.961 710.912L223.294 676.416L235.472 682.241L220.211 714.859Z" fill="#9E616A"/>
<path d="M276.127 711.734L267.254 713.923L254.393 679.97L267.487 676.738L276.127 711.734Z" fill="#9E616A"/>
<path d="M242.121 564.909C243.298 566.821 245.175 568.197 247.352 568.743C249.529 569.29 251.833 568.963 253.773 567.833C254.163 567.597 254.533 567.329 254.878 567.031L280.963 582.006L279.83 566.634L255.225 554.771C253.886 553.427 252.139 552.565 250.258 552.32C248.377 552.075 246.468 552.461 244.829 553.417C243.886 553.984 243.066 554.733 242.417 555.622C241.768 556.51 241.303 557.52 241.05 558.59C240.796 559.661 240.76 560.772 240.942 561.857C241.125 562.942 241.522 563.98 242.112 564.909H242.121Z" fill="#9E616A"/>
<path d="M269.75 576.367L274.362 579.179L295.071 591.812C296.431 592.663 297.946 593.238 299.528 593.503C301.11 593.768 302.73 593.719 304.293 593.358C305.857 592.997 307.334 592.331 308.64 591.399C309.946 590.466 311.055 589.285 311.904 587.924C313.438 585.397 313.981 582.39 313.427 579.486L304.223 533.487C303.883 531.681 303.157 529.97 302.095 528.471C301.033 526.972 299.66 525.72 298.069 524.8C296.479 523.881 294.709 523.315 292.88 523.143C291.051 522.971 289.207 523.196 287.473 523.802C284.558 524.827 282.144 526.923 280.72 529.666C279.296 532.408 278.97 535.59 279.808 538.565L289.432 571.209L274.68 564.328L269.75 576.367Z" fill="#E7D5B8"/>
<path d="M258.849 702.22L244.652 673.738V673.673L246.054 621.431C246.071 620.966 246.108 620.498 246.166 620.04C246.414 617.945 247.076 615.921 248.114 614.085C249.152 612.249 250.544 610.638 252.211 609.346C253.806 608.095 255.635 607.174 257.589 606.638C259.544 606.101 261.586 605.959 263.596 606.221L304.192 611.475L305.6 605.717L305.863 605.622L344.761 591.361L344.984 591.734C350.079 600.026 353.639 616.59 354.61 621.468L354.623 621.539C354.644 621.641 354.657 621.705 354.66 621.725C356.662 630.051 348.388 643.842 340.147 645.915C322.786 650.342 307.259 646.889 289.278 642.891C282.831 641.457 276.169 639.975 268.829 638.692L269.047 643.012C269.226 646.338 269.918 649.616 271.097 652.731C272.01 654.803 272.495 657.038 272.522 659.302C272.549 661.567 272.117 663.813 271.254 665.906L270.197 668.961C270.745 670.477 270.934 672.1 270.748 673.702C270.563 675.303 270.007 676.84 269.127 678.191L268.914 678.515L278.277 702.215L258.849 702.22Z" fill="#1B1A18"/>
<path d="M235.521 689.622L218.59 688.049L224.594 668.86C225.832 656.33 228.95 644.059 233.845 632.46L242.026 613.067C242.045 612.637 242.082 612.202 242.134 611.775C242.381 609.681 243.043 607.658 244.08 605.822C245.116 603.986 246.508 602.376 248.174 601.083C249.77 599.835 251.599 598.917 253.554 598.383C255.508 597.848 257.549 597.708 259.559 597.969L300.095 603.216L301.861 588.392L340.768 583.185L340.954 583.475C346.515 592.014 351.073 601.164 354.541 610.746C354.666 611.13 354.776 611.522 354.869 611.913C355.856 615.912 355.233 620.138 353.134 623.681C351.036 627.225 347.63 629.801 343.65 630.856C322.747 636.187 297.609 636.04 264.564 630.388L248.569 668.464C247.04 672.101 245.147 675.574 242.919 678.83L235.521 689.622Z" fill="#1B1A18"/>
<path d="M294.574 497.402C305.405 497.402 314.185 488.423 314.185 477.347C314.185 466.272 305.405 457.293 294.574 457.293C283.743 457.293 274.963 466.272 274.963 477.347C274.963 488.423 283.743 497.402 294.574 497.402Z" fill="#9E616A"/>
<path d="M300.235 603.914L297.42 593.83L296.729 588.855L292.684 588.989L284.747 570.662L281.664 565.829C281.035 565.166 280.465 564.53 279.955 563.919C276.743 560.287 274.167 556.138 272.336 551.648C271.052 548.422 270.296 545.009 270.1 541.542C269.524 531.301 273.839 520.471 283.293 508.422C283.138 507.995 283.035 507.552 282.986 507.101C282.818 505.639 283.235 504.169 284.144 503.011C285.053 501.853 286.381 501.101 287.841 500.916L296.958 499.893C297.667 499.812 298.385 499.874 299.07 500.073C299.755 500.273 300.394 500.607 300.949 501.056C301.528 501.52 302.009 502.095 302.364 502.747C302.719 503.4 302.941 504.116 303.016 504.855C303.138 505.997 302.913 507.15 302.371 508.162C307.019 508.753 311.397 510.671 314.982 513.689C318.567 516.706 321.205 520.694 322.581 525.174C328.036 535.362 332.384 546.106 335.55 557.221C336.023 559.39 336.049 561.632 335.629 563.811C335.264 565.84 335.24 567.916 335.556 569.953C336.153 572.2 337.03 574.363 338.166 576.392C339.574 578.844 340.575 581.508 341.129 584.281L341.154 584.468L300.235 603.914Z" fill="#E7D5B8"/>
<path opacity="0.2" d="M272.584 551.55C274.409 556.015 276.973 560.14 280.169 563.752C280.715 564.405 281.287 565.048 281.898 565.689L285 570.558C296.436 561.981 305.702 528.23 305.702 528.23L292.799 525.719L272.584 551.55Z" fill="black"/>
<path d="M264.772 499.277C265.902 501.218 266.23 503.524 265.686 505.704C265.142 507.884 263.77 509.765 261.861 510.948C261.468 511.182 261.058 511.384 260.632 511.55L261.546 541.623L248.527 533.419L249.655 506.118C249.101 504.301 249.164 502.352 249.834 500.575C250.504 498.797 251.744 497.292 253.359 496.293C254.3 495.725 255.346 495.35 256.434 495.193C257.522 495.035 258.631 495.097 259.694 495.375C260.758 495.653 261.755 496.142 262.627 496.812C263.499 497.482 264.228 498.32 264.77 499.277H264.772Z" fill="#9E616A"/>
<path d="M262.689 530.27L248.373 532.306L248.988 561.964C249.024 564.079 249.6 566.15 250.661 567.981C251.722 569.811 253.234 571.339 255.052 572.421V572.421C257.273 573.728 259.859 574.278 262.42 573.987C264.981 573.696 267.378 572.58 269.25 570.808L303.05 538.286C305.428 536.03 306.852 532.947 307.028 529.673C307.203 526.398 306.118 523.181 303.995 520.682V520.682C302.944 519.438 301.655 518.418 300.202 517.682C298.75 516.946 297.165 516.509 295.541 516.398C293.917 516.286 292.286 516.503 290.747 517.034C289.208 517.565 287.792 518.399 286.581 519.489C286.247 519.788 285.929 520.105 285.629 520.438L263.311 546.122L262.689 530.27Z" fill="#E7D5B8"/>
<path d="M142.945 723.718H153.106L157.939 684.51H142.945V723.718Z" fill="#FFB6B6"/>
<path d="M85.3506 497.987C96.5522 497.987 105.633 488.903 105.633 477.697C105.633 466.492 96.5522 457.408 85.3506 457.408C74.149 457.408 65.0684 466.492 65.0684 477.697C65.0684 488.903 74.149 497.987 85.3506 497.987Z" fill="#FFB6B6"/>
<path d="M156.427 711.639H142.037L138.359 706.718L137.366 702.084L136.51 701.256C135.351 700.143 134.602 698.671 134.384 697.078C134.165 695.486 134.491 693.866 135.308 692.481L124.879 643.814C122.148 643.574 91.3437 640.819 69.9318 637.029C67.3831 636.65 64.9392 635.752 62.7518 634.39C60.5643 633.028 58.68 631.23 57.2156 629.11C49.946 618.58 53.0607 601.543 53.0924 601.371L53.1278 601.185L53.3142 601.162L103.329 595.546L103.396 595.578C105.055 596.364 144.119 614.914 150.502 621.31C153.383 624.192 159.822 641.325 161.255 659.535C161.304 662.867 160.773 666.183 159.687 669.334C158.693 672.25 158.174 675.307 158.151 678.388C158.416 682.923 158.668 687.682 158.897 692.528C159.073 693.401 159.482 694.211 160.079 694.872C160.685 695.536 161.093 696.356 161.257 697.24C161.224 702.395 159.555 707.406 156.491 711.551L156.427 711.639Z" fill="#1B1A18"/>
<path d="M159.706 531.735C158.616 531.438 157.475 531.382 156.361 531.573C155.248 531.764 154.191 532.197 153.263 532.842C152.335 533.486 151.559 534.326 150.991 535.302C150.423 536.279 150.076 537.368 149.974 538.493L133.121 543.762L133.824 554.788L157.517 547.012C159.419 547.06 161.272 546.407 162.725 545.178C164.177 543.949 165.128 542.23 165.398 540.346C165.668 538.462 165.237 536.545 164.187 534.958C163.138 533.371 161.542 532.224 159.704 531.735H159.706Z" fill="#FFB6B6"/>
<path d="M82.4688 496.902C79.894 497.477 77.2184 497.422 74.6697 496.74C72.121 496.058 69.7748 494.77 67.8308 492.986C63.9694 489.363 61.2365 484.701 59.9609 479.561C58.6461 475.9 58.6845 471.889 60.069 468.254C61.7205 464.772 66.1625 462.423 69.5885 464.181C67.4747 461.716 68.5297 457.642 70.9995 455.533C73.6546 453.628 76.8219 452.567 80.0884 452.49C84.7653 451.814 89.5328 452.15 94.0685 453.476C96.3296 454.16 98.4013 455.36 100.12 456.98C101.84 458.601 103.159 460.599 103.976 462.816C105.401 463.48 107.006 463.652 108.54 463.305C110.074 462.959 111.449 462.113 112.451 460.901C112.71 462.293 112.503 463.731 111.863 464.993C111.223 466.255 110.185 467.272 108.91 467.884L115.743 465.667C116.917 468.157 114.86 471.235 112.226 472.031C109.507 472.598 106.675 472.163 104.252 470.806C101.851 469.452 99.2813 468.424 96.6091 467.75C95.2657 467.439 93.8589 467.547 92.5789 468.06C91.2989 468.574 90.2073 469.468 89.4513 470.622C88.9521 471.973 88.5923 473.372 88.3776 474.797C88.0048 476.186 87.0281 477.627 85.5928 477.741C84.6851 477.814 83.7959 477.329 82.8919 477.428C82.3364 477.537 81.8249 477.806 81.4199 478.202C81.015 478.598 80.7343 479.103 80.6122 479.656C80.3905 480.764 80.3905 481.905 80.6122 483.012L82.3476 496.285" fill="#2F2E41"/>
<path d="M137.482 719.765H140.785L153.684 714.518L160.598 719.765C164.503 719.765 168.249 721.317 171.011 724.079C173.772 726.842 175.324 730.589 175.324 734.495V734.975H137.484L137.482 719.765Z" fill="#1B1A18"/>
<path d="M163.929 557.113C162.955 556.541 161.868 556.19 160.743 556.084C159.618 555.978 158.484 556.12 157.42 556.5C156.357 556.88 155.389 557.488 154.586 558.283C153.783 559.077 153.163 560.038 152.771 561.098L135.131 561.786L132.754 570.007L157.834 571.292C159.655 571.828 161.61 571.677 163.328 570.87C165.046 570.062 166.409 568.653 167.159 566.908C167.91 565.164 167.995 563.205 167.4 561.402C166.805 559.598 165.57 558.075 163.929 557.121V557.113Z" fill="#FFB6B6"/>
<path d="M177.472 553.371C177.222 552.999 177.092 552.56 177.098 552.111C177.104 551.663 177.247 551.228 177.508 550.863C178.045 550.143 178.761 549.576 179.584 549.216C181.284 548.352 183.114 547.773 185.001 547.505C186.456 547.49 187.878 547.076 189.113 546.308C190.218 545.385 190.835 543.662 192.267 543.511C193.652 543.371 194.716 544.887 196.105 544.982C197.816 545.097 198.936 543.095 200.601 542.683C201.749 542.538 202.912 542.779 203.908 543.367L210.182 546.214L213.397 547.674C214.516 548.183 215.787 548.871 216.007 550.085C216.298 551.764 214.441 552.935 212.853 553.528C201.515 557.712 189.056 557.712 177.718 553.528" fill="#F0A500"/>
<path d="M148.708 549.981L136.113 554.749L135.791 555.373C135.018 556.872 133.683 558.002 132.077 558.515C130.472 559.029 128.729 558.883 127.231 558.111V558.111L98.9243 568.827C98.9243 568.827 86.2825 556.172 77.2812 544.877L80.3495 526.003C81.06 521.624 82.5702 517.413 84.8044 513.581C103.258 517.629 113.859 543.443 113.859 543.443L147.126 537.094L148.708 549.981Z" fill="#F0A500"/>
<path d="M57.3428 631.526H57.3316L57.1713 631.498L57.1247 631.341C56.5413 629.38 55.7994 627.372 55.0743 625.429C54.0178 622.739 53.1259 619.987 52.4032 617.189C51.834 614.514 51.4392 611.804 51.2214 609.078C51.022 607.097 50.8151 605.052 50.4628 603.036C50.4568 602.084 50.8181 601.166 51.4712 600.474C52.0286 599.889 52.3591 599.125 52.4032 598.319C52.0707 597.454 51.5102 596.695 50.7815 596.124C49.951 595.479 49.3319 594.6 49.0033 593.601C47.3774 581.6 46.6205 569.497 46.7385 557.388C46.9063 540.632 47.6705 529.211 48.9884 523.451C52.5505 507.939 69.0077 505.106 71.5838 504.758C71.8586 504.027 72.2808 503.361 72.8241 502.801C73.3673 502.24 74.0199 501.798 74.7414 501.5C75.4629 501.203 76.2379 501.057 77.0181 501.072C77.7983 501.087 78.5671 501.263 79.2766 501.588L90.9694 506.943C93.3415 508.033 95.4641 509.6 97.2053 511.545C98.9465 513.491 100.269 515.774 101.091 518.252L102.828 523.55L103.708 559.101L98.8859 584.143L108.307 598.281C58.0903 625.857 57.505 631.526 57.3428 631.526Z" fill="#F0A500"/>
<path d="M149.434 572.176L131.312 571.951L129.017 571.919L92.1474 571.455C92.1474 571.455 82.1358 561.9 73.416 552.062L74.6388 543.22C75.8328 534.542 80.1387 526.593 86.7548 520.854C99.2437 529.2 106.483 545.72 106.483 545.72L118.626 551.156C127.17 551.538 135.496 553.977 142.897 558.266L146.889 560.58L149.434 572.176Z" fill="#F0A500"/>
<path d="M282.6 728.453L276.57 729.944L274.089 724.516L272.738 730.892L256.745 734.839C255.978 735.029 255.171 734.969 254.441 734.667C253.711 734.365 253.096 733.838 252.687 733.162C252.278 732.486 252.096 731.697 252.167 730.91C252.239 730.123 252.56 729.38 253.084 728.788L263.679 716.812L262.259 711.054L275.89 708.54L282.6 728.453Z" fill="#1B1A18"/>
<path d="M218.722 730.321L212.972 727.973L214.161 722.124L209.314 726.482L194.063 720.254C193.332 719.956 192.715 719.431 192.302 718.758C191.89 718.084 191.704 717.296 191.771 716.509C191.839 715.722 192.156 714.977 192.676 714.383C193.197 713.789 193.894 713.377 194.665 713.207L210.276 709.767L212.513 704.277L225.002 710.272L218.722 730.321Z" fill="#1B1A18"/>
<path d="M198.695 570.268H193.985C188.92 570.262 184.064 568.247 180.483 564.664C176.901 561.082 174.887 556.224 174.881 551.158V550.896H217.807V551.158C217.801 556.226 215.785 561.084 212.202 564.667C208.619 568.25 203.762 570.264 198.695 570.268V570.268Z" fill="#E4E4E4"/>
<path d="M193.988 544.09C193.988 545.396 191.632 546.447 191.632 546.447C191.632 546.447 189.275 545.392 189.275 544.09C189.275 542.789 191.632 541.733 191.632 541.733C191.632 541.733 193.988 542.785 193.988 544.09Z" fill="#3F3D56"/>
<path d="M208.12 544.09C208.12 545.396 205.764 546.447 205.764 546.447C205.764 546.447 203.408 545.392 203.408 544.09C203.408 542.789 205.764 541.733 205.764 541.733C205.764 541.733 208.12 542.785 208.12 544.09Z" fill="#3F3D56"/>
<path d="M198.701 548.802C198.701 550.108 196.344 551.159 196.344 551.159C196.344 551.159 193.988 550.104 193.988 548.802C193.988 547.501 196.344 546.445 196.344 546.445C196.344 546.445 198.701 547.497 198.701 548.802Z" fill="#3F3D56"/>
<path d="M182.212 539.116C183.513 539.116 184.568 538.061 184.568 536.759C184.568 535.458 183.513 534.402 182.212 534.402C180.91 534.402 179.855 535.458 179.855 536.759C179.855 538.061 180.91 539.116 182.212 539.116Z" fill="#3F3D56"/>
<path d="M147.955 531.692L185.103 536.823C185.44 536.868 185.765 536.981 186.057 537.156C186.349 537.33 186.603 537.562 186.803 537.837C187.003 538.113 187.145 538.426 187.22 538.758C187.296 539.09 187.302 539.434 187.241 539.769C187.179 540.103 187.05 540.422 186.861 540.705C186.673 540.989 186.428 541.231 186.143 541.417C185.858 541.603 185.538 541.729 185.203 541.787C184.868 541.846 184.524 541.836 184.193 541.757L147.659 533.282C147.455 533.236 147.276 533.113 147.161 532.939C147.046 532.764 147.003 532.552 147.041 532.346C147.079 532.141 147.195 531.958 147.364 531.836C147.534 531.714 147.744 531.662 147.951 531.692H147.955Z" fill="#E4E4E4"/>
<path d="M193.094 414.604C193.094 386.958 193.094 326.032 193.094 298.386H188.384V414.604C181.947 415.191 175.963 418.164 171.605 422.939C167.248 427.714 164.831 433.945 164.83 440.41V447.479H181.317C181.317 449.979 182.31 452.376 184.077 454.144C185.844 455.911 188.24 456.904 190.739 456.904C193.238 456.904 195.634 455.911 197.401 454.144C199.168 452.376 200.16 449.979 200.16 447.479H216.648V440.41C216.647 433.946 214.23 427.715 209.873 422.94C205.517 418.166 199.533 415.192 193.098 414.604H193.094Z" fill="white"/>
<path d="M253.746 396.91L242.512 299.836H239.131L250.204 396.91C245.377 397.351 240.889 399.58 237.62 403.161C234.352 406.743 232.539 411.416 232.539 416.265V421.567H244.905C244.905 423.441 245.649 425.239 246.975 426.565C248.3 427.891 250.097 428.635 251.971 428.635C253.845 428.635 255.643 427.891 256.968 426.565C258.293 425.239 259.038 423.441 259.038 421.567H271.404V416.265C271.403 411.417 269.591 406.743 266.323 403.162C263.055 399.581 258.567 397.351 253.74 396.91H253.746Z" fill="white"/>
<path d="M134.406 396.91L157.164 292.587H153.622L130.864 396.91C126.037 397.351 121.549 399.58 118.28 403.161C115.012 406.742 113.2 411.416 113.199 416.265V421.566H125.565C125.565 423.441 126.31 425.239 127.635 426.565C128.96 427.891 130.757 428.635 132.631 428.635C134.506 428.635 136.303 427.891 137.628 426.565C138.953 425.239 139.698 423.441 139.698 421.566H152.064V416.265C152.063 411.416 150.251 406.743 146.983 403.162C143.715 399.581 139.227 397.351 134.4 396.91H134.406Z" fill="white"/>
<path d="M347.053 468.651C343.72 464.763 342.134 459.603 339.47 455.186C336.806 450.769 332.167 446.818 327.268 447.845C325.575 448.338 324.027 449.234 322.754 450.455C321.482 451.676 320.523 453.186 319.959 454.858C318.811 458.269 318.204 461.839 318.159 465.438C318.173 461.794 317.084 458.231 315.037 455.217C312.989 452.204 310.078 449.88 306.686 448.552C303.283 447.45 299.619 447.456 296.22 448.57C292.822 449.685 289.864 451.849 287.774 454.752C285.938 453.049 283.542 452.08 281.039 452.028C278.537 451.975 276.102 452.843 274.196 454.466C272.348 456.258 271.162 458.623 270.83 461.176C270.498 463.729 271.04 466.319 272.368 468.524C273.757 470.612 275.86 472.12 278.283 472.766C280.705 473.412 283.28 473.152 285.524 472.033L287.078 473.463C286.676 474.993 286.823 476.615 287.494 478.046C288.166 479.478 289.319 480.628 290.752 481.295C293.066 482.227 296.331 482.074 297.196 484.502C297.358 485.386 297.284 486.296 296.98 487.141C296.677 487.987 296.155 488.737 295.468 489.315C294.075 490.451 293.099 492.018 292.693 493.77C292.475 496.492 295.287 498.399 297.843 498.974C300.977 499.601 304.227 499.278 307.177 498.046C310.127 496.815 312.642 494.731 314.401 492.061C314.469 491.957 314.544 491.852 314.625 491.746C316.618 489.196 318.071 486.266 318.894 483.136C319.718 480.005 319.894 476.739 319.413 473.538C319.214 472.279 319.413 471.345 320.282 471.047C324.029 469.76 334.527 472.462 337.705 474.903C340.883 477.344 343.427 480.577 346.486 483.176C349.545 485.776 353.446 487.782 357.333 487.074C358.897 486.699 360.37 486.014 361.665 485.061C362.96 484.107 364.051 482.903 364.873 481.521C366.553 478.699 367.81 475.646 368.601 472.458C365.11 474.364 361.075 475.025 357.159 474.333C353.244 473.641 349.68 471.637 347.053 468.651V468.651Z" fill="#2F2E41"/>
</g>
<defs>
<filter id="filter0_d_327_169" x="45" y="44" width="81" height="81" filterUnits="userSpaceOnUse" color-interpolation-filters="sRGB">
<feFlood flood-opacity="0" result="BackgroundImageFix"/>
<feColorMatrix in="SourceAlpha" type="matrix" values="0 0 0 0 0 0 0 0 0 0 0 0 0 0 0 0 0 0 127 0" result="hardAlpha"/>
<feOffset/>
<feGaussianBlur stdDeviation="2"/>
<feComposite in2="hardAlpha" operator="out"/>
<feColorMatrix type="matrix" values="0 0 0 0 1 0 0 0 0 1 0 0 0 0 1 0 0 0 0.5 0"/>
<feBlend mode="normal" in2="BackgroundImageFix" result="effect1_dropShadow_327_169"/>
<feBlend mode="normal" in="SourceGraphic" in2="effect1_dropShadow_327_169" result="shape"/>
</filter>
<clipPath id="clip0_327_169">
<rect width="400" height="850" fill="white"/>
</clipPath>
<clipPath id="clip1_327_169">
<rect width="34.7826" height="40.5937" fill="white" transform="translate(69 65)"/>
</clipPath>
</defs>
</svg>
