<svg width="342" height="66" viewBox="0 0 342 66" fill="none" xmlns="http://www.w3.org/2000/svg">
<path d="M292.435 61V52.498H295.113C295.746 52.498 296.309 52.5803 296.803 52.745C297.297 52.9097 297.687 53.1827 297.973 53.564C298.259 53.9453 298.402 54.4653 298.402 55.124C298.402 55.748 298.259 56.2637 297.973 56.671C297.687 57.0783 297.302 57.3817 296.816 57.581C296.331 57.7803 295.781 57.88 295.165 57.88H293.943V61H292.435ZM293.943 56.671H295.048C296.296 56.671 296.92 56.1553 296.92 55.124C296.92 54.5867 296.756 54.2183 296.426 54.019C296.106 53.811 295.629 53.707 294.996 53.707H293.943V56.671ZM299.872 61V51.822H301.367V54.188L301.315 55.423C301.584 55.1717 301.883 54.9507 302.212 54.76C302.541 54.5607 302.923 54.461 303.356 54.461C304.041 54.461 304.539 54.682 304.851 55.124C305.163 55.566 305.319 56.19 305.319 56.996V61H303.824V57.191C303.824 56.6623 303.746 56.2897 303.59 56.073C303.434 55.8563 303.178 55.748 302.823 55.748C302.546 55.748 302.299 55.8173 302.082 55.956C301.874 56.086 301.636 56.281 301.367 56.541V61H299.872ZM309.734 61.156C309.205 61.156 308.711 61.026 308.252 60.766C307.793 60.4973 307.42 60.116 307.134 59.622C306.848 59.1193 306.705 58.517 306.705 57.815C306.705 57.1043 306.848 56.502 307.134 56.008C307.42 55.5053 307.793 55.124 308.252 54.864C308.711 54.5953 309.205 54.461 309.734 54.461C310.271 54.461 310.77 54.5953 311.229 54.864C311.688 55.124 312.061 55.5053 312.347 56.008C312.633 56.502 312.776 57.1043 312.776 57.815C312.776 58.517 312.633 59.1193 312.347 59.622C312.061 60.116 311.688 60.4973 311.229 60.766C310.77 61.026 310.271 61.156 309.734 61.156ZM309.734 59.934C310.202 59.934 310.57 59.739 310.839 59.349C311.108 58.959 311.242 58.4477 311.242 57.815C311.242 57.1737 311.108 56.658 310.839 56.268C310.57 55.878 310.202 55.683 309.734 55.683C309.266 55.683 308.898 55.878 308.629 56.268C308.369 56.658 308.239 57.1737 308.239 57.815C308.239 58.4477 308.369 58.959 308.629 59.349C308.898 59.739 309.266 59.934 309.734 59.934ZM316.213 61.156C315.476 61.156 314.952 60.9437 314.64 60.519C314.336 60.0857 314.185 59.5267 314.185 58.842V55.8H313.275V54.682L314.263 54.617L314.445 52.875H315.693V54.617H317.318V55.8H315.693V58.842C315.693 59.5873 315.992 59.96 316.59 59.96C316.702 59.96 316.819 59.947 316.941 59.921C317.062 59.8863 317.166 59.8517 317.253 59.817L317.513 60.922C317.339 60.9827 317.14 61.0347 316.915 61.078C316.698 61.13 316.464 61.156 316.213 61.156ZM321.071 61.156C320.542 61.156 320.048 61.026 319.589 60.766C319.129 60.4973 318.757 60.116 318.471 59.622C318.185 59.1193 318.042 58.517 318.042 57.815C318.042 57.1043 318.185 56.502 318.471 56.008C318.757 55.5053 319.129 55.124 319.589 54.864C320.048 54.5953 320.542 54.461 321.071 54.461C321.608 54.461 322.106 54.5953 322.566 54.864C323.025 55.124 323.398 55.5053 323.684 56.008C323.97 56.502 324.113 57.1043 324.113 57.815C324.113 58.517 323.97 59.1193 323.684 59.622C323.398 60.116 323.025 60.4973 322.566 60.766C322.106 61.026 321.608 61.156 321.071 61.156ZM321.071 59.934C321.539 59.934 321.907 59.739 322.176 59.349C322.444 58.959 322.579 58.4477 322.579 57.815C322.579 57.1737 322.444 56.658 322.176 56.268C321.907 55.878 321.539 55.683 321.071 55.683C320.603 55.683 320.234 55.878 319.966 56.268C319.706 56.658 319.576 57.1737 319.576 57.815C319.576 58.4477 319.706 58.959 319.966 59.349C320.234 59.739 320.603 59.934 321.071 59.934Z" fill="black" fill-opacity="0.67"/>
<path d="M24.5689 61V52.524H26.4799V61H24.5689ZM28.323 61V54.552H29.883L30.013 55.371H30.065C30.3424 55.111 30.6457 54.8857 30.975 54.695C31.313 54.4957 31.6987 54.396 32.132 54.396C32.834 54.396 33.341 54.63 33.653 55.098C33.9737 55.5573 34.134 56.19 34.134 56.996V61H32.223V57.243C32.223 56.775 32.158 56.4543 32.028 56.281C31.9067 56.1077 31.7074 56.021 31.43 56.021C31.1874 56.021 30.9794 56.0773 30.806 56.19C30.6327 56.294 30.442 56.4457 30.234 56.645V61H28.323ZM36.0875 61V56.047H35.2295V54.63L36.0875 54.565V54.214C36.0875 53.7547 36.1655 53.3387 36.3215 52.966C36.4775 52.5933 36.7288 52.2943 37.0755 52.069C37.4221 51.8437 37.8858 51.731 38.4665 51.731C38.7351 51.731 38.9821 51.757 39.2075 51.809C39.4328 51.861 39.6148 51.913 39.7535 51.965L39.4025 53.369C39.2898 53.3257 39.1771 53.2953 39.0645 53.278C38.9518 53.252 38.8435 53.239 38.7395 53.239C38.5055 53.239 38.3235 53.3127 38.1935 53.46C38.0635 53.5987 37.9985 53.8327 37.9985 54.162V54.552H39.1555V56.047H37.9985V61H36.0875ZM42.8352 61.156C42.2892 61.156 41.7735 61.026 41.2882 60.766C40.8115 60.4973 40.4259 60.1117 40.1312 59.609C39.8365 59.0977 39.6892 58.4867 39.6892 57.776C39.6892 57.0567 39.8365 56.4457 40.1312 55.943C40.4259 55.4403 40.8115 55.059 41.2882 54.799C41.7735 54.5303 42.2892 54.396 42.8352 54.396C43.3812 54.396 43.8925 54.5303 44.3692 54.799C44.8459 55.059 45.2315 55.4403 45.5262 55.943C45.8209 56.4457 45.9682 57.0567 45.9682 57.776C45.9682 58.4867 45.8209 59.0977 45.5262 59.609C45.2315 60.1117 44.8459 60.4973 44.3692 60.766C43.8925 61.026 43.3812 61.156 42.8352 61.156ZM42.8352 59.609C43.2252 59.609 43.5199 59.4443 43.7192 59.115C43.9185 58.777 44.0182 58.3307 44.0182 57.776C44.0182 57.2127 43.9185 56.7663 43.7192 56.437C43.5199 56.1077 43.2252 55.943 42.8352 55.943C42.4365 55.943 42.1375 56.1077 41.9382 56.437C41.7475 56.7663 41.6522 57.2127 41.6522 57.776C41.6522 58.3307 41.7475 58.777 41.9382 59.115C42.1375 59.4443 42.4365 59.609 42.8352 59.609Z" fill="#FF7A00"/>
<path d="M115.677 61V54.136H113.35V52.524H119.928V54.136H117.601V61H115.677ZM121.881 61.156C121.292 61.156 120.824 60.9697 120.477 60.597C120.13 60.2157 119.957 59.752 119.957 59.206C119.957 58.53 120.243 58.0013 120.815 57.62C121.387 57.2387 122.31 56.983 123.584 56.853C123.567 56.567 123.48 56.3417 123.324 56.177C123.177 56.0037 122.925 55.917 122.57 55.917C122.301 55.917 122.028 55.969 121.751 56.073C121.474 56.177 121.179 56.32 120.867 56.502L120.178 55.241C120.585 54.9897 121.019 54.786 121.478 54.63C121.946 54.474 122.431 54.396 122.934 54.396C123.757 54.396 124.39 54.6343 124.832 55.111C125.274 55.5877 125.495 56.32 125.495 57.308V61H123.935L123.805 60.337H123.753C123.484 60.5797 123.194 60.779 122.882 60.935C122.579 61.0823 122.245 61.156 121.881 61.156ZM122.531 59.674C122.748 59.674 122.934 59.6263 123.09 59.531C123.255 59.427 123.419 59.2927 123.584 59.128V57.997C122.908 58.0837 122.44 58.2223 122.18 58.413C121.92 58.595 121.79 58.8117 121.79 59.063C121.79 59.271 121.855 59.427 121.985 59.531C122.124 59.6263 122.306 59.674 122.531 59.674ZM129.413 63.743C128.91 63.743 128.455 63.6867 128.048 63.574C127.64 63.4613 127.315 63.2837 127.073 63.041C126.83 62.7983 126.709 62.4863 126.709 62.105C126.709 61.585 127.016 61.1517 127.632 60.805V60.753C127.467 60.6403 127.324 60.4973 127.203 60.324C127.09 60.1507 127.034 59.9297 127.034 59.661C127.034 59.427 127.103 59.2017 127.242 58.985C127.38 58.7683 127.554 58.5907 127.762 58.452V58.4C127.536 58.244 127.333 58.0187 127.151 57.724C126.977 57.4293 126.891 57.0957 126.891 56.723C126.891 56.203 127.016 55.774 127.268 55.436C127.519 55.0893 127.848 54.8293 128.256 54.656C128.663 54.4827 129.096 54.396 129.556 54.396C129.937 54.396 130.271 54.448 130.557 54.552H132.91V55.943H131.883C131.943 56.0383 131.991 56.1597 132.026 56.307C132.069 56.4543 132.091 56.6147 132.091 56.788C132.091 57.282 131.978 57.6893 131.753 58.01C131.527 58.3307 131.224 58.569 130.843 58.725C130.461 58.881 130.032 58.959 129.556 58.959C129.304 58.959 129.044 58.9157 128.776 58.829C128.62 58.959 128.542 59.1193 128.542 59.31C128.542 59.4747 128.615 59.596 128.763 59.674C128.91 59.752 129.161 59.791 129.517 59.791H130.557C131.354 59.791 131.961 59.921 132.377 60.181C132.801 60.4323 133.014 60.8483 133.014 61.429C133.014 61.871 132.866 62.2653 132.572 62.612C132.277 62.9673 131.861 63.2447 131.324 63.444C130.786 63.6433 130.149 63.743 129.413 63.743ZM129.556 57.802C129.807 57.802 130.015 57.711 130.18 57.529C130.353 57.347 130.44 57.0783 130.44 56.723C130.44 56.385 130.353 56.1293 130.18 55.956C130.015 55.774 129.807 55.683 129.556 55.683C129.304 55.683 129.092 55.7697 128.919 55.943C128.754 56.1163 128.672 56.3763 128.672 56.723C128.672 57.0783 128.754 57.347 128.919 57.529C129.092 57.711 129.304 57.802 129.556 57.802ZM129.712 62.547C130.145 62.547 130.5 62.469 130.778 62.313C131.055 62.157 131.194 61.9707 131.194 61.754C131.194 61.5547 131.107 61.4203 130.934 61.351C130.769 61.2817 130.526 61.247 130.206 61.247H129.543C129.326 61.247 129.144 61.2383 128.997 61.221C128.858 61.2123 128.737 61.195 128.633 61.169C128.399 61.377 128.282 61.5893 128.282 61.806C128.282 62.0487 128.412 62.2307 128.672 62.352C128.94 62.482 129.287 62.547 129.712 62.547ZM135.954 61.156C135.529 61.156 135.092 61.0737 134.641 60.909C134.199 60.7443 133.813 60.5277 133.484 60.259L134.342 59.063C134.637 59.2797 134.918 59.4487 135.187 59.57C135.464 59.6827 135.737 59.739 136.006 59.739C136.292 59.739 136.5 59.6913 136.63 59.596C136.76 59.492 136.825 59.3577 136.825 59.193C136.825 59.0457 136.76 58.9243 136.63 58.829C136.509 58.7337 136.348 58.647 136.149 58.569C135.95 58.4823 135.737 58.3957 135.512 58.309C135.252 58.205 134.992 58.075 134.732 57.919C134.481 57.763 134.268 57.5637 134.095 57.321C133.922 57.0697 133.835 56.7663 133.835 56.411C133.835 55.813 134.06 55.3277 134.511 54.955C134.97 54.5823 135.568 54.396 136.305 54.396C136.799 54.396 137.232 54.4827 137.605 54.656C137.986 54.8207 138.311 55.007 138.58 55.215L137.722 56.359C137.497 56.1857 137.271 56.0513 137.046 55.956C136.821 55.8607 136.595 55.813 136.37 55.813C135.876 55.813 135.629 55.982 135.629 56.32C135.629 56.528 135.75 56.6883 135.993 56.801C136.244 56.905 136.535 57.0177 136.864 57.139C137.141 57.2343 137.41 57.36 137.67 57.516C137.939 57.6633 138.16 57.8627 138.333 58.114C138.515 58.3567 138.606 58.6773 138.606 59.076C138.606 59.6567 138.381 60.1507 137.93 60.558C137.479 60.9567 136.821 61.156 135.954 61.156Z" fill="#FF7A00"/>
<path d="M202.25 56.71L202.042 57.49H203.849L203.654 56.71C203.541 56.2853 203.424 55.8347 203.303 55.358C203.19 54.8813 203.077 54.422 202.965 53.98H202.913C202.809 54.4307 202.7 54.8943 202.588 55.371C202.484 55.839 202.371 56.2853 202.25 56.71ZM199.182 61L201.834 52.524H204.135L206.787 61H204.759L204.239 58.985H201.652L201.132 61H199.182ZM210.937 61.156C210.651 61.156 210.361 61.0867 210.066 60.948C209.78 60.8007 209.511 60.5883 209.26 60.311H209.208L209.052 61H207.557V51.887H209.468V54.123L209.416 55.111C209.667 54.8857 209.94 54.7123 210.235 54.591C210.53 54.461 210.824 54.396 211.119 54.396C211.639 54.396 212.09 54.5303 212.471 54.799C212.852 55.0677 213.143 55.449 213.342 55.943C213.55 56.4283 213.654 57.0003 213.654 57.659C213.654 58.3957 213.524 59.0283 213.264 59.557C213.004 60.077 212.666 60.4757 212.25 60.753C211.843 61.0217 211.405 61.156 210.937 61.156ZM210.495 59.596C210.824 59.596 211.106 59.4443 211.34 59.141C211.574 58.8377 211.691 58.3567 211.691 57.698C211.691 56.5367 211.318 55.956 210.573 55.956C210.192 55.956 209.823 56.151 209.468 56.541V59.18C209.641 59.336 209.815 59.4443 209.988 59.505C210.161 59.5657 210.33 59.596 210.495 59.596ZM217.778 61.156C217.232 61.156 216.716 61.026 216.231 60.766C215.754 60.4973 215.369 60.1117 215.074 59.609C214.779 59.0977 214.632 58.4867 214.632 57.776C214.632 57.0567 214.779 56.4457 215.074 55.943C215.369 55.4403 215.754 55.059 216.231 54.799C216.716 54.5303 217.232 54.396 217.778 54.396C218.324 54.396 218.835 54.5303 219.312 54.799C219.789 55.059 220.174 55.4403 220.469 55.943C220.764 56.4457 220.911 57.0567 220.911 57.776C220.911 58.4867 220.764 59.0977 220.469 59.609C220.174 60.1117 219.789 60.4973 219.312 60.766C218.835 61.026 218.324 61.156 217.778 61.156ZM217.778 59.609C218.168 59.609 218.463 59.4443 218.662 59.115C218.861 58.777 218.961 58.3307 218.961 57.776C218.961 57.2127 218.861 56.7663 218.662 56.437C218.463 56.1077 218.168 55.943 217.778 55.943C217.379 55.943 217.08 56.1077 216.881 56.437C216.69 56.7663 216.595 57.2127 216.595 57.776C216.595 58.3307 216.69 58.777 216.881 59.115C217.08 59.4443 217.379 59.609 217.778 59.609ZM224.157 61.156C223.455 61.156 222.944 60.9263 222.623 60.467C222.311 59.999 222.155 59.362 222.155 58.556V54.552H224.066V58.309C224.066 58.7683 224.131 59.089 224.261 59.271C224.391 59.4443 224.595 59.531 224.872 59.531C225.115 59.531 225.318 59.4747 225.483 59.362C225.648 59.2493 225.825 59.0673 226.016 58.816V54.552H227.927V61H226.367L226.224 60.103H226.185C225.916 60.4237 225.622 60.6793 225.301 60.87C224.98 61.0607 224.599 61.156 224.157 61.156ZM232.092 61.156C231.294 61.156 230.722 60.9263 230.376 60.467C230.038 60.0077 229.869 59.4053 229.869 58.66V56.047H228.985V54.63L229.973 54.552L230.194 52.836H231.78V54.552H233.327V56.047H231.78V58.634C231.78 58.998 231.853 59.2623 232.001 59.427C232.157 59.583 232.36 59.661 232.612 59.661C232.716 59.661 232.82 59.648 232.924 59.622C233.036 59.596 233.136 59.5657 233.223 59.531L233.522 60.922C233.357 60.974 233.153 61.026 232.911 61.078C232.677 61.13 232.404 61.156 232.092 61.156Z" fill="#FF7A00"/>
<line x1="54" y1="24.5" x2="107" y2="24.5" stroke="#FF7A00" stroke-width="5"/>
<line x1="145" y1="24.5" x2="197" y2="24.5" stroke="#FF7A00" stroke-width="5"/>
<line x1="237" y1="24.5" x2="288" y2="24.5" stroke="#BCBCBC" stroke-width="3"/>
<circle cx="34.5" cy="23.5" r="20.5" fill="#FF7A00"/>
<circle cx="125.5" cy="23.5" r="19" fill="#FF7A00" stroke="#FF7A00" stroke-width="3"/>
<circle cx="216.5" cy="23.5" r="19" fill="#FF7A00" stroke="#FF7A00" stroke-width="3"/>
<circle cx="307.5" cy="23.5" r="19" stroke="#BCBCBC" stroke-width="3"/>
<path d="M120.74 31V29.32C121.82 28.2933 122.773 27.3667 123.6 26.54C124.44 25.7 125.093 24.9333 125.56 24.24C126.027 23.5333 126.26 22.88 126.26 22.28C126.26 21.6533 126.093 21.18 125.76 20.86C125.44 20.5267 125.007 20.36 124.46 20.36C124.007 20.36 123.593 20.4933 123.22 20.76C122.86 21.0133 122.52 21.3133 122.2 21.66L120.6 20.08C121.227 19.4133 121.867 18.9133 122.52 18.58C123.173 18.2333 123.953 18.06 124.86 18.06C125.7 18.06 126.433 18.2267 127.06 18.56C127.687 18.8933 128.173 19.3667 128.52 19.98C128.88 20.58 129.06 21.2867 129.06 22.1C129.06 22.8067 128.86 23.5333 128.46 24.28C128.073 25.0133 127.573 25.7533 126.96 26.5C126.347 27.2333 125.693 27.96 125 28.68C125.32 28.64 125.68 28.6067 126.08 28.58C126.48 28.54 126.827 28.52 127.12 28.52H129.68V31H120.74Z" fill="white"/>
<path d="M215.86 31.24C214.833 31.24 213.953 31.0733 213.22 30.74C212.5 30.4067 211.907 29.9733 211.44 29.44L212.8 27.58C213.187 27.9533 213.613 28.26 214.08 28.5C214.547 28.74 215.047 28.86 215.58 28.86C216.207 28.86 216.707 28.7333 217.08 28.48C217.453 28.2133 217.64 27.84 217.64 27.36C217.64 26.9867 217.547 26.6667 217.36 26.4C217.173 26.12 216.833 25.9067 216.34 25.76C215.847 25.6133 215.14 25.54 214.22 25.54V23.46C215.367 23.46 216.153 23.3067 216.58 23C217.007 22.68 217.22 22.2667 217.22 21.76C217.22 21.32 217.087 20.98 216.82 20.74C216.553 20.4867 216.167 20.36 215.66 20.36C215.207 20.36 214.793 20.46 214.42 20.66C214.06 20.86 213.68 21.1333 213.28 21.48L211.8 19.68C212.387 19.1733 213.007 18.78 213.66 18.5C214.313 18.2067 215.027 18.06 215.8 18.06C217.107 18.06 218.16 18.3667 218.96 18.98C219.773 19.58 220.18 20.4333 220.18 21.54C220.18 22.1933 219.993 22.7533 219.62 23.22C219.26 23.6867 218.74 24.0667 218.06 24.36V24.44C218.793 24.6533 219.393 25.02 219.86 25.54C220.34 26.0467 220.58 26.7133 220.58 27.54C220.58 28.3267 220.36 29 219.92 29.56C219.493 30.1067 218.92 30.5267 218.2 30.82C217.493 31.1 216.713 31.24 215.86 31.24Z" fill="white"/>
<path d="M305.2 25.72H307.88V23.66C307.88 23.2467 307.893 22.7733 307.92 22.24C307.96 21.6933 307.987 21.22 308 20.82H307.92C307.76 21.1667 307.593 21.52 307.42 21.88C307.247 22.24 307.067 22.6 306.88 22.96L305.2 25.72ZM307.88 31V27.96H302.38V25.94L307.02 18.3H310.62V25.72H312.08V27.96H310.62V31H307.88Z" fill="#001F3B"/>
<path d="M30.4 31V28.62H33.16V21.28H30.78V19.46C31.4733 19.3267 32.06 19.1667 32.54 18.98C33.02 18.7933 33.4867 18.5667 33.94 18.3H36.1V28.62H38.48V31H30.4Z" fill="white"/>
</svg>
