<svg width="342" height="66" viewBox="0 0 342 66" fill="none" xmlns="http://www.w3.org/2000/svg">
<path d="M116.163 61V53.772H113.706V52.498H120.128V53.772H117.671V61H116.163ZM122.072 61.156C121.518 61.156 121.063 60.9827 120.707 60.636C120.361 60.2893 120.187 59.8387 120.187 59.284C120.187 58.5993 120.486 58.0707 121.084 57.698C121.682 57.3167 122.636 57.0567 123.944 56.918C123.936 56.58 123.845 56.2897 123.671 56.047C123.507 55.7957 123.208 55.67 122.774 55.67C122.462 55.67 122.155 55.7307 121.851 55.852C121.557 55.9733 121.266 56.1207 120.98 56.294L120.434 55.293C120.79 55.0677 121.188 54.8727 121.63 54.708C122.081 54.5433 122.558 54.461 123.06 54.461C123.858 54.461 124.451 54.6993 124.841 55.176C125.24 55.644 125.439 56.3243 125.439 57.217V61H124.204L124.1 60.298H124.048C123.762 60.5407 123.455 60.7443 123.125 60.909C122.805 61.0737 122.454 61.156 122.072 61.156ZM122.553 59.986C122.813 59.986 123.047 59.9253 123.255 59.804C123.472 59.674 123.702 59.5007 123.944 59.284V57.854C123.078 57.9667 122.475 58.1357 122.137 58.361C121.799 58.5777 121.63 58.8463 121.63 59.167C121.63 59.453 121.717 59.661 121.89 59.791C122.064 59.921 122.285 59.986 122.553 59.986ZM129.451 63.821C128.949 63.821 128.494 63.7603 128.086 63.639C127.688 63.5177 127.371 63.3313 127.137 63.08C126.912 62.8373 126.799 62.5297 126.799 62.157C126.799 61.6283 127.103 61.1733 127.709 60.792V60.74C127.545 60.636 127.406 60.4973 127.293 60.324C127.189 60.1507 127.137 59.934 127.137 59.674C127.137 59.4227 127.207 59.1973 127.345 58.998C127.493 58.79 127.657 58.621 127.839 58.491V58.439C127.623 58.2743 127.428 58.0447 127.254 57.75C127.09 57.4553 127.007 57.1217 127.007 56.749C127.007 56.255 127.124 55.839 127.358 55.501C127.592 55.163 127.9 54.9073 128.281 54.734C128.671 54.552 129.087 54.461 129.529 54.461C129.703 54.461 129.867 54.4783 130.023 54.513C130.188 54.539 130.335 54.5737 130.465 54.617H132.753V55.722H131.583C131.687 55.8433 131.774 55.9993 131.843 56.19C131.913 56.372 131.947 56.5757 131.947 56.801C131.947 57.269 131.839 57.6677 131.622 57.997C131.406 58.3177 131.115 58.5603 130.751 58.725C130.387 58.8897 129.98 58.972 129.529 58.972C129.391 58.972 129.248 58.959 129.1 58.933C128.953 58.907 128.806 58.8637 128.658 58.803C128.563 58.8897 128.485 58.9763 128.424 59.063C128.372 59.1497 128.346 59.2667 128.346 59.414C128.346 59.596 128.42 59.739 128.567 59.843C128.723 59.947 128.996 59.999 129.386 59.999H130.517C131.289 59.999 131.869 60.1247 132.259 60.376C132.658 60.6187 132.857 61.0173 132.857 61.572C132.857 61.988 132.719 62.365 132.441 62.703C132.164 63.0497 131.77 63.3227 131.258 63.522C130.747 63.7213 130.145 63.821 129.451 63.821ZM129.529 58.036C129.833 58.036 130.093 57.9233 130.309 57.698C130.526 57.4727 130.634 57.1563 130.634 56.749C130.634 56.3503 130.526 56.0427 130.309 55.826C130.101 55.6007 129.841 55.488 129.529 55.488C129.217 55.488 128.953 55.5963 128.736 55.813C128.52 56.0297 128.411 56.3417 128.411 56.749C128.411 57.1563 128.52 57.4727 128.736 57.698C128.953 57.9233 129.217 58.036 129.529 58.036ZM129.685 62.846C130.197 62.846 130.613 62.742 130.933 62.534C131.254 62.326 131.414 62.0877 131.414 61.819C131.414 61.5677 131.315 61.3987 131.115 61.312C130.925 61.2253 130.647 61.182 130.283 61.182H129.412C129.066 61.182 128.775 61.1517 128.541 61.091C128.212 61.3423 128.047 61.624 128.047 61.936C128.047 62.222 128.195 62.443 128.489 62.599C128.784 62.7637 129.183 62.846 129.685 62.846ZM135.763 61.156C135.33 61.156 134.897 61.0737 134.463 60.909C134.03 60.7357 133.657 60.5233 133.345 60.272L134.047 59.31C134.333 59.5267 134.619 59.7 134.905 59.83C135.191 59.96 135.495 60.025 135.815 60.025C136.162 60.025 136.418 59.9513 136.582 59.804C136.747 59.6567 136.829 59.4747 136.829 59.258C136.829 59.076 136.76 58.9287 136.621 58.816C136.491 58.6947 136.322 58.5907 136.114 58.504C135.906 58.4087 135.69 58.3177 135.464 58.231C135.187 58.127 134.91 58.0013 134.632 57.854C134.364 57.698 134.143 57.503 133.969 57.269C133.796 57.0263 133.709 56.7273 133.709 56.372C133.709 55.8087 133.917 55.3493 134.333 54.994C134.749 54.6387 135.313 54.461 136.023 54.461C136.474 54.461 136.877 54.539 137.232 54.695C137.588 54.851 137.895 55.0287 138.155 55.228L137.466 56.138C137.241 55.9733 137.011 55.8433 136.777 55.748C136.552 55.644 136.314 55.592 136.062 55.592C135.742 55.592 135.503 55.6613 135.347 55.8C135.191 55.93 135.113 56.0947 135.113 56.294C135.113 56.5453 135.243 56.736 135.503 56.866C135.763 56.996 136.067 57.1217 136.413 57.243C136.708 57.347 136.994 57.477 137.271 57.633C137.549 57.7803 137.778 57.9753 137.96 58.218C138.151 58.4607 138.246 58.7813 138.246 59.18C138.246 59.726 138.034 60.194 137.609 60.584C137.185 60.9653 136.569 61.156 135.763 61.156Z" fill="black" fill-opacity="0.67"/>
<path d="M203.006 56.476L202.707 57.516H204.878L204.579 56.476C204.44 56.0253 204.306 55.5617 204.176 55.085C204.055 54.6083 203.933 54.136 203.812 53.668H203.76C203.647 54.1447 203.526 54.6213 203.396 55.098C203.275 55.566 203.145 56.0253 203.006 56.476ZM200.159 61L202.928 52.498H204.696L207.465 61H205.879L205.216 58.699H202.356L201.693 61H200.159ZM211.477 61.156C210.87 61.156 210.29 60.8787 209.735 60.324H209.696L209.566 61H208.383V51.822H209.878V54.188L209.839 55.254C210.108 55.02 210.402 54.8293 210.723 54.682C211.044 54.5347 211.364 54.461 211.685 54.461C212.482 54.461 213.102 54.7557 213.544 55.345C213.986 55.9343 214.207 56.7187 214.207 57.698C214.207 58.426 214.077 59.05 213.817 59.57C213.557 60.0813 213.219 60.4757 212.803 60.753C212.396 61.0217 211.954 61.156 211.477 61.156ZM211.165 59.921C211.59 59.921 211.945 59.7347 212.231 59.362C212.517 58.9893 212.66 58.4433 212.66 57.724C212.66 57.0827 212.552 56.5843 212.335 56.229C212.118 55.8737 211.767 55.696 211.282 55.696C210.831 55.696 210.363 55.9343 209.878 56.411V59.388C210.103 59.5787 210.324 59.7173 210.541 59.804C210.766 59.882 210.974 59.921 211.165 59.921ZM218.321 61.156C217.793 61.156 217.299 61.026 216.839 60.766C216.38 60.4973 216.007 60.116 215.721 59.622C215.435 59.1193 215.292 58.517 215.292 57.815C215.292 57.1043 215.435 56.502 215.721 56.008C216.007 55.5053 216.38 55.124 216.839 54.864C217.299 54.5953 217.793 54.461 218.321 54.461C218.859 54.461 219.357 54.5953 219.816 54.864C220.276 55.124 220.648 55.5053 220.934 56.008C221.22 56.502 221.363 57.1043 221.363 57.815C221.363 58.517 221.22 59.1193 220.934 59.622C220.648 60.116 220.276 60.4973 219.816 60.766C219.357 61.026 218.859 61.156 218.321 61.156ZM218.321 59.934C218.789 59.934 219.158 59.739 219.426 59.349C219.695 58.959 219.829 58.4477 219.829 57.815C219.829 57.1737 219.695 56.658 219.426 56.268C219.158 55.878 218.789 55.683 218.321 55.683C217.853 55.683 217.485 55.878 217.216 56.268C216.956 56.658 216.826 57.1737 216.826 57.815C216.826 58.4477 216.956 58.959 217.216 59.349C217.485 59.739 217.853 59.934 218.321 59.934ZM224.741 61.156C224.056 61.156 223.558 60.935 223.246 60.493C222.934 60.051 222.778 59.427 222.778 58.621V54.617H224.273V58.426C224.273 58.9547 224.351 59.3273 224.507 59.544C224.663 59.7607 224.914 59.869 225.261 59.869C225.538 59.869 225.781 59.7997 225.989 59.661C226.206 59.5223 226.435 59.297 226.678 58.985V54.617H228.173V61H226.951L226.834 60.064H226.795C226.518 60.3933 226.214 60.6577 225.885 60.857C225.556 61.0563 225.174 61.156 224.741 61.156ZM232.316 61.156C231.579 61.156 231.055 60.9437 230.743 60.519C230.439 60.0857 230.288 59.5267 230.288 58.842V55.8H229.378V54.682L230.366 54.617L230.548 52.875H231.796V54.617H233.421V55.8H231.796V58.842C231.796 59.5873 232.095 59.96 232.693 59.96C232.805 59.96 232.922 59.947 233.044 59.921C233.165 59.8863 233.269 59.8517 233.356 59.817L233.616 60.922C233.442 60.9827 233.243 61.0347 233.018 61.078C232.801 61.13 232.567 61.156 232.316 61.156Z" fill="black" fill-opacity="0.67"/>
<path d="M292.435 61V52.498H295.113C295.746 52.498 296.309 52.5803 296.803 52.745C297.297 52.9097 297.687 53.1827 297.973 53.564C298.259 53.9453 298.402 54.4653 298.402 55.124C298.402 55.748 298.259 56.2637 297.973 56.671C297.687 57.0783 297.302 57.3817 296.816 57.581C296.331 57.7803 295.781 57.88 295.165 57.88H293.943V61H292.435ZM293.943 56.671H295.048C296.296 56.671 296.92 56.1553 296.92 55.124C296.92 54.5867 296.756 54.2183 296.426 54.019C296.106 53.811 295.629 53.707 294.996 53.707H293.943V56.671ZM299.872 61V51.822H301.367V54.188L301.315 55.423C301.584 55.1717 301.883 54.9507 302.212 54.76C302.541 54.5607 302.923 54.461 303.356 54.461C304.041 54.461 304.539 54.682 304.851 55.124C305.163 55.566 305.319 56.19 305.319 56.996V61H303.824V57.191C303.824 56.6623 303.746 56.2897 303.59 56.073C303.434 55.8563 303.178 55.748 302.823 55.748C302.546 55.748 302.299 55.8173 302.082 55.956C301.874 56.086 301.636 56.281 301.367 56.541V61H299.872ZM309.734 61.156C309.205 61.156 308.711 61.026 308.252 60.766C307.793 60.4973 307.42 60.116 307.134 59.622C306.848 59.1193 306.705 58.517 306.705 57.815C306.705 57.1043 306.848 56.502 307.134 56.008C307.42 55.5053 307.793 55.124 308.252 54.864C308.711 54.5953 309.205 54.461 309.734 54.461C310.271 54.461 310.77 54.5953 311.229 54.864C311.688 55.124 312.061 55.5053 312.347 56.008C312.633 56.502 312.776 57.1043 312.776 57.815C312.776 58.517 312.633 59.1193 312.347 59.622C312.061 60.116 311.688 60.4973 311.229 60.766C310.77 61.026 310.271 61.156 309.734 61.156ZM309.734 59.934C310.202 59.934 310.57 59.739 310.839 59.349C311.108 58.959 311.242 58.4477 311.242 57.815C311.242 57.1737 311.108 56.658 310.839 56.268C310.57 55.878 310.202 55.683 309.734 55.683C309.266 55.683 308.898 55.878 308.629 56.268C308.369 56.658 308.239 57.1737 308.239 57.815C308.239 58.4477 308.369 58.959 308.629 59.349C308.898 59.739 309.266 59.934 309.734 59.934ZM316.213 61.156C315.476 61.156 314.952 60.9437 314.64 60.519C314.336 60.0857 314.185 59.5267 314.185 58.842V55.8H313.275V54.682L314.263 54.617L314.445 52.875H315.693V54.617H317.318V55.8H315.693V58.842C315.693 59.5873 315.992 59.96 316.59 59.96C316.702 59.96 316.819 59.947 316.941 59.921C317.062 59.8863 317.166 59.8517 317.253 59.817L317.513 60.922C317.339 60.9827 317.14 61.0347 316.915 61.078C316.698 61.13 316.464 61.156 316.213 61.156ZM321.071 61.156C320.542 61.156 320.048 61.026 319.589 60.766C319.129 60.4973 318.757 60.116 318.471 59.622C318.185 59.1193 318.042 58.517 318.042 57.815C318.042 57.1043 318.185 56.502 318.471 56.008C318.757 55.5053 319.129 55.124 319.589 54.864C320.048 54.5953 320.542 54.461 321.071 54.461C321.608 54.461 322.106 54.5953 322.566 54.864C323.025 55.124 323.398 55.5053 323.684 56.008C323.97 56.502 324.113 57.1043 324.113 57.815C324.113 58.517 323.97 59.1193 323.684 59.622C323.398 60.116 323.025 60.4973 322.566 60.766C322.106 61.026 321.608 61.156 321.071 61.156ZM321.071 59.934C321.539 59.934 321.907 59.739 322.176 59.349C322.444 58.959 322.579 58.4477 322.579 57.815C322.579 57.1737 322.444 56.658 322.176 56.268C321.907 55.878 321.539 55.683 321.071 55.683C320.603 55.683 320.234 55.878 319.966 56.268C319.706 56.658 319.576 57.1737 319.576 57.815C319.576 58.4477 319.706 58.959 319.966 59.349C320.234 59.739 320.603 59.934 321.071 59.934Z" fill="black" fill-opacity="0.67"/>
<path d="M24.5689 61V52.524H26.4799V61H24.5689ZM28.323 61V54.552H29.883L30.013 55.371H30.065C30.3424 55.111 30.6457 54.8857 30.975 54.695C31.313 54.4957 31.6987 54.396 32.132 54.396C32.834 54.396 33.341 54.63 33.653 55.098C33.9737 55.5573 34.134 56.19 34.134 56.996V61H32.223V57.243C32.223 56.775 32.158 56.4543 32.028 56.281C31.9067 56.1077 31.7074 56.021 31.43 56.021C31.1874 56.021 30.9794 56.0773 30.806 56.19C30.6327 56.294 30.442 56.4457 30.234 56.645V61H28.323ZM36.0875 61V56.047H35.2295V54.63L36.0875 54.565V54.214C36.0875 53.7547 36.1655 53.3387 36.3215 52.966C36.4775 52.5933 36.7288 52.2943 37.0755 52.069C37.4221 51.8437 37.8858 51.731 38.4665 51.731C38.7351 51.731 38.9821 51.757 39.2075 51.809C39.4328 51.861 39.6148 51.913 39.7535 51.965L39.4025 53.369C39.2898 53.3257 39.1771 53.2953 39.0645 53.278C38.9518 53.252 38.8435 53.239 38.7395 53.239C38.5055 53.239 38.3235 53.3127 38.1935 53.46C38.0635 53.5987 37.9985 53.8327 37.9985 54.162V54.552H39.1555V56.047H37.9985V61H36.0875ZM42.8352 61.156C42.2892 61.156 41.7735 61.026 41.2882 60.766C40.8115 60.4973 40.4259 60.1117 40.1312 59.609C39.8365 59.0977 39.6892 58.4867 39.6892 57.776C39.6892 57.0567 39.8365 56.4457 40.1312 55.943C40.4259 55.4403 40.8115 55.059 41.2882 54.799C41.7735 54.5303 42.2892 54.396 42.8352 54.396C43.3812 54.396 43.8925 54.5303 44.3692 54.799C44.8459 55.059 45.2315 55.4403 45.5262 55.943C45.8209 56.4457 45.9682 57.0567 45.9682 57.776C45.9682 58.4867 45.8209 59.0977 45.5262 59.609C45.2315 60.1117 44.8459 60.4973 44.3692 60.766C43.8925 61.026 43.3812 61.156 42.8352 61.156ZM42.8352 59.609C43.2252 59.609 43.5199 59.4443 43.7192 59.115C43.9185 58.777 44.0182 58.3307 44.0182 57.776C44.0182 57.2127 43.9185 56.7663 43.7192 56.437C43.5199 56.1077 43.2252 55.943 42.8352 55.943C42.4365 55.943 42.1375 56.1077 41.9382 56.437C41.7475 56.7663 41.6522 57.2127 41.6522 57.776C41.6522 58.3307 41.7475 58.777 41.9382 59.115C42.1375 59.4443 42.4365 59.609 42.8352 59.609Z" fill="#FF7A00"/>
<path d="M120.74 31V29.32C121.82 28.2933 122.773 27.3667 123.6 26.54C124.44 25.7 125.093 24.9333 125.56 24.24C126.027 23.5333 126.26 22.88 126.26 22.28C126.26 21.6533 126.093 21.18 125.76 20.86C125.44 20.5267 125.007 20.36 124.46 20.36C124.007 20.36 123.593 20.4933 123.22 20.76C122.86 21.0133 122.52 21.3133 122.2 21.66L120.6 20.08C121.227 19.4133 121.867 18.9133 122.52 18.58C123.173 18.2333 123.953 18.06 124.86 18.06C125.7 18.06 126.433 18.2267 127.06 18.56C127.687 18.8933 128.173 19.3667 128.52 19.98C128.88 20.58 129.06 21.2867 129.06 22.1C129.06 22.8067 128.86 23.5333 128.46 24.28C128.073 25.0133 127.573 25.7533 126.96 26.5C126.347 27.2333 125.693 27.96 125 28.68C125.32 28.64 125.68 28.6067 126.08 28.58C126.48 28.54 126.827 28.52 127.12 28.52H129.68V31H120.74Z" fill="#001F3B"/>
<path d="M215.86 31.24C214.833 31.24 213.953 31.0733 213.22 30.74C212.5 30.4067 211.907 29.9733 211.44 29.44L212.8 27.58C213.187 27.9533 213.613 28.26 214.08 28.5C214.547 28.74 215.047 28.86 215.58 28.86C216.207 28.86 216.707 28.7333 217.08 28.48C217.453 28.2133 217.64 27.84 217.64 27.36C217.64 26.9867 217.547 26.6667 217.36 26.4C217.173 26.12 216.833 25.9067 216.34 25.76C215.847 25.6133 215.14 25.54 214.22 25.54V23.46C215.367 23.46 216.153 23.3067 216.58 23C217.007 22.68 217.22 22.2667 217.22 21.76C217.22 21.32 217.087 20.98 216.82 20.74C216.553 20.4867 216.167 20.36 215.66 20.36C215.207 20.36 214.793 20.46 214.42 20.66C214.06 20.86 213.68 21.1333 213.28 21.48L211.8 19.68C212.387 19.1733 213.007 18.78 213.66 18.5C214.313 18.2067 215.027 18.06 215.8 18.06C217.107 18.06 218.16 18.3667 218.96 18.98C219.773 19.58 220.18 20.4333 220.18 21.54C220.18 22.1933 219.993 22.7533 219.62 23.22C219.26 23.6867 218.74 24.0667 218.06 24.36V24.44C218.793 24.6533 219.393 25.02 219.86 25.54C220.34 26.0467 220.58 26.7133 220.58 27.54C220.58 28.3267 220.36 29 219.92 29.56C219.493 30.1067 218.92 30.5267 218.2 30.82C217.493 31.1 216.713 31.24 215.86 31.24Z" fill="#001F3B"/>
<path d="M305.2 25.72H307.88V23.66C307.88 23.2467 307.893 22.7733 307.92 22.24C307.96 21.6933 307.987 21.22 308 20.82H307.92C307.76 21.1667 307.593 21.52 307.42 21.88C307.247 22.24 307.067 22.6 306.88 22.96L305.2 25.72ZM307.88 31V27.96H302.38V25.94L307.02 18.3H310.62V25.72H312.08V27.96H310.62V31H307.88Z" fill="#001F3B"/>
<line x1="54" y1="24.5" x2="105" y2="24.5" stroke="#BCBCBC" stroke-width="3"/>
<line x1="145" y1="24.5" x2="196" y2="24.5" stroke="#BCBCBC" stroke-width="3"/>
<line x1="237" y1="24.5" x2="288" y2="24.5" stroke="#BCBCBC" stroke-width="3"/>
<circle cx="34.5" cy="23.5" r="20.5" fill="#FF7A00"/>
<circle cx="125.5" cy="23.5" r="19" stroke="#BCBCBC" stroke-width="3"/>
<circle cx="216.5" cy="23.5" r="19" stroke="#BCBCBC" stroke-width="3"/>
<circle cx="307.5" cy="23.5" r="19" stroke="#BCBCBC" stroke-width="3"/>
<path d="M30.4 31V28.62H33.16V21.28H30.78V19.46C31.4733 19.3267 32.06 19.1667 32.54 18.98C33.02 18.7933 33.4867 18.5667 33.94 18.3H36.1V28.62H38.48V31H30.4Z" fill="white"/>
</svg>
