<svg width="40" height="40" viewBox="0 0 40 40" fill="none" xmlns="http://www.w3.org/2000/svg">
<rect width="40" height="40" rx="20" fill="#FF7A00"/>
<path d="M21.8285 18.4443L21.8601 14.3532C21.8638 13.8738 21.6576 13.4151 21.2976 13.0986C20.6945 12.5682 19.7857 12.5749 19.1937 13.1176C18.859 13.4244 18.666 13.8558 18.6604 14.3098L18.6092 18.4353C18.6073 18.5893 18.4819 18.7132 18.3278 18.7132L14.5687 18.7132C14.1319 18.7132 13.713 18.8867 13.4041 19.1955C12.7649 19.8347 12.7646 20.8739 13.3982 21.5186C13.7094 21.8354 14.1366 22.0156 14.5807 22.0156L18.2686 22.0156C18.4548 22.0156 18.6057 22.1665 18.6057 22.3527L18.6057 26.0826C18.6057 26.4838 18.7568 26.8725 19.0263 27.1697C19.6684 27.8776 20.7882 27.877 21.4223 27.1619C21.6827 26.8681 21.8265 26.4892 21.8265 26.0967L21.8265 22.4794C21.8265 22.2233 22.0341 22.0156 22.2903 22.0156H25.9226C26.401 22.0156 26.8575 21.815 27.181 21.4625L27.2717 21.3637C27.8852 20.6954 27.8117 19.649 27.1109 19.0729C26.828 18.8403 26.4731 18.7132 26.1068 18.7132L22.0953 18.7132C21.9472 18.7132 21.8274 18.5925 21.8285 18.4443Z" fill="white"/>
</svg>
